<svg width="24" height="24" viewBox="0 0 24 24" fill="none" xmlns="http://www.w3.org/2000/svg">
<path fill-rule="evenodd" clip-rule="evenodd" d="M23.1799 6.24008C23.4996 5.77041 23.7742 5.27151 23.9999 4.75008C24.0087 4.61323 23.9893 4.47603 23.9428 4.34701C23.8964 4.21799 23.8239 4.0999 23.7299 4.00008C22.9064 3.13333 21.991 2.35877 20.9999 1.69008C20.5599 1.34753 20.062 1.08673 19.5299 0.920075C19.4218 0.901598 19.3107 0.911207 19.2074 0.94798C19.1041 0.984753 19.012 1.04746 18.9399 1.13008C18.6299 1.49008 17.9399 2.07008 17.1999 2.78008C16.9499 3.02008 16.6899 3.28008 16.4499 3.56008C14.9999 5.13007 13.4899 7.00008 12.7699 7.82008C11.2499 6.24008 8.04987 2.82008 6.45987 1.52008C6.14674 1.24001 5.774 1.03483 5.36987 0.920075C5.27903 0.897121 5.18455 0.892373 5.09187 0.906103C4.9992 0.919833 4.91015 0.951771 4.82987 1.00008C4.73987 1.11008 0.99987 3.67008 0.19987 5.11008C0.0904338 5.27709 0.0240305 5.46859 0.00658201 5.66751C-0.0108664 5.86642 0.0211824 6.06656 0.0998705 6.25008C0.278144 6.55452 0.500561 6.83086 0.75987 7.07008C1.07203 7.39589 1.40615 7.69993 1.75987 7.98008C2.00987 8.17008 2.66987 8.76007 3.43987 9.48007C4.68987 10.6101 6.19987 12.0001 6.93987 12.7501C5.93987 13.6101 3.60987 15.6301 2.22987 17.0101C1.81322 17.3976 1.44094 17.8303 1.11987 18.3001C1.03921 18.4294 0.994342 18.5778 0.98987 18.7301C1.11903 19.1592 1.36074 19.5459 1.68987 19.8501C2.6146 20.7882 3.58582 21.6793 4.59987 22.5201C4.74987 22.6501 5.00987 23.2101 5.50987 23.0701C5.70437 22.9694 5.88573 22.8451 6.04987 22.7001C6.32987 22.5001 7.91987 21.1901 9.56987 19.7601C10.7299 18.7601 11.9099 17.7001 12.6899 16.9301L13.0999 17.2701C14.7799 18.6601 18.9499 22.2201 19.0999 22.5001C19.12 22.5403 19.1479 22.5762 19.182 22.6056C19.2161 22.6349 19.2557 22.6572 19.2985 22.6712C19.3413 22.6851 19.3865 22.6905 19.4313 22.6868C19.4762 22.6832 19.5199 22.6707 19.5599 22.6501L19.8899 22.4501C20.4799 22.0501 21.7499 21.0901 22.4999 20.4501C22.5289 20.4213 22.5519 20.387 22.5677 20.3492C22.5834 20.3115 22.5915 20.271 22.5915 20.2301C22.5915 20.1892 22.5834 20.1487 22.5677 20.1109C22.5519 20.0732 22.5289 20.0389 22.4999 20.0101C22.4719 19.9813 22.4385 19.9585 22.4016 19.9429C22.3646 19.9273 22.325 19.9193 22.2849 19.9193C22.2448 19.9193 22.2051 19.9273 22.1682 19.9429C22.1313 19.9585 22.0978 19.9813 22.0699 20.0101C21.3299 20.6301 20.0699 21.5601 19.4899 21.9401H19.4299C18.4999 21.0001 15.0799 17.9401 13.5899 16.6601L12.9999 16.1301C12.914 16.0636 12.8085 16.0275 12.6999 16.0275C12.5913 16.0275 12.4857 16.0636 12.3999 16.1301C11.6299 16.8901 10.3099 18.0301 9.01987 19.1301C7.38987 20.5001 5.81987 21.7601 5.53987 21.9501L5.43987 22.0301L5.24987 21.8301C4.91987 21.5401 4.16987 20.8801 3.46987 20.2001C2.98606 19.7736 2.54099 19.3051 2.13987 18.8001C2.18411 18.705 2.23771 18.6145 2.29987 18.5301C2.93115 17.8636 3.59883 17.2327 4.29987 16.6401C5.99987 15.0001 8.16987 13.2101 8.16987 13.2101C8.23136 13.1585 8.28104 13.0943 8.31555 13.0218C8.35005 12.9494 8.36858 12.8703 8.36987 12.7901C8.37514 12.7103 8.36262 12.6303 8.33322 12.556C8.30382 12.4816 8.25828 12.4147 8.19987 12.3601C8.19987 12.3601 5.99987 10.1901 4.27987 8.62008C3.45987 7.86007 2.76987 7.23008 2.49987 7.00008C2.17966 6.7607 1.87874 6.49655 1.59987 6.21008C1.00987 5.62008 1.10987 5.77008 1.46987 5.35008C1.69987 5.08008 1.96987 4.84008 2.10987 4.68007C3.10092 3.75656 4.16432 2.91386 5.28987 2.16008C5.43185 2.25261 5.56871 2.35276 5.69987 2.46008C7.43987 3.85008 11.1099 7.78008 12.3799 9.00008C12.4339 9.05541 12.4984 9.09938 12.5697 9.1294C12.641 9.15942 12.7175 9.17489 12.7949 9.17489C12.8722 9.17489 12.9488 9.15942 13.02 9.1294C13.0913 9.09938 13.1558 9.05541 13.2099 9.00008C13.2799 8.93008 13.4199 8.77008 13.6099 8.54008C14.3199 7.69008 15.8199 5.84008 17.2199 4.25008L19.5299 1.94008H19.6199C20.708 2.55283 21.7158 3.29855 22.6199 4.16007C22.7652 4.29838 22.9022 4.44531 23.0299 4.60008C22.8459 4.97908 22.6388 5.34643 22.4099 5.70008C22.1411 6.11627 21.8402 6.51081 21.5099 6.88008L17.3999 11.6301C17.3307 11.7128 17.2928 11.8172 17.2928 11.9251C17.2928 12.0329 17.3307 12.1373 17.3999 12.2201C17.5679 12.4528 17.7482 12.6764 17.9399 12.8901C19.0899 14.2201 21.7099 17.0801 22.7299 18.4001C22.9099 18.6301 22.9799 18.9101 23.0699 18.9101C23.0818 18.9934 23.1204 19.0705 23.1799 19.1301C23.2125 19.1633 23.2514 19.1898 23.2943 19.2078C23.3372 19.2258 23.3833 19.2351 23.4299 19.2351C23.4764 19.2351 23.5225 19.2258 23.5655 19.2078C23.6084 19.1898 23.6473 19.1633 23.6799 19.1301C23.7379 19.0464 23.769 18.9469 23.769 18.8451C23.769 18.7432 23.7379 18.6438 23.6799 18.5601C23.3792 18.0836 23.0451 17.6291 22.6799 17.2001C21.4199 15.6701 19.3399 13.3401 18.4499 12.2701L18.1999 12.0001L22.1999 7.52008C22.5562 7.11696 22.8837 6.68924 23.1799 6.24008Z" fill="black"/>
</svg>
