<svg width="24" height="24" viewBox="0 0 24 24" fill="none" xmlns="http://www.w3.org/2000/svg">
<g clip-path="url(#clip0_342_1266)">
<path fill-rule="evenodd" clip-rule="evenodd" d="M3.84013 20.27C2.68013 20.21 2.84013 20.61 1.46013 13.99C1.28013 13.15 1.10013 12.68 0.96013 12.05C0.930266 11.9135 0.955543 11.7707 1.03046 11.6527C1.10537 11.5347 1.22386 11.4511 1.36013 11.42C2.36013 11.2 2.76013 11 4.13013 10.6C4.18322 10.6087 4.23764 10.6043 4.28863 10.5872C4.33963 10.57 4.38566 10.5407 4.42273 10.5017C4.45979 10.4627 4.48675 10.4152 4.50128 10.3634C4.5158 10.3116 4.51743 10.2571 4.50604 10.2045C4.49465 10.1519 4.47057 10.1029 4.43591 10.0617C4.40125 10.0206 4.35706 9.98855 4.30718 9.96839C4.2573 9.94824 4.20325 9.94058 4.14973 9.94609C4.09622 9.9516 4.04486 9.9701 4.00013 10C-1.35987 10.45 -0.0998695 10.55 0.84013 16.46C0.98013 17.36 1.47013 19.89 2.33013 20.76C2.97013 21.39 4.75013 20.99 5.72013 20.82C5.76448 20.8183 5.8079 20.8067 5.84725 20.7862C5.8866 20.7657 5.9209 20.7367 5.94769 20.7013C5.97447 20.6659 5.99307 20.625 6.00214 20.5815C6.01121 20.5381 6.01052 20.4932 6.00013 20.45C5.90013 20 5.37013 20.34 3.84013 20.27Z" fill="black"/>
<path fill-rule="evenodd" clip-rule="evenodd" d="M11.2903 5.27C11.4503 4.97 11.8803 3.89 11.5803 3.72C10.9603 3.23 10.2803 4.86 10.1603 5.82C10.0203 6.29 10.4403 6.49 10.8603 6.29C11.0216 5.95788 11.1651 5.61739 11.2903 5.27Z" fill="black"/>
<path fill-rule="evenodd" clip-rule="evenodd" d="M23.81 7.26C23.11 6.16 21.81 5.95 20.68 5.46C18.43 4.53 16.4 4.19 14.17 3.46C14.04 3.46 12.05 2.6 11.77 3.04C11.7289 3.10499 11.7153 3.18363 11.7322 3.25864C11.749 3.33364 11.795 3.39888 11.86 3.44C12.12 3.61 11.66 3.26 13.93 4.12C15.93 4.9 18.34 5.55 20.24 6.43C20.83 6.7 21.5 6.89 22.07 7.18C23.32 7.81 22.84 8.18 22.65 9.26C22.4177 10.5806 22.0834 11.8811 21.65 13.15C21.4464 14.2795 21.1487 15.3901 20.76 16.47H20.54C20.07 16.62 20.21 17.18 20.54 17.17C21.54 17.25 21.54 16.85 22.54 13.44C23.0636 12.1425 23.4816 10.8048 23.79 9.44C23.82 8.94 24.24 8 23.81 7.26Z" fill="black"/>
<path fill-rule="evenodd" clip-rule="evenodd" d="M20.49 9.00001C20.13 7.20001 17.72 7.34001 16.26 7.09001C14.43 6.77001 9.09999 6.53001 8.61999 6.49001C8.02075 6.3701 7.41111 6.3098 6.79999 6.31001C6.02999 6.39001 5.98999 6.36001 5.91999 6.56001C5.70999 7.18001 6.65999 6.85001 7.32999 6.92001C7.73999 6.92001 8.18999 7.06001 8.54999 7.11001C11.08 7.41001 13.65 7.42001 16.1 7.91001C17.31 8.16001 18.68 8.10001 19.41 8.84001C19.81 9.25001 19.35 14.22 19.29 14.79C18.9033 14.1818 18.3068 13.7368 17.6136 13.5395C16.9204 13.3423 16.1789 13.4065 15.53 13.72C14.5985 14.2183 13.7459 14.8519 13 15.6C12.53 13.83 11.89 12.19 10.14 11.6C9.74386 11.4941 9.32871 11.4805 8.9265 11.5602C8.52429 11.64 8.14574 11.811 7.81999 12.06C6.7317 12.9301 5.85331 14.0341 5.24999 15.29C5.35999 9.40001 6.42999 7.39001 5.78999 7.29001C5.14999 7.19001 5.28999 7.74001 5.21999 8.37001C4.8171 10.5608 4.55655 12.7755 4.43999 15C4.33999 18.54 4.24999 19 8.18999 19.6C11.3788 19.9425 14.5829 20.1228 17.79 20.14C19.79 20.14 19.79 19.4 19.87 18.23C19.87 18.21 20.83 10.67 20.49 9.00001ZM5.99999 18.16C5.62999 18.03 5.32999 18.16 5.25999 16.57C6.0214 15.1596 7.09131 13.9393 8.38999 13C8.59269 12.8503 8.82615 12.7474 9.07347 12.699C9.32079 12.6506 9.57578 12.6578 9.81999 12.72C10.3867 12.9194 10.8648 13.3125 11.17 13.83C11.9608 15.5048 12.6618 17.2206 13.27 18.97C11.59 18.89 7.58999 18.72 5.99999 18.16ZM19.13 18.07L19.05 18.86C17.3762 19.0837 15.6836 19.1306 14 19C14 18.82 13.34 16.69 13.25 16.34C14.46 15.58 15.83 14.48 17.16 14.61C17.5741 14.6808 17.9622 14.8595 18.2853 15.1281C18.6083 15.3967 18.8548 15.7458 19 16.14C19.26 16.67 19.21 16.29 19.14 18.07H19.13Z" fill="black"/>
<path fill-rule="evenodd" clip-rule="evenodd" d="M16.4302 12.25C16.6685 12.1082 16.8659 11.9069 17.0029 11.6659C17.14 11.4248 17.2121 11.1523 17.2121 10.875C17.2121 10.5977 17.14 10.3252 17.0029 10.0841C16.8659 9.84308 16.6685 9.6418 16.4302 9.5C13.3702 7.2 11.4302 11.21 13.8802 12.5C14.2963 12.6549 14.7422 12.713 15.1841 12.6696C15.626 12.6263 16.0521 12.4828 16.4302 12.25ZM14.4302 9.57C14.9902 9.35 16.1002 10.07 16.2202 10.72C16.3402 11.37 14.9102 11.72 14.3302 11.47C14.1334 11.3917 13.9665 11.2529 13.8537 11.0736C13.7408 10.8944 13.6878 10.6839 13.7022 10.4726C13.7167 10.2613 13.7979 10.06 13.9341 9.89776C14.0703 9.73554 14.2546 9.62078 14.4602 9.57H14.4302Z" fill="black"/>
</g>
<defs>
<clipPath id="clip0_342_1266">
<rect width="24" height="24" fill="white"/>
</clipPath>
</defs>
</svg>
