<svg width="24" height="24" viewBox="0 0 24 24" fill="none" xmlns="http://www.w3.org/2000/svg">
<g clip-path="url(#clip0_17_30703)">
<path fill-rule="evenodd" clip-rule="evenodd" d="M24.0001 17.35C24.0001 16.67 24.0601 15.68 23.4201 15.35C22.1301 14.64 18.9001 14.6 17.6901 15.35C17.0201 15.78 17.1401 16.79 16.9501 17.35C16.8801 17.56 8.77011 17.71 7.28011 17.27C6.36011 17 7.00011 16 6.00011 15.42C5.49011 15.12 1.26011 15.42 0.840108 15.5C-0.839892 15.93 0.430108 20.5 0.980108 22.12C0.98642 22.1649 1.0025 22.2079 1.02721 22.2459C1.05192 22.2839 1.08467 22.316 1.12314 22.34C1.16161 22.3639 1.20487 22.3792 1.24987 22.3846C1.29487 22.3901 1.34052 22.3856 1.38359 22.3715C1.42667 22.3573 1.46613 22.334 1.49919 22.303C1.53224 22.2719 1.5581 22.2341 1.57493 22.192C1.59176 22.1499 1.59915 22.1046 1.59659 22.0594C1.59403 22.0141 1.58158 21.97 1.56011 21.93C1.17011 20.71 0.450108 17.73 0.810108 16.54C0.810108 16.39 0.900108 16.27 1.02011 16.24C2.43363 16.123 3.85318 16.0963 5.27011 16.16C5.41011 16.16 5.56011 16.25 5.59011 16.21C5.99011 16.54 5.59011 17.75 6.98011 18.21C8.37011 18.67 16.5201 18.89 17.4701 18.4C18.0601 18.09 18.1301 17.4 18.2201 16.75C18.2201 16.59 18.4301 16.4 18.3401 16.32C19.0364 16.0342 19.7896 15.9144 20.5401 15.97C21.2753 16.0224 22.0066 16.1192 22.7301 16.26C23.0001 16.1 22.8101 17.26 22.8301 17.45C22.8901 18.24 22.7101 21.45 22.0801 21.99C21.4501 22.53 15.0801 22.73 14.2001 22.75C1.89011 23.05 1.53011 22.25 1.41011 22.92C1.4015 22.9648 1.40196 23.0107 1.41146 23.0553C1.42096 23.0998 1.43932 23.142 1.46544 23.1793C1.49155 23.2166 1.5249 23.2483 1.56349 23.2725C1.60208 23.2966 1.64514 23.3128 1.69011 23.32C2.45011 23.47 20.8801 24.32 22.7601 22.85C23.8401 22 24.0701 18.56 24.0001 17.35Z" fill="black"/>
<path fill-rule="evenodd" clip-rule="evenodd" d="M6.8001 10.67C7.0701 12.15 10.3601 15.74 11.9701 15.97C13.5801 16.2 16.6101 11.55 16.5301 10.59C16.4501 9.63001 15.3501 9.65001 14.4701 9.40001C14.3731 9.35574 14.2728 9.31897 14.1701 9.29001C14.1701 9.21001 14.0001 6.90001 14.0001 7.00001C13.8601 5.47001 13.0001 2.16001 12.9401 0.670012C12.9401 0.578512 12.9038 0.49076 12.8391 0.42606C12.7744 0.36136 12.6866 0.325012 12.5951 0.325012C12.5036 0.325012 12.4158 0.36136 12.3511 0.42606C12.2864 0.49076 12.2501 0.578512 12.2501 0.670012C12.2501 2.26001 13.0201 5.52001 13.1101 7.07001C13.1848 7.82101 13.2215 8.57531 13.2201 9.33001C13.2901 10.24 13.8501 10.2 14.2201 10.33C14.5901 10.46 15.2201 10.52 15.5001 10.63C15.0282 11.6787 14.4049 12.6524 13.6501 13.52C13.4101 13.81 12.4901 14.83 12.1601 14.79C10.9601 14.62 8.1601 11.37 7.9901 10.59L10.1801 10.11C10.4465 9.94648 10.6371 9.68394 10.7101 9.38001C10.8801 8.87001 11.7101 0.640012 11.7101 0.570012C11.6201 0.160012 11.2301 0.230012 11.0801 0.490012C11.0063 0.654833 10.9461 0.825399 10.9001 1.00001C10.2201 6.34001 9.9601 8.40001 9.9001 8.78001C9.9001 8.97001 9.6401 9.14001 9.7101 9.25001C8.7901 9.54001 6.5501 9.27001 6.8001 10.67Z" fill="black"/>
<path fill-rule="evenodd" clip-rule="evenodd" d="M0.600278 14.83C0.639455 14.8562 0.683782 14.8737 0.730275 14.8813C0.776769 14.8889 0.824353 14.8864 0.869826 14.8741C0.9153 14.8618 0.95761 14.8399 0.99391 14.8099C1.03021 14.7798 1.05966 14.7424 1.08028 14.7C1.24945 14.3957 1.39327 14.078 1.51028 13.75C2.68028 11.4 2.51028 11.93 2.93028 10.94C3.19827 10.1496 3.63894 9.42884 4.22028 8.83001C5.27305 8.43896 6.37231 8.18683 7.49028 8.08001C7.58178 8.08001 7.66953 8.04367 7.73423 7.97897C7.79893 7.91427 7.83528 7.82651 7.83528 7.73501C7.83528 7.64351 7.79893 7.55576 7.73423 7.49106C7.66953 7.42636 7.58178 7.39001 7.49028 7.39001C6.16491 7.36805 4.84564 7.57439 3.59028 8.00001C2.31028 8.86001 1.79028 10.59 0.820278 13.53C0.690278 13.84 0.320278 14.57 0.600278 14.83Z" fill="black"/>
<path fill-rule="evenodd" clip-rule="evenodd" d="M18.0002 7.71002C18.6077 7.7328 19.2052 7.87199 19.7602 8.12002C20.4402 8.68002 21.9802 13.33 22.2102 14.45C22.2378 14.5282 22.2923 14.594 22.3638 14.6357C22.4354 14.6775 22.5195 14.6925 22.6011 14.6781C22.6827 14.6637 22.7565 14.6208 22.8095 14.5571C22.8624 14.4933 22.891 14.4129 22.8902 14.33C22.6802 12.56 21.8902 8.27002 20.4202 7.25002C19.6782 6.90323 18.8507 6.78155 18.0402 6.90002C17.9002 6.90002 15.3402 6.90002 15.3002 7.33002C15.2602 7.76002 16.5502 7.54002 18.0002 7.71002Z" fill="black"/>
</g>
<defs>
<clipPath id="clip0_17_30703">
<rect width="24" height="24" fill="white"/>
</clipPath>
</defs>
</svg>
