<svg width="24" height="24" viewBox="0 0 24 24" fill="none" xmlns="http://www.w3.org/2000/svg">
<g clip-path="url(#clip0_17_29544)">
<path d="M1.99991 10.0899C2.32627 10.7254 2.70773 11.3311 3.13991 11.8999C3.57329 12.4734 4.06233 13.0027 4.59991 13.4799C5.78246 14.5884 7.20666 15.4067 8.75991 15.8699C8.80956 15.8901 8.86284 15.8999 8.91642 15.8985C8.97 15.8972 9.02274 15.8849 9.07133 15.8622C9.11993 15.8396 9.16335 15.8073 9.19887 15.7671C9.23439 15.727 9.26126 15.6799 9.27779 15.629C9.29433 15.578 9.30018 15.5241 9.29497 15.4708C9.28977 15.4174 9.27363 15.3657 9.24755 15.3189C9.22148 15.2721 9.18603 15.2311 9.14342 15.1986C9.10081 15.1661 9.05196 15.1427 8.99991 15.1299C7.64762 14.5531 6.43646 13.6899 5.44991 12.5999C4.99799 12.1276 4.57711 11.6266 4.18991 11.0999C3.88991 10.7199 3.79991 10.6499 3.53991 10.2999C2.83991 9.47992 1.74991 9.61992 1.99991 10.0899Z" fill="black"/>
<path d="M21.6599 2.91997C21.5827 2.85572 21.4854 2.82054 21.3849 2.82054C21.2844 2.82054 21.1871 2.85572 21.1099 2.91997C21.073 2.95458 21.0435 2.99639 21.0234 3.04283C21.0033 3.08928 20.9929 3.13935 20.9929 3.18997C20.9929 3.24058 21.0033 3.29066 21.0234 3.3371C21.0435 3.38354 21.073 3.42536 21.1099 3.45997C21.4879 3.79932 21.7342 4.26103 21.8055 4.76397C21.8768 5.26691 21.7686 5.7789 21.4999 6.20997C20.4941 7.53318 19.0396 8.44353 17.4099 8.76997C15.2757 9.22152 13.1013 9.45605 10.9199 9.46997C8.7786 9.54149 6.64343 9.20204 4.62989 8.46997C4.33699 8.33757 4.05596 8.18033 3.78989 7.99997C3.52753 7.85781 3.27968 7.69034 3.04989 7.49997C1.84989 6.49997 1.52989 5.66997 1.83989 4.88997C2.38989 3.49997 4.41989 2.46997 6.10989 1.99997C6.98145 1.71261 7.86978 1.47884 8.76989 1.29997C9.66891 1.13982 10.5776 1.0396 11.4899 0.999969C12.8994 0.934561 14.312 0.998159 15.7099 1.18997C17.1115 1.37988 18.4959 1.68082 19.8499 2.08997C19.8926 2.10376 19.9375 2.109 19.9823 2.10541C20.027 2.10182 20.0705 2.08945 20.1105 2.06902C20.1504 2.0486 20.1859 2.0205 20.215 1.98635C20.244 1.95219 20.2661 1.91265 20.2799 1.86997C20.2937 1.82729 20.2989 1.78231 20.2953 1.7376C20.2917 1.6929 20.2794 1.64933 20.2589 1.60941C20.2385 1.56948 20.2104 1.53396 20.1763 1.50489C20.1421 1.47582 20.1026 1.45376 20.0599 1.43997C18.6797 0.958082 17.2614 0.593456 15.8199 0.349969C14.3796 0.106144 12.9207 -0.0109713 11.4599 -3.13557e-05C10.4986 0.0178196 9.53975 0.101348 8.58989 0.249969C7.64236 0.39516 6.7041 0.595501 5.77989 0.849969C3.72989 1.41997 1.31989 2.73997 0.639893 4.39997C0.480211 4.80691 0.416975 5.24532 0.455145 5.6808C0.493315 6.11629 0.631852 6.53701 0.859893 6.90997C1.19683 7.42748 1.61562 7.8868 2.09989 8.26997C2.54989 8.64997 3.00989 9.05997 3.09989 9.13997C3.42115 9.32114 3.7554 9.47824 4.09989 9.60997C5.83623 10.2502 7.66939 10.5885 9.51989 10.61C12.2347 10.659 14.9443 10.3531 17.5799 9.69997C19.286 9.25251 20.823 8.31363 21.9999 6.99997C22.1168 6.85666 22.2081 6.69429 22.2699 6.51997C22.7299 5.36997 22.9999 3.85997 21.6599 2.91997Z" fill="black"/>
<path d="M21.9098 7.89993C21.6386 8.67917 21.2361 9.4063 20.7198 10.0499C20.3573 10.6181 19.9457 11.1535 19.4898 11.6499C19.0301 12.1544 18.532 12.6225 17.9998 13.0499C16.7467 14.0715 15.3209 14.8606 13.7898 15.3799C13.7299 15.3992 13.6757 15.433 13.632 15.4784C13.5884 15.5238 13.5567 15.5793 13.5398 15.6399C13.5398 15.6399 13.4698 15.5899 13.4298 15.5899C13.3736 15.584 13.3168 15.5904 13.2633 15.6087C13.2099 15.6269 13.161 15.6566 13.1201 15.6955C13.0792 15.7345 13.0472 15.782 13.0265 15.8345C13.0057 15.8871 12.9966 15.9435 12.9998 15.9999C12.9298 16.7499 12.9998 17.8599 12.9998 18.7899C12.994 19.1368 12.9121 19.4782 12.7598 19.7899C12.6422 19.9744 12.5047 20.1454 12.3498 20.2999C11.9098 20.7499 11.3498 21.1999 10.9598 21.5699L10.4498 22.1499L10.3698 21.0099C10.2798 20.0099 10.1898 19.0099 10.1498 18.0099C10.1498 17.3299 10.0898 16.6599 10.0798 16.0099C10.0826 15.9214 10.0507 15.8353 9.99093 15.7699C9.93116 15.7046 9.84825 15.6651 9.75983 15.6599C9.66866 15.6572 9.58001 15.6901 9.51277 15.7518C9.44553 15.8134 9.405 15.8989 9.39983 15.9899C9.32983 16.8399 9.27983 17.6999 9.24983 18.5499C9.21983 19.3999 9.15983 20.0999 9.14983 20.9999V22.5999C9.14983 22.8099 9.04983 23.2099 9.07983 23.3899C9.0988 23.5738 9.18412 23.7444 9.31983 23.8699C9.41588 23.9599 9.53598 24.0201 9.66556 24.0432C9.79513 24.0663 9.92863 24.0512 10.0498 23.9999C10.3259 23.8984 10.5803 23.7457 10.7998 23.5499C11.1805 23.1861 11.5379 22.7987 11.8698 22.3899C12.1998 21.9999 12.7498 21.5099 13.1698 21.0199C13.3758 20.7775 13.5537 20.5125 13.6998 20.2299C13.8971 19.7754 13.9992 19.2854 13.9998 18.7899C13.9998 17.8899 13.8398 16.8599 13.8398 16.1099C13.9056 16.1253 13.9741 16.1253 14.0398 16.1099C15.7287 15.7095 17.3267 14.9936 18.7498 13.9999C19.3733 13.5644 19.9468 13.0613 20.4598 12.4999C20.8764 12.0361 21.2481 11.5339 21.5698 10.9999C21.8499 11.1971 22.0711 11.4667 22.2098 11.7799C22.5245 12.5746 22.5597 13.4526 22.3098 14.2699C22.0409 14.9563 21.5876 15.555 20.9998 15.9999C20.4059 16.4929 19.7286 16.8756 18.9998 17.1299C18.3042 17.4461 17.5313 17.5521 16.7762 17.4348C16.0212 17.3176 15.3168 16.9822 14.7498 16.4699C14.6798 16.4063 14.589 16.3703 14.4943 16.3687C14.3997 16.3671 14.3077 16.3999 14.2355 16.4611C14.1633 16.5223 14.1158 16.6077 14.1019 16.7013C14.088 16.7949 14.1086 16.8904 14.1598 16.9699C14.7967 17.6827 15.6318 18.1891 16.5582 18.4242C17.4846 18.6594 18.4602 18.6126 19.3598 18.2899C20.2796 18.0456 21.1358 17.6056 21.8698 16.9999C22.635 16.3772 23.1929 15.5368 23.4698 14.5899C23.6766 13.4942 23.5112 12.3608 22.9998 11.3699C22.7473 10.9437 22.38 10.5972 21.9398 10.3699C22.4795 9.55674 22.7745 8.60578 22.7898 7.62993C22.7598 7.17993 22.2498 7.35993 21.9098 7.89993Z" fill="black"/>
</g>
<defs>
<clipPath id="clip0_17_29544">
<rect width="24" height="24" fill="white"/>
</clipPath>
</defs>
</svg>
