<svg width="24" height="24" viewBox="0 0 24 24" fill="none" xmlns="http://www.w3.org/2000/svg">
<path fill-rule="evenodd" clip-rule="evenodd" d="M23.1299 14.11C22.6099 13.7069 21.9755 13.479 21.3178 13.4593C20.6602 13.4395 20.0132 13.6288 19.4699 14C18.9581 14.2708 18.5111 14.6495 18.1599 15.11C18.0113 14.8958 17.8404 14.698 17.6499 14.52C17.3948 14.2115 17.0656 13.9726 16.6931 13.8257C16.3206 13.6788 15.917 13.6287 15.5199 13.68C14.7834 13.7487 14.0754 13.9996 13.4599 14.41C11.8399 15.55 12.2899 17.93 13.6399 19.59C14.8337 20.8565 16.2336 21.9114 17.7799 22.71C17.8101 22.7348 17.8453 22.7527 17.883 22.7626C17.9208 22.7724 17.9602 22.774 17.9986 22.7671C18.037 22.7603 18.0735 22.7452 18.1055 22.7229C18.1376 22.7006 18.1644 22.6716 18.1841 22.638C18.2039 22.6043 18.2161 22.5668 18.22 22.528C18.2238 22.4892 18.2192 22.4499 18.2064 22.4131C18.1937 22.3762 18.1731 22.3425 18.1461 22.3144C18.1191 22.2862 18.0863 22.2643 18.0499 22.25C16.6244 21.4117 15.336 20.3594 14.2299 19.13C13.8707 18.7011 13.6109 18.1981 13.4691 17.6569C13.3274 17.1157 13.3071 16.5499 13.4099 16C13.5817 15.6355 13.8511 15.3257 14.1883 15.105C14.5254 14.8844 14.9171 14.7615 15.3199 14.75C15.6128 14.6646 15.9248 14.6705 16.2143 14.767C16.5037 14.8635 16.7569 15.0459 16.9399 15.29C17.5499 15.88 17.4299 16.06 17.7199 16.37C17.7812 16.4393 17.8582 16.4929 17.9445 16.5264C18.0307 16.5599 18.1237 16.5723 18.2157 16.5625C18.3077 16.5527 18.3961 16.521 18.4733 16.4701C18.5506 16.4193 18.6146 16.3506 18.6599 16.27C18.7399 16.15 18.8099 15.95 18.8699 15.87C19.3125 15.2718 19.937 14.8332 20.6499 14.62C20.9518 14.4745 21.2894 14.4197 21.6218 14.4624C21.9541 14.5051 22.2669 14.6435 22.5222 14.8606C22.7774 15.0777 22.9641 15.3643 23.0596 15.6855C23.1551 16.0067 23.1552 16.3487 23.0599 16.67C22.5699 18.76 20.7599 20.49 18.9799 21.67C18.9209 21.7179 18.8814 21.7858 18.8692 21.8608C18.8569 21.9358 18.8726 22.0128 18.9133 22.077C18.9541 22.1412 19.017 22.1882 19.0901 22.209C19.1632 22.2298 19.2415 22.2231 19.3099 22.19C20.7227 21.3357 21.9529 20.2109 22.9299 18.88C23.9999 17.26 24.5399 15.36 23.1299 14.11Z" fill="black"/>
<path d="M7.21005 3.32C5.31005 3.69 4.73005 4.77 5.00005 6.07C5.52005 9 10.5901 7.81 9.45005 4.69C9.30478 4.22983 8.99802 3.83771 8.58636 3.58593C8.1747 3.33416 7.68588 3.23971 7.21005 3.32ZM5.88005 5.85C5.36005 4 8.05005 3.21 8.49005 5C8.93005 6.79 6.27005 7.21 5.88005 5.85Z" fill="black"/>
<path d="M18.3198 1.9C18.2637 1.84503 18.1883 1.81424 18.1098 1.81424C18.0313 1.81424 17.9559 1.84503 17.8998 1.9C17.7598 2.05 17.8998 2.06 17.8998 2.64C17.8998 3.22 17.3798 12.52 18.3098 12.55C18.3548 12.5527 18.3999 12.5462 18.4422 12.5309C18.4846 12.5155 18.5234 12.4916 18.5562 12.4607C18.589 12.4298 18.6151 12.3925 18.6329 12.3511C18.6507 12.3097 18.6599 12.2651 18.6598 12.22C18.7598 11.1 18.8798 9.83 18.9298 8.57C18.9998 5.69 18.6098 2.13 18.3198 1.9Z" fill="black"/>
<path d="M1.79996 15.56C1.20996 15.4 1.38996 15.42 1.35996 14.97C1.32996 14.52 0.999962 3.8 1.38996 2.57C2.38996 2.31 9.11996 2.17 10.39 2.19C16.98 2.26 17.17 2.51 17.18 1.98C17.1827 1.88882 17.1498 1.80017 17.0881 1.73293C17.0265 1.66569 16.941 1.62517 16.85 1.62C0.569962 0.929997 0.439962 1.26 0.219962 2.43C-0.160038 4.48 0.0499616 15.25 0.549962 16C1.40996 17.19 9.54996 16.87 10.99 16.81C11.0614 16.797 11.126 16.7594 11.1725 16.7036C11.219 16.6479 11.2445 16.5776 11.2445 16.505C11.2445 16.4324 11.219 16.3621 11.1725 16.3064C11.126 16.2506 11.0614 16.213 10.99 16.2C10.35 16.17 4.08996 16.18 1.79996 15.56Z" fill="black"/>
<path d="M17.4601 9.49999C16.1701 7.49999 14.2801 6.26999 12.0401 7.49999C10.0401 8.67999 9.04009 11.22 8.19009 13.33C8.19009 13.44 8.19009 13.47 7.99009 13.11C7.51453 12.346 6.81663 11.7458 5.99009 11.39C3.75009 10.55 2.68009 11.05 1.60009 12.27C1.32009 12.62 1.45009 13.45 1.75009 13.14C2.88009 11.9 3.36009 11.72 5.62009 12.47C6.57553 12.7681 7.39188 13.3999 7.92009 14.25C7.92009 14.38 7.70009 15.06 7.56009 15.53C7.49009 15.81 8.15009 16.1 8.26009 15.53C9.26009 12.53 11.7601 7.31999 14.5601 8.12999C15.3495 8.43971 16.0601 8.92137 16.6401 9.53999C16.8391 9.75834 17.0566 9.95908 17.2901 10.14C17.5601 10.38 17.6501 9.73999 17.4601 9.49999Z" fill="black"/>
</svg>
