<svg width="24" height="24" viewBox="0 0 24 24" fill="none" xmlns="http://www.w3.org/2000/svg">
<g clip-path="url(#clip0_17_29676)">
<path d="M24 14.05C23.1268 12.5918 22.1226 11.2161 21 9.93996C20.66 9.5533 20.31 9.1733 19.95 8.79996C19.95 8.41996 19.95 8.04996 20.02 7.66996C20.09 6.87996 20.19 6.08996 20.28 5.31996C20.3039 4.88003 20.2972 4.43897 20.26 3.99996C20.2613 3.62112 20.1721 3.24743 20 2.90996C19.8742 2.694 19.6809 2.52535 19.45 2.42996C19.225 2.36123 18.9939 2.31435 18.76 2.28996C18.3817 2.24506 18.0009 2.22501 17.62 2.22996C17.2338 2.23524 16.8489 2.2754 16.47 2.34996C16.2722 2.3859 16.0781 2.43945 15.89 2.50996C15.7237 2.57774 15.5738 2.67999 15.45 2.80996C15.285 3.032 15.2003 3.30351 15.21 3.57996V3.92996L13.48 1.99996C13.2647 1.76238 13.0193 1.55395 12.75 1.37996C12.5026 1.22274 12.2127 1.14589 11.92 1.15996C11.6743 1.1658 11.4393 1.26192 11.26 1.42996C11.0437 1.6469 10.8494 1.88473 10.68 2.13996L8.55996 4.53996C7.70996 5.53996 6.83995 6.53996 5.95995 7.53996C5.07995 8.53996 4.17996 9.53996 3.24995 10.45C2.48995 11.24 1.65995 11.9 0.939955 12.69C0.613615 13.0423 0.315998 13.4202 0.0499549 13.82C0.00682262 13.8869 -0.00892833 13.9678 0.00596437 14.046C0.0208571 14.1242 0.0652523 14.1936 0.129955 14.24C0.198035 14.2821 0.279779 14.2963 0.358068 14.2795C0.436358 14.2627 0.50512 14.2163 0.549955 14.15C0.898073 13.6746 1.29342 13.2357 1.72995 12.84C2.39995 12.21 3.11995 11.66 3.80995 11.01C4.80995 10.09 5.72995 9.15996 6.66995 8.19996C7.60995 7.23996 8.50995 6.26996 9.39995 5.26996C9.39995 5.26996 11.99 2.31996 11.97 2.31996C11.95 2.31996 14.87 5.22996 14.87 5.22996C16.32 6.64996 17.81 7.99996 19.23 9.43996L19.29 9.50996C19.63 9.83996 19.96 10.17 20.29 10.51C21.4365 11.7132 22.4708 13.0186 23.38 14.41C23.4036 14.448 23.4345 14.4811 23.4709 14.5072C23.5073 14.5334 23.5485 14.5521 23.5922 14.5623C23.6358 14.5725 23.681 14.574 23.7253 14.5668C23.7695 14.5595 23.8119 14.5436 23.85 14.52C23.888 14.4963 23.9211 14.4654 23.9472 14.429C23.9734 14.3926 23.9921 14.3514 24.0023 14.3077C24.0125 14.2641 24.014 14.2189 24.0068 14.1746C23.9995 14.1304 23.9836 14.088 23.96 14.05H24ZM16 4.70996V3.79996C16 3.47996 16 3.44996 16.1 3.37996L16.67 3.26996C16.9297 3.25497 17.1902 3.25497 17.45 3.26996C17.8528 3.29407 18.2536 3.34418 18.65 3.41996L19 3.49996C19.0942 3.67187 19.1457 3.86396 19.15 4.05996C19.175 4.45624 19.175 4.85369 19.15 5.24996V7.63996V7.98996C18 6.88996 17 5.80996 15.91 4.70996H16Z" fill="black"/>
<path d="M11.4399 10.5899C11.7021 10.6612 11.9761 10.6783 12.2451 10.6402C12.5141 10.6021 12.7726 10.5095 13.0046 10.3682C13.2367 10.2269 13.4376 10.0398 13.5949 9.81831C13.7523 9.59682 13.8629 9.34558 13.9199 9.07993C14.3599 7.45993 12.9999 6.07993 10.9199 6.87993C10.5029 7.05679 10.1528 7.36141 9.91993 7.74993C9.7629 8.03258 9.68726 8.3532 9.70138 8.67623C9.7155 8.99926 9.81884 9.31206 9.99993 9.57993C10.3363 10.0853 10.8502 10.4458 11.4399 10.5899ZM10.7999 8.17993C10.9447 7.87219 11.2026 7.63218 11.5199 7.50993C12.5199 7.05993 13.3999 7.75993 13.0099 8.78993C12.9737 8.92168 12.9108 9.04459 12.8252 9.15109C12.7395 9.25759 12.633 9.34541 12.5121 9.40913C12.3912 9.47285 12.2586 9.51113 12.1223 9.52158C11.9861 9.53204 11.8491 9.51446 11.7199 9.46993C11.4256 9.38239 11.171 9.19497 10.9999 8.93993C10.9005 8.8435 10.8293 8.72173 10.7941 8.58779C10.7588 8.45384 10.7608 8.31281 10.7999 8.17993Z" fill="black"/>
<path d="M20.6302 14.1399V12.1399C20.6302 12.0953 20.6214 12.0511 20.6043 12.0098C20.5872 11.9686 20.5622 11.9311 20.5306 11.8995C20.499 11.8679 20.4615 11.8429 20.4203 11.8258C20.379 11.8087 20.3348 11.7999 20.2902 11.7999C20.2455 11.7999 20.2013 11.8087 20.1601 11.8258C20.1188 11.8429 20.0813 11.8679 20.0498 11.8995C20.0182 11.9311 19.9931 11.9686 19.9761 12.0098C19.959 12.0511 19.9502 12.0953 19.9502 12.1399V14.1399C19.8802 15.7099 19.7302 17.2799 19.7002 18.8399C19.7391 19.4693 19.7391 20.1005 19.7002 20.7299C19.676 21.0703 19.5545 21.3966 19.3502 21.6699C19.2602 21.7699 19.0702 21.6699 18.8902 21.6699C18.5502 21.6699 18.2002 21.5999 18.0002 21.5899C17.3002 21.5899 13.5002 21.3199 12.9302 21.3199H11.3702H11.2902H9.99018H9.29018C8.63018 21.3199 7.96018 21.3899 7.29018 21.4699C6.80018 21.5299 6.21018 21.6699 5.65018 21.6999C5.35726 21.7252 5.06254 21.6806 4.79018 21.5699C4.64018 21.4999 4.59018 21.2999 4.54018 21.0999C4.45803 20.6375 4.41123 20.1695 4.40018 19.6999C4.31018 18.6999 4.25018 17.7699 4.21018 16.8099C4.21018 15.3499 4.15018 13.8999 4.14018 12.4399C4.14151 12.4005 4.13507 12.3612 4.12121 12.3243C4.10736 12.2874 4.08636 12.2536 4.05943 12.2248C4.0325 12.196 4.00015 12.1728 3.96425 12.1565C3.92834 12.1403 3.88958 12.1312 3.85018 12.1299C3.80995 12.1286 3.76986 12.1354 3.7323 12.1498C3.69474 12.1643 3.66047 12.1862 3.63155 12.2142C3.60262 12.2422 3.57963 12.2757 3.56393 12.3128C3.54823 12.3498 3.54015 12.3897 3.54018 12.4299C3.49018 13.8999 3.44018 15.3599 3.43018 16.8199C3.43018 17.8199 3.43018 18.8199 3.50018 19.7699C3.48605 20.3811 3.5431 20.9919 3.67018 21.5899C3.76506 21.959 4.00239 22.2755 4.33018 22.4699C4.6426 22.6246 4.98237 22.7163 5.33018 22.7399C6.02016 22.7355 6.7088 22.6787 7.39018 22.5699C8.11018 22.4999 8.84018 22.4699 9.58018 22.4499H12.9102L17.9102 22.6299C18.3659 22.6715 18.8245 22.6715 19.2802 22.6299C19.5898 22.5995 19.8778 22.4573 20.0902 22.2299C20.3412 21.9063 20.5063 21.5245 20.5702 21.1199C20.6443 20.3317 20.6443 19.5382 20.5702 18.7499C20.5302 17.2699 20.6102 15.6999 20.6302 14.1399Z" fill="black"/>
<path d="M9.75039 20.8699C9.75039 20.3499 9.61039 19.7999 9.65039 19.2499C9.71194 18.3785 9.99038 17.5363 10.4604 16.7999C10.6254 16.5442 10.8542 16.3359 11.1242 16.1956C11.3943 16.0553 11.6963 15.9879 12.0004 15.9999C12.3175 15.993 12.6322 16.0557 12.9225 16.1835C13.2127 16.3114 13.4715 16.5013 13.6804 16.7399C14.1297 17.2556 14.4059 17.8991 14.4704 18.5799C14.534 19.3382 14.5573 20.0992 14.5404 20.8599C14.5404 21.1499 15.1604 21.3099 15.2904 20.8599C15.4101 19.8468 15.4101 18.8231 15.2904 17.8099C15.1795 17.1491 14.9044 16.5268 14.4904 15.9999C14.1871 15.6329 13.8069 15.3369 13.3766 15.133C12.9464 14.9291 12.4765 14.8222 12.0004 14.8199C11.5054 14.8196 11.019 14.9486 10.5892 15.1941C10.1595 15.4397 9.80135 15.7933 9.55039 16.2199C9.06741 17.1456 8.82011 18.176 8.83039 19.2199C8.83635 19.792 8.92046 20.3606 9.08039 20.9099C9.20039 21.1999 9.72039 21.1999 9.75039 20.8699Z" fill="black"/>
</g>
<defs>
<clipPath id="clip0_17_29676">
<rect width="24" height="24" fill="white"/>
</clipPath>
</defs>
</svg>
