<svg width="24" height="24" viewBox="0 0 24 24" fill="none" xmlns="http://www.w3.org/2000/svg">
<g clip-path="url(#clip0_17_30253)">
<path d="M10.7499 22.1199C11.4745 20.9467 12.5581 20.0384 13.8399 19.5299C14.721 19.106 15.6423 18.771 16.5899 18.5299C17.6916 18.1662 18.8402 17.9641 19.9999 17.9299C20.4399 17.8599 20.3999 17.2799 19.8799 17.2399C18.7262 17.0893 17.5549 17.1435 16.4199 17.3999C15.764 17.5269 15.1212 17.7143 14.4999 17.9599C13.8697 18.2075 13.2665 18.5191 12.6999 18.8899C11.4632 19.6011 10.4884 20.6916 9.91992 21.9999C9.77992 22.5199 10.5399 22.4799 10.7499 22.1199Z" fill="black"/>
<path d="M18.45 14.26C16.4072 13.4412 14.2465 12.955 12.05 12.82V12.77C12.9784 10.8275 13.7704 8.82263 14.42 6.76998C14.9965 5.18369 14.9751 3.44168 14.36 1.86998C13.9 0.929984 14.16 0.929984 13.71 0.519984C13.2302 0.129165 12.6161 -0.0575749 12 -1.62181e-05C11.2842 0.0576774 10.5786 0.205513 9.89996 0.439984C8.58396 0.922227 7.32879 1.55652 6.15996 2.32998C4.98171 3.04677 3.86459 3.85953 2.81996 4.75998C2.75878 4.82492 2.72471 4.91077 2.72471 4.99998C2.72471 5.0892 2.75878 5.17505 2.81996 5.23998C2.88369 5.30349 2.96999 5.33915 3.05996 5.33915C3.14993 5.33915 3.23623 5.30349 3.29996 5.23998C4.34123 4.43106 5.44465 3.70548 6.59996 3.06998C7.72538 2.39098 8.92703 1.84722 10.18 1.44998C10.7902 1.26131 11.4219 1.15043 12.06 1.11998C12.3741 1.09207 12.6874 1.18109 12.94 1.36998C13 1.36998 12.94 1.49998 12.94 1.56998C12.8999 1.69714 12.8427 1.81825 12.77 1.92998C12.615 2.15761 12.441 2.3717 12.25 2.56998C11.2219 3.34807 10.0997 3.99317 8.90996 4.48998C6.41996 5.68998 3.55996 6.88998 3.42996 6.91998C3.22855 6.96416 3.02493 6.99754 2.81996 7.01998H2.46996C2.38996 7.01998 2.46996 6.78998 2.54996 6.53998C2.56666 6.50391 2.57602 6.46489 2.57751 6.42517C2.579 6.38545 2.57257 6.34583 2.55862 6.30861C2.54466 6.2714 2.52345 6.23732 2.49621 6.20838C2.46898 6.17943 2.43626 6.15618 2.39996 6.13998C2.36389 6.12329 2.32486 6.11392 2.28514 6.11243C2.24542 6.11095 2.20581 6.11737 2.16859 6.13133C2.13137 6.14528 2.0973 6.1665 2.06835 6.19373C2.0394 6.22097 2.01616 6.25369 1.99996 6.28998C1.86591 6.54611 1.7959 6.8309 1.7959 7.11998C1.7959 7.40907 1.86591 7.69385 1.99996 7.94998C2.66666 9.35657 3.74402 10.5281 5.08996 11.31C6.85625 12.3762 8.78504 13.1464 10.8 13.59C9.66882 15.5971 8.83034 17.7556 8.30996 20C7.99996 21.55 8.13996 22.89 8.81996 23.54C9.07133 23.7309 9.35816 23.8698 9.66375 23.9488C9.96934 24.0278 10.2876 24.0452 10.6 24C12.5551 23.722 14.4527 23.1311 16.22 22.25C18.0076 21.467 19.6879 20.4589 21.22 19.25C21.94 18.6 22.22 17.97 22.15 17.57C21.93 16.35 20.53 15.13 18.45 14.26ZM5.50996 10.67C4.26282 9.98213 3.24951 8.9375 2.59996 7.66998C2.90561 7.70537 3.21431 7.70537 3.51996 7.66998C5.83024 6.91337 8.09413 6.02184 10.3 4.99998C11.3038 4.5876 12.2408 4.02815 13.08 3.33998C13.3739 3.042 13.6262 2.70562 13.83 2.33998C14.1956 3.33648 14.2548 4.41957 14 5.44998C13.3674 7.83014 12.4684 10.1314 11.32 12.31C11.25 12.47 11.19 12.61 11.15 12.73C9.16892 12.3601 7.26302 11.664 5.50996 10.67ZM20.27 18.53C18.4781 19.8517 16.5216 20.9341 14.45 21.75C13.274 22.2571 12.0421 22.623 10.78 22.84C10.3827 22.945 9.9612 22.906 9.58996 22.73C9.26996 22.55 9.23996 22.06 9.21996 21.56C9.2273 20.7623 9.33823 19.969 9.54996 19.2C10.0192 17.3938 10.6901 15.6462 11.55 13.99L11.7 13.72C13.8675 13.8744 15.9954 14.3811 18 15.22C19.1738 15.6041 20.1891 16.363 20.89 17.38C21 17.47 21.08 17.87 20.27 18.53Z" fill="black"/>
</g>
<defs>
<clipPath id="clip0_17_30253">
<rect width="24" height="24" fill="white"/>
</clipPath>
</defs>
</svg>
