<svg width="17" height="18" viewBox="0 0 17 18" fill="none" xmlns="http://www.w3.org/2000/svg">
<path fill-rule="evenodd" clip-rule="evenodd" d="M12.8217 3.70782C12.4289 3.70782 12.0748 3.94441 11.9245 4.30726C11.7742 4.67011 11.8573 5.08777 12.135 5.36549C12.4127 5.64321 12.8304 5.72628 13.1933 5.57598C13.5561 5.42569 13.7927 5.07161 13.7927 4.67886C13.7927 4.14257 13.3579 3.70782 12.8217 3.70782ZM16.5437 5.66609C16.5279 4.99469 16.4022 4.33042 16.1714 3.69973C15.9657 3.1601 15.6454 2.67146 15.2327 2.26745C14.832 1.85267 14.3423 1.53445 13.8005 1.33687C13.1714 1.09909 12.5064 0.970468 11.8341 0.956542C10.9764 0.90799 10.7012 0.90799 8.5002 0.90799C6.29918 0.90799 6.02405 0.90799 5.1663 0.956542C4.49398 0.970468 3.82897 1.09909 3.19994 1.33687C2.65914 1.53645 2.16978 1.8544 1.76766 2.26745C1.35288 2.66814 1.03467 3.15792 0.837079 3.69973C0.599304 4.32876 0.470681 4.99376 0.456755 5.66609C0.408203 6.52384 0.408203 6.79897 0.408203 8.99999C0.408203 11.201 0.408203 11.4761 0.456755 12.3339C0.470681 13.0062 0.599304 13.6712 0.837079 14.3003C1.03467 14.8421 1.35288 15.3318 1.76766 15.7325C2.16978 16.1456 2.65914 16.4635 3.19994 16.6631C3.82897 16.9009 4.49398 17.0295 5.1663 17.0434C6.02405 17.092 6.29918 17.092 8.5002 17.092C10.7012 17.092 10.9764 17.092 11.8341 17.0434C12.5064 17.0295 13.1714 16.9009 13.8005 16.6631C14.3423 16.4655 14.832 16.1473 15.2327 15.7325C15.6473 15.33 15.9678 14.841 16.1714 14.3003C16.4022 13.6696 16.5279 13.0053 16.5437 12.3339C16.5437 11.4761 16.5922 11.201 16.5922 8.99999C16.5922 6.79897 16.5922 6.52384 16.5437 5.66609ZM15.0876 12.2368C15.0817 12.7504 14.9886 13.2594 14.8124 13.7419C14.6832 14.0941 14.4757 14.4123 14.2055 14.6725C13.9431 14.9399 13.6255 15.147 13.275 15.2794C12.7924 15.4556 12.2835 15.5486 11.7698 15.5545C10.9606 15.595 10.6612 15.6031 8.53304 15.6031C6.40485 15.6031 6.10544 15.6031 5.29624 15.5545C4.76289 15.5645 4.23182 15.4824 3.72639 15.3117C3.39121 15.1726 3.08822 14.966 2.83627 14.7048C2.56769 14.4449 2.36277 14.1264 2.23747 13.7743C2.03991 13.2848 1.93033 12.7643 1.91379 12.2368C1.91379 11.4276 1.86523 11.1282 1.86523 8.99999C1.86523 6.87179 1.86523 6.57239 1.91379 5.76319C1.91741 5.23806 2.01328 4.71766 2.19701 4.22571C2.33946 3.88415 2.55812 3.57969 2.83627 3.33559C3.08212 3.05736 3.38595 2.83639 3.72639 2.68823C4.21964 2.51024 4.73951 2.41721 5.26387 2.4131C6.07307 2.4131 6.37248 2.36455 8.50068 2.36455C10.6289 2.36455 10.9283 2.36455 11.7375 2.4131C12.2511 2.41899 12.7601 2.51202 13.2426 2.68823C13.6103 2.8247 13.9404 3.04658 14.2055 3.33559C14.4707 3.58416 14.6779 3.88806 14.8124 4.22571C14.9923 4.71846 15.0854 5.23865 15.0876 5.76319C15.128 6.57239 15.1361 6.87179 15.1361 8.99999C15.1361 11.1282 15.128 11.4276 15.0876 12.2368ZM8.50053 4.84879C6.20894 4.85326 4.35445 6.71379 4.35743 9.00537C4.3604 11.297 6.21972 13.1527 8.51131 13.1512C10.8029 13.1497 12.6598 11.2916 12.6598 8.99999C12.662 7.89696 12.2242 6.8386 11.4435 6.0594C10.6628 5.2802 9.60355 4.84448 8.50053 4.84879ZM8.5003 11.6946C7.01209 11.6946 5.80566 10.4882 5.80566 9C5.80566 7.5118 7.01209 6.30537 8.5003 6.30537C9.98851 6.30537 11.1949 7.5118 11.1949 9C11.1949 9.71466 10.911 10.4001 10.4057 10.9054C9.90035 11.4107 9.21496 11.6946 8.5003 11.6946Z" fill="#0C0A09"/>
</svg>
