<svg width="24" height="24" viewBox="0 0 24 24" fill="none" xmlns="http://www.w3.org/2000/svg">
<path fill-rule="evenodd" clip-rule="evenodd" d="M23.7701 14.16C23.3501 13.75 22.4601 13.93 21.9001 13.93L17.1901 14.11C17.7501 13.69 15.4001 7.79005 13.6401 3.89005L13.5201 3.47005C14.4691 3.00553 15.5136 2.76925 16.5701 2.78005C16.5701 4.00005 19.0001 9.41005 19.8501 11.3C19.8501 11.38 20.7701 13.6 20.8501 13.68C20.9167 13.7419 21.0042 13.7763 21.0951 13.7763C21.186 13.7763 21.2735 13.7419 21.3401 13.68C21.5401 13.48 20.6201 10.88 20.6501 10.96C17.6501 3.16005 17.6501 1.87005 16.9301 1.76005C15.9301 1.62005 14.1401 2.46005 13.2801 2.91005C12.4201 3.36005 13.0801 4.15005 13.4201 5.44005C13.5001 5.67005 13.4701 5.53005 13.1401 5.53005C12.6156 5.54777 12.0936 5.61135 11.5801 5.72005C11.3701 4.72005 10.9701 4.58005 10.3701 4.51005C9.62 4.45505 8.86625 4.47515 8.12012 4.57005C7.8606 4.56581 7.60167 4.59607 7.35012 4.66005C7.50012 3.37005 7.35012 2.79005 6.24012 2.38005C5.06361 1.93353 3.77127 1.8948 2.57012 2.27005C1.95012 2.49005 1.66012 2.82005 1.57012 3.80005C1.52012 4.33005 1.62012 13.94 1.97012 14.93C1.42212 15.0371 0.881123 15.1774 0.350124 15.35C-0.449876 15.63 0.420124 17.35 0.830124 18.16C1.40012 19.27 0.830125 18.66 3.17012 18.65C2.84143 19.3105 2.68329 20.0428 2.71012 20.78C2.81012 21.78 3.63012 22.56 5.39012 22.14C6.65012 21.76 6.19012 20.25 6.13012 19.36C6.13012 19.24 6.03012 18.78 5.98012 18.58C7.45012 18.51 8.83012 18.43 10.8601 18.23C11.9301 18.12 13.0301 18.23 14.1101 18.17C14.9901 18.17 16.0601 17.93 17.4601 17.77C17.4001 18.6657 17.4001 19.5644 17.4601 20.46C17.4001 21.09 17.6401 21.52 18.4601 21.78C18.8534 21.9472 19.2899 21.9839 19.7056 21.885C20.1213 21.786 20.4944 21.5565 20.7701 21.23C21.1501 20.61 20.9101 18.47 20.7701 17.76C21.3857 18.0102 22.0746 18.0102 22.6901 17.76C23.2316 17.3491 23.5905 16.7424 23.6901 16.07C23.7101 15.7 24.3201 14.71 23.7701 14.16ZM7.25012 5.38005C7.96681 5.2824 8.69343 5.2824 9.41012 5.38005C9.67321 5.40221 9.93407 5.44569 10.1901 5.51005C10.2801 5.51005 10.5101 5.51005 10.4701 5.59005C10.2101 6.00005 11.0001 14 11.0001 14C11.0551 14.0384 11.1191 14.062 11.1858 14.0684C11.2526 14.0749 11.3198 14.064 11.3812 14.0369C11.4425 14.0097 11.4958 13.9672 11.5359 13.9135C11.576 13.8597 11.6016 13.7966 11.6101 13.73C11.7601 12.86 11.7301 7.67005 11.7101 7.25005C11.6301 6.17005 11.5501 6.25005 12.9601 6.33005C13.0587 6.33943 13.1559 6.35955 13.2501 6.39005C13.3363 6.75007 13.3733 7.1201 13.3601 7.49005C13.5601 8.95005 13.3601 9.66005 13.6901 11.89L13.8601 13.31C13.9401 13.64 13.7701 14.13 14.1901 14.09C14.6801 14.23 14.7101 13.89 14.6201 9.16005C14.8101 9.70005 15.0301 10.22 15.2701 10.74C16.8401 14.23 16.6601 14.05 16.7601 14.11C13.4228 14.0253 10.0834 14.1422 6.76012 14.46C6.75012 14.33 7.20012 5.76005 7.25012 5.38005ZM2.66012 4.17005C2.85012 2.00005 6.15012 3.70005 6.24012 3.66005C6.29102 4.28062 6.26752 4.90505 6.17012 5.52005C6.11012 6.42005 6.00012 10.79 6.17012 13.17C6.17012 13.65 6.08012 14.07 6.07012 14.51C4.89788 14.5358 3.72864 14.6394 2.57012 14.82C2.43012 14.24 2.62012 6.49005 2.66012 4.17005ZM5.26012 20.56C5.26012 20.66 5.20012 21.01 5.10012 21.03C4.77161 21.1102 4.42864 21.1102 4.10012 21.03C3.10012 20.73 3.86012 18.88 3.62012 18.6C5.48012 18.6 5.23012 18.51 5.26012 18.6C5.08012 18.76 5.43012 19 5.26012 20.56ZM19.8701 20.56C19.7901 20.75 18.7601 20.75 18.4601 20.62C18.4601 20.52 18.3301 19.94 18.0101 17.69C18.6758 17.639 19.3444 17.639 20.0101 17.69C19.8988 18.6492 19.8521 19.6147 19.8701 20.58V20.56ZM22.5101 15.75C22.3201 16.53 22.2401 16.93 21.5101 16.75C19.3801 16.24 16.9301 16.75 14.8101 17.1C13.5301 17.3 12.0801 17.16 10.7401 17.32C9.40012 17.48 7.82012 17.65 6.36012 17.76C6.10012 17.76 1.48012 18.09 1.36012 17.86C1.24012 17.63 1.19012 16.17 0.780124 15.92C3.33012 15.17 6.02012 15.44 8.78012 15.25C11.8701 15.04 14.9401 15.25 17.5101 15.25C20.9401 15.25 21.0001 15.01 22.5101 15.18C22.5201 15.43 22.5201 15.7 22.5101 15.77V15.75Z" fill="black"/>
<path fill-rule="evenodd" clip-rule="evenodd" d="M4.6902 10.4501H4.2702C4.138 10.4588 4.00719 10.4823 3.8802 10.5201C3.5702 10.6001 3.3102 10.7301 2.9902 10.8101C2.91238 10.8127 2.83862 10.8454 2.7845 10.9014C2.73039 10.9574 2.70016 11.0322 2.7002 11.1101C2.69984 11.1873 2.72835 11.262 2.78014 11.3193C2.83194 11.3767 2.90329 11.4126 2.9802 11.4201C3.3433 11.5349 3.71978 11.6022 4.1002 11.6201C4.31624 11.6237 4.53171 11.5968 4.7402 11.5401C5.0502 11.4801 5.3402 11.3601 5.6502 11.3101C5.69355 11.3128 5.73701 11.3069 5.77809 11.2928C5.81917 11.2786 5.85705 11.2565 5.88957 11.2277C5.92209 11.1989 5.9486 11.164 5.96758 11.1249C5.98657 11.0859 5.99765 11.0434 6.0002 11.0001C6.00575 10.9115 5.97643 10.8242 5.91851 10.7569C5.86058 10.6897 5.77864 10.6477 5.6902 10.6401C5.3632 10.547 5.02853 10.4835 4.6902 10.4501Z" fill="black"/>
<path fill-rule="evenodd" clip-rule="evenodd" d="M9.2 10.4501H8.76C8.61785 10.4579 8.477 10.4814 8.34 10.5201C8 10.6001 7.72 10.7301 7.34 10.8101C7.26857 10.8231 7.20396 10.8607 7.15745 10.9164C7.11093 10.9722 7.08545 11.0425 7.08545 11.1151C7.08545 11.1877 7.11093 11.258 7.15745 11.3137C7.20396 11.3694 7.26857 11.4071 7.34 11.4201C7.73399 11.5344 8.14017 11.6016 8.55 11.6201C8.78253 11.6243 9.01459 11.5974 9.24 11.5401C9.57 11.4801 9.88 11.3601 10.24 11.3101C10.3214 11.2962 10.3953 11.2539 10.4486 11.1908C10.5018 11.1276 10.531 11.0477 10.531 10.9651C10.531 10.8825 10.5018 10.8025 10.4486 10.7394C10.3953 10.6763 10.3214 10.634 10.24 10.6201C9.89856 10.5351 9.55073 10.4782 9.2 10.4501Z" fill="black"/>
<path fill-rule="evenodd" clip-rule="evenodd" d="M17.4699 8.63008C17.3636 8.65781 17.2599 8.69461 17.1599 8.74008C17.0611 8.78708 16.9672 8.84404 16.8799 8.91008C16.6699 9.07008 16.5199 9.26008 16.2999 9.42008C16.2384 9.45407 16.1919 9.50996 16.1696 9.57665C16.1474 9.64335 16.1511 9.71597 16.1799 9.78008C16.2299 9.94008 16.3799 10.0401 16.4899 10.0001C16.8037 10.0098 17.1171 9.97274 17.4199 9.89008C17.5808 9.83235 17.7324 9.75151 17.8699 9.65008C18.0899 9.50008 18.2699 9.32008 18.4899 9.18008C18.5615 9.14536 18.6169 9.08449 18.6448 9.01004C18.6727 8.9356 18.671 8.85327 18.6399 8.78008C18.623 8.70043 18.5763 8.63022 18.5094 8.58377C18.4426 8.53732 18.3605 8.51812 18.2799 8.53008C18.0067 8.52815 17.7344 8.56176 17.4699 8.63008Z" fill="black"/>
</svg>
