<svg width="24" height="24" viewBox="0 0 24 24" fill="none" xmlns="http://www.w3.org/2000/svg">
<g clip-path="url(#clip0_17_29809)">
<path d="M11.9001 6.09157e-05C11.6367 -0.0126892 11.3764 0.0617018 11.1595 0.211731C10.9426 0.361761 10.7811 0.579071 10.7001 0.830061C10.5795 2.13508 10.6367 3.45044 10.8701 4.74006C11.0401 5.67006 11.3601 6.35006 11.6601 6.44006C11.7289 6.45466 11.8006 6.44463 11.8628 6.41173C11.9249 6.37883 11.9735 6.32515 12.0001 6.26006C12.1101 5.95006 11.8501 6.12006 11.7001 5.54006C11.6052 5.07593 11.555 4.60377 11.5501 4.13006C11.4912 3.12646 11.5516 2.11941 11.7301 1.13006H12.0001C12.2325 1.12819 12.4643 1.15506 12.6901 1.21006C12.9609 1.24718 13.2184 1.35019 13.4401 1.51006C13.5912 1.67633 13.6703 1.89564 13.6601 2.12006C13.637 2.61297 13.5632 3.1022 13.4401 3.58006C13.3626 4.09242 13.2557 4.59992 13.1201 5.10006C13.0492 5.38582 12.9043 5.64791 12.7001 5.86006C12.6564 5.88326 12.6182 5.91576 12.5883 5.95526C12.5584 5.99477 12.5374 6.04033 12.527 6.08877C12.5165 6.1372 12.5168 6.18733 12.5278 6.23566C12.5387 6.28398 12.5601 6.32932 12.5904 6.36851C12.6207 6.4077 12.6593 6.43979 12.7033 6.46254C12.7473 6.48528 12.7958 6.49813 12.8453 6.50018C12.8948 6.50224 12.9441 6.49344 12.9899 6.47442C13.0356 6.4554 13.0767 6.42661 13.1101 6.39006C13.3657 6.18851 13.5682 5.92763 13.7001 5.63006C13.9624 5.0344 14.1666 4.41487 14.3101 3.78006C14.4903 3.24717 14.6175 2.69786 14.6901 2.14006C14.7132 1.64672 14.5529 1.16228 14.2401 0.780061C13.5731 0.258616 12.7466 -0.0168676 11.9001 6.09157e-05Z" fill="black"/>
<path d="M8.12033 4.84011C7.87735 4.33206 7.57886 3.85247 7.23033 3.41011C6.91933 3.03986 6.48007 2.80059 6.00033 2.74011C5.15129 2.84205 4.36353 3.23417 3.77033 3.85011C3.57362 4.02526 3.44115 4.26119 3.39404 4.52033C3.34692 4.77947 3.38786 5.04693 3.51033 5.28011C4.34621 6.29311 5.31885 7.18498 6.40033 7.93011C7.17033 8.47011 7.88033 8.72011 8.15033 8.57011C8.18541 8.55401 8.21691 8.53107 8.24301 8.50264C8.2691 8.47421 8.28926 8.44086 8.3023 8.40454C8.31533 8.36821 8.32099 8.32965 8.31894 8.29112C8.31688 8.25258 8.30716 8.21484 8.29033 8.18011C8.15033 7.88011 8.09033 8.18011 7.57033 7.88011C7.1785 7.6197 6.81041 7.32522 6.47033 7.00011C5.71942 6.32946 5.04832 5.57448 4.47033 4.75011C4.51447 4.70098 4.5612 4.65425 4.61033 4.61011C4.76788 4.44065 4.9499 4.29572 5.15033 4.18011C5.36835 4.01469 5.62158 3.90176 5.89033 3.85011C6.1159 3.86329 6.32749 3.96371 6.48033 4.13011C6.81106 4.49533 7.10265 4.89417 7.35033 5.32011C7.66419 5.7327 7.94825 6.16714 8.20033 6.62011C8.35484 6.87015 8.44104 7.15634 8.45033 7.45011C8.4384 7.53763 8.46172 7.62631 8.51517 7.69664C8.56862 7.76696 8.64781 7.81318 8.73533 7.82511C8.82285 7.83705 8.91153 7.81373 8.98186 7.76028C9.05219 7.70683 9.0984 7.62763 9.11033 7.54011C9.15327 7.20198 9.11205 6.85848 8.99033 6.54011C8.75608 5.9466 8.46471 5.37726 8.12033 4.84011Z" fill="black"/>
<path d="M24 10.9101C24.0008 10.647 23.9151 10.391 23.7561 10.1814C23.597 9.97178 23.3736 9.82025 23.12 9.7501C21.8135 9.69238 20.5052 9.81009 19.23 10.1001C18.6163 10.1862 18.0402 10.4465 17.57 10.8501C17.4783 10.9556 17.4084 11.0782 17.3643 11.2109C17.3201 11.3435 17.3027 11.4836 17.3129 11.623C17.3231 11.7624 17.3608 11.8984 17.4238 12.0232C17.4868 12.148 17.5739 12.2591 17.68 12.3501C18.4678 12.9285 19.3778 13.3185 20.34 13.4901C20.8853 13.6436 21.4449 13.7407 22.01 13.7801C22.4995 13.7914 22.9749 13.6162 23.34 13.2901C23.8314 12.5983 24.065 11.7562 24 10.9101ZM22.85 11.0001C22.8636 11.2351 22.8434 11.4708 22.79 11.7001C22.7657 11.9675 22.6764 12.225 22.53 12.4501C22.3684 12.6033 22.1526 12.686 21.93 12.6801C21.4386 12.677 20.949 12.62 20.47 12.5101C19.7592 12.4596 19.0623 12.287 18.41 12.0001C18.1 11.8301 17.87 11.6001 18.09 11.2601C18.1198 11.2155 18.1371 11.1637 18.14 11.1101C18.8576 10.8959 19.6012 10.7815 20.35 10.7701C23.06 10.6101 22.84 10.9201 22.85 11.0001Z" fill="black"/>
<path d="M16.1601 7.00011C16.4054 6.59257 16.6865 6.20771 17.0001 5.85011C17.6321 5.07425 18.3538 4.37604 19.1501 3.77011C19.2049 3.80758 19.2552 3.8512 19.3001 3.90011C19.4757 4.05236 19.6304 4.22722 19.7601 4.42011C19.9346 4.63257 20.0578 4.88236 20.1201 5.15011C20.1089 5.37499 20.0166 5.58818 19.8601 5.75011C19.5119 6.09423 19.13 6.40245 18.7201 6.67011C18.3189 7.00317 17.8945 7.30727 17.4501 7.58011C17.2097 7.74359 16.9302 7.84023 16.6401 7.86011C16.5587 7.8648 16.4817 7.8986 16.4231 7.95535C16.3645 8.01209 16.3283 8.088 16.321 8.16923C16.3137 8.25045 16.3359 8.33159 16.3835 8.39784C16.431 8.46409 16.5008 8.51103 16.5801 8.53011C16.9215 8.55957 17.2649 8.50462 17.5801 8.37011C18.1736 8.09051 18.7394 7.75571 19.2701 7.37011C19.7684 7.08826 20.2345 6.75295 20.6601 6.37011C21.0177 6.0357 21.2356 5.57847 21.2701 5.09011C21.0989 4.26844 20.6506 3.53055 20.0001 3.00011C19.8153 2.80998 19.5722 2.68704 19.3095 2.65081C19.0468 2.61458 18.7795 2.66713 18.5501 2.80011C17.5839 3.68144 16.7427 4.69079 16.0501 5.80011C15.5401 6.60011 15.3201 7.32011 15.4801 7.59011C15.4989 7.62511 15.5246 7.65602 15.5554 7.68104C15.5863 7.70606 15.6219 7.7247 15.66 7.73586C15.6982 7.74703 15.7381 7.7505 15.7776 7.74608C15.8171 7.74166 15.8554 7.72944 15.8901 7.71011C16.1901 7.57011 15.8801 7.53011 16.1601 7.00011Z" fill="black"/>
<path d="M12.6503 17.5401C12.6129 17.5296 12.5737 17.5267 12.5352 17.5316C12.4966 17.5366 12.4594 17.5492 12.4258 17.5688C12.3923 17.5884 12.363 17.6145 12.3397 17.6457C12.3164 17.6768 12.2996 17.7123 12.2903 17.7501C12.2003 18.0701 12.4403 17.8801 12.6303 18.4501C12.7525 18.9081 12.8295 19.377 12.8603 19.8501C13.1303 22.8001 12.7403 22.8501 12.6603 22.8501C12.4316 22.884 12.1991 22.884 11.9703 22.8501C11.6978 22.8274 11.4343 22.7418 11.2003 22.6001C11.043 22.4428 10.9502 22.2323 10.9403 22.0101C10.9385 21.5167 10.9854 21.0243 11.0803 20.5401C11.1215 20.0221 11.1984 19.5075 11.3103 19.0001C11.358 18.7124 11.4823 18.443 11.6703 18.2201C11.7111 18.1937 11.7458 18.1589 11.772 18.1179C11.7982 18.077 11.8153 18.031 11.8222 17.9829C11.8291 17.9348 11.8256 17.8857 11.812 17.8391C11.7983 17.7925 11.7748 17.7493 11.7431 17.7125C11.7114 17.6757 11.6721 17.6462 11.628 17.6258C11.5838 17.6055 11.5359 17.5949 11.4873 17.5946C11.4387 17.5944 11.3906 17.6046 11.3463 17.6245C11.302 17.6444 11.2624 17.6736 11.2303 17.7101C10.9904 17.931 10.8055 18.2049 10.6903 18.5101C10.4646 19.1188 10.3005 19.7486 10.2003 20.3901C10.0545 20.9163 9.96069 21.4555 9.92035 22.0001C9.91009 22.4894 10.0851 22.9644 10.4103 23.3301C11.1043 23.8258 11.9499 24.0628 12.8003 24.0001C13.0648 23.9992 13.3214 23.9102 13.5296 23.7472C13.7379 23.5843 13.8859 23.3566 13.9503 23.1001C13.9869 21.791 13.849 20.4828 13.5403 19.2101C13.3203 18.2701 13.0003 17.6101 12.6503 17.5401Z" fill="black"/>
<path d="M18.5 16.2501C17.7 15.7601 16.97 15.5501 16.71 15.7101C16.6413 15.75 16.5905 15.8148 16.5681 15.8911C16.5458 15.9674 16.5536 16.0494 16.59 16.1201C16.76 16.4101 16.8 16.1201 17.33 16.3701C17.7396 16.6095 18.1277 16.8839 18.49 17.1901C19.2716 17.8176 19.9825 18.5285 20.61 19.3101C20.61 19.3101 20.51 19.4201 20.48 19.4701C20.3278 19.6457 20.1529 19.8004 19.96 19.9301C19.7522 20.108 19.5056 20.2347 19.24 20.3001C19.017 20.2981 18.8029 20.2124 18.64 20.0601C18.2891 19.71 17.971 19.3284 17.69 18.9201C17.3583 18.5224 17.0511 18.105 16.77 17.6701C16.6015 17.4306 16.4982 17.1515 16.47 16.8601C16.4741 16.8159 16.4693 16.7714 16.4558 16.7291C16.4423 16.6869 16.4204 16.6478 16.3915 16.6142C16.3626 16.5806 16.3272 16.5532 16.2874 16.5336C16.2476 16.514 16.2043 16.5026 16.16 16.5001C16.072 16.497 15.9861 16.5272 15.9194 16.5846C15.8526 16.6421 15.81 16.7226 15.8 16.8101C15.7773 17.1531 15.8391 17.4965 15.98 17.8101C16.2589 18.4007 16.5938 18.9633 16.98 19.4901C17.2633 19.9812 17.5986 20.4405 17.98 20.8601C18.3134 21.2162 18.7727 21.4279 19.26 21.4501C20.0965 21.3 20.8538 20.8612 21.4 20.2101C21.5854 20.0216 21.7027 19.7768 21.7335 19.5142C21.7643 19.2516 21.7068 18.9863 21.57 18.7601C20.6658 17.7875 19.6329 16.943 18.5 16.2501Z" fill="black"/>
<path d="M6.4802 12.46C6.4983 12.3832 6.48536 12.3022 6.44417 12.2348C6.40298 12.1674 6.33687 12.119 6.2602 12.1C5.9402 12.03 6.1402 12.26 5.5802 12.47C5.12864 12.6184 4.66275 12.719 4.1902 12.77C0.880196 13.25 1.1902 12.77 1.1902 12.71C1.16035 12.481 1.16035 12.2491 1.1902 12.02C1.1969 11.747 1.26891 11.4795 1.4002 11.24C1.56252 11.0868 1.777 11.0011 2.0002 11C2.4825 10.9554 2.96789 10.9554 3.4502 11C3.97038 11.0244 4.48827 11.0845 5.0002 11.18C5.29051 11.2205 5.56579 11.334 5.8002 11.51C5.86392 11.5736 5.95023 11.6092 6.0402 11.6092C6.13017 11.6092 6.21647 11.5736 6.2802 11.51C6.31134 11.4793 6.33607 11.4428 6.35295 11.4024C6.36982 11.3621 6.37852 11.3188 6.37852 11.275C6.37852 11.2313 6.36982 11.188 6.35295 11.1477C6.33607 11.1073 6.31134 11.0707 6.2802 11.04C6.05262 10.8056 5.77108 10.6305 5.4602 10.53C4.84134 10.3354 4.205 10.2014 3.5602 10.13C3.0092 10.0008 2.44605 9.93042 1.8802 9.92004C1.39442 9.93928 0.93228 10.1348 0.580196 10.47C0.12765 11.1943 -0.0596632 12.0531 0.0501955 12.9C0.0664188 13.1621 0.168121 13.4115 0.339714 13.6102C0.511308 13.8089 0.743322 13.9459 1.0002 14C2.31094 13.9882 3.61357 13.793 4.8702 13.42C5.7802 13.16 6.4302 12.77 6.4802 12.46Z" fill="black"/>
<path d="M7.59 15.73C6.64633 15.904 5.75815 16.3018 5 16.89C4.4257 17.2375 3.91501 17.6805 3.49 18.2C3.2782 18.5127 3.16658 18.8824 3.17 19.26C3.36659 20.0883 3.84353 20.8232 4.52 21.34C4.71586 21.5161 4.96501 21.6216 5.22777 21.6398C5.49054 21.6579 5.75182 21.5876 5.97 21.44C6.88539 20.5062 7.66623 19.4493 8.29 18.3C8.58182 17.8302 8.76305 17.3002 8.82 16.75C8.84443 16.6753 8.84443 16.5947 8.82 16.52C8.74732 16.2605 8.58194 16.0368 8.35521 15.8911C8.12848 15.7455 7.85619 15.6882 7.59 15.73ZM8.16 17.05C7.8474 17.6608 7.45753 18.2288 7 18.74C5.3 20.87 5.2 20.47 5.13 20.42C4.94566 20.2785 4.78382 20.11 4.65 19.92C4.46343 19.723 4.32933 19.4823 4.26 19.22C4.25542 19.112 4.27253 19.0041 4.31032 18.9028C4.3481 18.8014 4.4058 18.7087 4.48 18.63C4.80981 18.2619 5.17489 17.927 5.57 17.63C6.08726 17.17 6.67904 16.8014 7.32 16.54C7.66 16.43 8 16.39 8.14 16.75C8.17202 16.8467 8.1789 16.9499 8.16 17.05Z" fill="black"/>
</g>
<defs>
<clipPath id="clip0_17_29809">
<rect width="24" height="24" fill="white"/>
</clipPath>
</defs>
</svg>
