<svg width="19" height="20" viewBox="0 0 19 20" fill="none" xmlns="http://www.w3.org/2000/svg">
<path fill-rule="evenodd" clip-rule="evenodd" d="M12.306 7.94167C12.1762 4.97174 9.23869 5.39369 8.2974 5.97794C7.83999 6.29488 7.48024 6.73332 7.25873 7.24382C7.08738 7.66369 7.04372 8.12479 7.13321 8.56937C7.2227 9.01395 7.44137 9.42224 7.76184 9.74311C8.03952 10.0659 8.38301 10.3256 8.76929 10.5047C9.15556 10.6839 9.57569 10.7783 10.0015 10.7818C10.6709 10.6816 11.2786 10.3346 11.705 9.80906C12.1315 9.28347 12.3459 8.61734 12.306 7.94167ZM9.87163 8.75313C9.73894 8.73921 9.61035 8.69904 9.49333 8.63496C9.37631 8.57088 9.2732 8.48416 9.19001 8.37986C9.03629 8.26996 8.91787 8.11771 8.84919 7.94167C8.84919 7.94167 8.75182 7.8443 8.76805 7.79561C8.80652 7.49154 8.9303 7.20457 9.12509 6.96792C9.24181 6.8389 9.39429 6.74753 9.56312 6.70547C9.73195 6.6634 9.90947 6.67254 10.0731 6.73172C10.2367 6.7909 10.379 6.89744 10.4819 7.03777C10.5847 7.1781 10.6435 7.34587 10.6506 7.51971C10.7318 8.08774 10.4559 8.76936 9.87163 8.75313Z" fill="#0C0A09"/>
<path fill-rule="evenodd" clip-rule="evenodd" d="M4.40192 11.6095C4.66532 12.3394 4.97986 13.0498 5.34322 13.7355C5.76548 14.5069 6.2542 15.24 6.80384 15.9264C7.61838 16.9031 8.48521 17.8349 9.40051 18.7178C9.44771 18.775 9.50627 18.8218 9.57248 18.8551C9.63868 18.8885 9.7111 18.9077 9.78513 18.9117C9.85917 18.9156 9.93321 18.9041 10.0026 18.8779C10.0719 18.8518 10.1351 18.8115 10.1881 18.7596C10.2411 18.7078 10.2827 18.6455 10.3104 18.5767C10.338 18.5079 10.3511 18.4341 10.3488 18.36C10.3465 18.2859 10.3288 18.2131 10.2968 18.1462C10.2649 18.0793 10.2194 18.0197 10.1633 17.9713C9.32349 17.082 8.54283 16.1387 7.82628 15.1474C7.36537 14.5092 6.97366 13.8237 6.65778 13.1026C6.36149 12.4837 6.11194 11.8436 5.91124 11.1875C5.72246 10.5167 5.58146 9.83337 5.48928 9.14263C5.45578 8.67258 5.45578 8.20075 5.48928 7.7307C5.49211 7.31612 5.5634 6.90485 5.70026 6.51351C6.01287 5.50238 6.68733 4.64202 7.5946 4.09706C8.50186 3.5521 9.57822 3.36081 10.6177 3.5598C11.6582 3.69404 12.6068 4.22456 13.2659 5.04084C13.925 5.85713 14.2437 6.89623 14.1557 7.94168C14.083 9.60647 13.7489 11.2495 13.1657 12.8104C12.5725 14.3612 11.6538 15.7668 10.4716 16.9326C10.3554 17.0424 10.2876 17.1938 10.283 17.3536C10.2784 17.5134 10.3375 17.6684 10.4473 17.7847C10.557 17.9009 10.7085 17.9687 10.8683 17.9733C11.0281 17.9779 11.1831 17.9188 11.2993 17.809C12.6848 16.5805 13.7915 15.0699 14.5452 13.3784C15.2651 11.7055 15.7249 9.93223 15.9084 8.1202C16.1327 6.59586 15.7475 5.04453 14.8362 3.80216C13.925 2.55979 12.561 1.7264 11.0397 1.48247C9.53329 1.16835 7.96391 1.42871 6.63969 2.21244C5.31546 2.99616 4.33206 4.24662 3.88259 5.71828C3.72552 6.20616 3.64344 6.71507 3.63915 7.22759C3.59274 7.93176 3.61993 8.63886 3.7203 9.33738C3.88231 10.1128 4.11035 10.8729 4.40192 11.6095Z" fill="#0C0A09"/>
</svg>
