<svg width="21" height="21" viewBox="0 0 21 21" fill="none" xmlns="http://www.w3.org/2000/svg">
<path fill-rule="evenodd" clip-rule="evenodd" d="M13.108 14.6658C13.0692 14.6657 13.0308 14.6738 12.9953 14.6894C12.9598 14.7051 12.9278 14.7281 12.9015 14.757C12.8751 14.7858 12.855 14.8199 12.8423 14.8571C12.8295 14.8943 12.8246 14.9337 12.8276 14.9729C12.8759 15.7397 12.8561 16.5093 12.7686 17.2725C12.6908 17.7372 12.4863 18.1706 12.1784 18.5234C11.9471 18.7007 11.6757 18.8166 11.3891 18.8605C10.0438 19.1647 8.66239 19.2707 7.28738 19.1751C5.42096 19.0702 3.52503 18.6657 2.6619 17.677C2.4244 17.2126 2.28851 16.7016 2.26354 16.1789C1.97971 13.7906 1.92043 11.3803 2.08648 8.98061C2.14752 7.59131 2.34272 6.21145 2.66928 4.86088C2.763 4.35909 2.99004 3.89286 3.32585 3.51261C3.98241 2.98079 5.53899 2.84596 7.20623 2.86843C9.10835 2.85493 11.0053 3.07117 12.8571 3.51261C13.0416 3.58002 13.1891 3.74481 13.2555 3.69238C13.3787 4.05353 13.4386 4.43379 13.4325 4.81594C13.4325 5.52004 13.3883 6.31402 13.3883 6.77094C13.3863 6.80562 13.3913 6.84035 13.403 6.873C13.4147 6.90565 13.4328 6.93553 13.4563 6.96078C13.4798 6.98604 13.5082 7.00615 13.5396 7.01988C13.571 7.0336 13.6049 7.04065 13.6391 7.04059C13.673 7.04159 13.7068 7.03579 13.7385 7.02353C13.7702 7.01127 13.7992 6.99279 13.8239 6.96913C13.8485 6.94548 13.8684 6.91713 13.8822 6.88569C13.8961 6.85425 13.9037 6.82035 13.9047 6.78592C13.9047 6.20916 14.0301 5.28783 13.9932 4.46389C13.9846 4.09684 13.9122 3.73422 13.7793 3.39276C13.5964 3.15143 13.3349 2.98413 13.0416 2.92086C11.1477 2.37818 9.19533 2.07379 7.22836 2.01452C5.30292 1.93962 3.53978 2.14935 2.75781 2.76356C2.25464 3.25712 1.9057 3.89016 1.75451 4.58374C1.38186 5.99619 1.15928 7.44511 1.09057 8.90571C0.916687 11.379 0.993319 13.8638 1.31926 16.3212C1.37951 17.0241 1.60464 17.7022 1.97583 18.2987C2.99387 19.4073 5.13325 19.9091 7.25049 19.9915C9.75872 20.0739 12.2153 19.5421 12.6875 18.9803C13.0745 18.5342 13.3302 17.9865 13.4252 17.3998C13.4992 16.5901 13.4992 15.7752 13.4252 14.9655C13.4253 14.9241 13.417 14.8833 13.4008 14.8454C13.3846 14.8075 13.3609 14.7734 13.3311 14.7452C13.3013 14.7171 13.2661 14.6955 13.2277 14.6819C13.1893 14.6682 13.1485 14.6627 13.108 14.6658Z" fill="#EF4444"/>
<path fill-rule="evenodd" clip-rule="evenodd" d="M18 10.4628C17.9984 10.4273 17.9856 10.3925 17.9624 10.3602C17.9391 10.328 17.906 10.299 17.8649 10.2751C17.8238 10.2512 17.7756 10.2328 17.7231 10.2211C17.6706 10.2093 17.6149 10.2044 17.5594 10.2066L13.7755 10H10.8338C9.18806 10.0661 7.39976 10.2149 6.5056 10.2231C6.44262 10.2209 6.37956 10.2266 6.32005 10.24C6.26053 10.2533 6.20573 10.274 6.15878 10.3009C6.11183 10.3277 6.07366 10.3603 6.04645 10.3966C6.01924 10.4329 6.00353 10.4722 6.00021 10.5124C5.9965 10.593 6.04151 10.6714 6.12594 10.7314C6.21037 10.7914 6.32775 10.8284 6.45377 10.8347C7.92077 10.9422 9.39605 10.9974 10.8727 11C12.0519 11 13.1405 10.9421 13.7755 10.9421L17.5853 10.719C17.6912 10.7153 17.7915 10.6873 17.8676 10.6403C17.9438 10.5932 17.9908 10.5302 18 10.4628Z" fill="#EF4444"/>
<path fill-rule="evenodd" clip-rule="evenodd" d="M20.6202 10.7336C20.3932 10.3155 20.0795 9.95069 19.7002 9.66361C18.7002 8.74361 16.8002 7.38361 16.3902 7.05361C16.3247 7.01089 16.2461 6.99281 16.1686 7.00259C16.091 7.01237 16.0194 7.04938 15.9666 7.10701C15.9138 7.16465 15.8831 7.23917 15.8801 7.3173C15.8771 7.39542 15.9019 7.47208 15.9502 7.53361C16.3602 7.95361 18.3102 9.91361 19.1502 10.8336C18.1502 11.7336 15.6802 13.7536 15.2502 14.0336C15.1776 14.0872 15.1272 14.1655 15.1083 14.2537C15.0894 14.3419 15.1034 14.4339 15.1476 14.5125C15.1918 14.5912 15.2632 14.6509 15.3484 14.6806C15.4336 14.7102 15.5267 14.7078 15.6102 14.6736C16.0302 14.4636 18.2602 13.0536 19.5202 12.1236C19.8236 11.9008 20.111 11.6569 20.3802 11.3936C20.474 11.3139 20.5454 11.2111 20.5875 11.0954C20.6296 10.9797 20.6408 10.855 20.6202 10.7336Z" fill="#EF4444"/>
</svg>
