<svg width="24" height="24" viewBox="0 0 24 24" fill="none" xmlns="http://www.w3.org/2000/svg">
<g clip-path="url(#clip0_17_29863)">
<path fill-rule="evenodd" clip-rule="evenodd" d="M23.6798 10.48C23.4781 10.0873 23.1957 9.74178 22.851 9.46603C22.5063 9.19028 22.1072 8.99055 21.6798 8.87996C21.2433 8.75573 20.7834 8.73719 20.3383 8.82587C19.8931 8.91455 19.4755 9.10791 19.1198 9.38996C18.572 9.83446 18.1716 10.4346 17.9717 11.1112C17.7718 11.7878 17.7816 12.5091 17.9998 13.18C18.4098 14.25 19.4798 15.11 21.3898 14.92C21.4813 14.9003 21.5627 14.8484 21.6191 14.7738C21.6755 14.6992 21.7032 14.6067 21.6971 14.5134C21.6911 14.42 21.6516 14.332 21.5861 14.2652C21.5205 14.1985 21.4331 14.1576 21.3398 14.15C19.9898 14.15 19.2398 13.61 19.0098 12.84C18.9081 12.3808 18.9483 11.9017 19.1251 11.4659C19.3019 11.0302 19.607 10.6584 19.9998 10.4C20.2046 10.2426 20.442 10.1331 20.6947 10.0794C20.9473 10.0258 21.2088 10.0294 21.4598 10.09C21.7315 10.1442 21.9898 10.2516 22.2198 10.4061C22.4497 10.5605 22.6469 10.759 22.7998 10.99C23.068 11.412 23.1844 11.9129 23.1298 12.41C23.0908 12.9194 22.903 13.4062 22.5898 13.81C22.5557 13.8375 22.5273 13.8716 22.5063 13.9101C22.4853 13.9487 22.4721 13.991 22.4675 14.0346C22.4629 14.0783 22.4669 14.1224 22.4793 14.1645C22.4917 14.2066 22.5123 14.2458 22.5398 14.28C22.5674 14.3141 22.6015 14.3425 22.64 14.3635C22.6785 14.3845 22.7208 14.3977 22.7645 14.4023C22.8081 14.4069 22.8523 14.4029 22.8944 14.3905C22.9365 14.3781 22.9757 14.3575 23.0098 14.33C23.5189 13.85 23.868 13.2251 24.0098 12.54C24.1338 11.8357 24.0176 11.1102 23.6798 10.48Z" fill="black"/>
<path fill-rule="evenodd" clip-rule="evenodd" d="M12.3801 8.99996C11.9436 8.87573 11.4837 8.85718 11.0386 8.94587C10.5934 9.03455 10.1758 9.22791 9.82014 9.50996C9.31897 9.93489 8.95607 10.4998 8.77791 11.1322C8.59976 11.7647 8.61446 12.4359 8.82014 13.06C9.02299 13.6763 9.43216 14.2038 9.97865 14.5535C10.5251 14.9033 11.1755 15.0539 11.8201 14.98C11.9116 14.9652 11.9948 14.9183 12.0549 14.8478C12.1149 14.7772 12.1479 14.6876 12.1479 14.595C12.1479 14.5023 12.1149 14.4127 12.0549 14.3422C11.9948 14.2716 11.9116 14.2247 11.8201 14.21C11.3587 14.2403 10.9017 14.1048 10.5313 13.828C10.1609 13.5511 9.90163 13.1511 9.80014 12.7C9.69602 12.2899 9.71758 11.858 9.86202 11.4603C10.0065 11.0627 10.2671 10.7176 10.6101 10.47C10.8173 10.3135 11.0568 10.2053 11.3111 10.1534C11.5655 10.1015 11.8283 10.1071 12.0801 10.17C12.3502 10.2212 12.6068 10.3276 12.8339 10.4824C13.061 10.6373 13.2538 10.8373 13.4001 11.07C13.6765 11.485 13.797 11.9845 13.7401 12.48C13.7034 12.99 13.5154 13.4774 13.2001 13.88C13.1312 13.9357 13.0872 14.0165 13.0778 14.1046C13.0684 14.1927 13.0944 14.281 13.1501 14.35C13.2058 14.4189 13.2866 14.4629 13.3748 14.4723C13.4629 14.4817 13.5512 14.4557 13.6201 14.4C14.13 13.9247 14.4795 13.3027 14.6201 12.62C14.7695 11.9214 14.6815 11.1929 14.3701 10.55C14.1661 10.1662 13.8834 9.82974 13.5405 9.56266C13.1976 9.29557 12.8022 9.10383 12.3801 8.99996Z" fill="black"/>
<path fill-rule="evenodd" clip-rule="evenodd" d="M3.71002 8.99993C3.27424 8.87433 2.81482 8.85416 2.3697 8.9411C1.92459 9.02804 1.50652 9.21958 1.15002 9.49993C0.578573 9.97423 0.188017 10.631 0.0441252 11.3595C-0.099767 12.0881 0.0117949 12.844 0.360024 13.4999C0.645338 14.1521 1.1613 14.676 1.80901 14.9713C2.45672 15.2665 3.19062 15.3123 3.87002 15.0999C3.96581 15.0698 4.04675 15.0047 4.09677 14.9176C4.14679 14.8306 4.16223 14.7279 4.14002 14.6299C4.12842 14.5815 4.10716 14.5359 4.07752 14.4959C4.04787 14.4559 4.01045 14.4222 3.96749 14.397C3.92454 14.3718 3.87694 14.3555 3.82754 14.3492C3.77815 14.3428 3.72797 14.3464 3.68002 14.3599C3.19052 14.4677 2.67839 14.3877 2.24503 14.1359C1.81168 13.884 1.4887 13.4786 1.34002 12.9999C1.14537 12.5763 1.0987 12.0995 1.20751 11.6461C1.31632 11.1928 1.57429 10.7891 1.94002 10.4999C2.14584 10.3406 2.38459 10.2293 2.63888 10.1739C2.89318 10.1186 3.15662 10.1206 3.41002 10.1799C3.6833 10.2334 3.94329 10.3405 4.17499 10.495C4.40669 10.6495 4.60552 10.8483 4.76002 11.0799C4.99161 11.4333 5.1134 11.8474 5.11002 12.2699C5.10576 12.7191 4.99616 13.1609 4.79002 13.5599C4.75258 13.6363 4.74512 13.7239 4.76912 13.8055C4.79311 13.8871 4.84682 13.9568 4.91964 14.0007C4.99246 14.0447 5.07911 14.0597 5.16249 14.0429C5.24586 14.0261 5.31991 13.9787 5.37002 13.9099C5.67928 13.4343 5.87437 12.8935 5.94002 12.3299C6.01479 11.7363 5.91032 11.1338 5.64002 10.5999C5.44901 10.2125 5.17836 9.86966 4.84579 9.59395C4.51321 9.31824 4.12619 9.11582 3.71002 8.99993Z" fill="black"/>
</g>
<defs>
<clipPath id="clip0_17_29863">
<rect width="24" height="24" fill="white"/>
</clipPath>
</defs>
</svg>
