<svg width="24" height="24" viewBox="0 0 24 24" fill="none" xmlns="http://www.w3.org/2000/svg">
<g clip-path="url(#clip0_17_29856)">
<path d="M22.6902 1.47998H20.8802C16.8902 1.61998 6.76021 1.99998 6.53021 1.99998C6.47583 1.98996 6.41992 1.99192 6.36638 2.00574C6.31284 2.01956 6.26295 2.04489 6.22021 2.07998C5.77873 2.73259 5.56758 3.51383 5.62021 4.29998C5.61512 4.89775 5.69252 5.49336 5.85021 6.06998C5.90863 6.28447 6.03065 6.47622 6.20021 6.61998C6.33813 6.69269 6.4866 6.74331 6.64021 6.76998C6.91656 6.84099 7.19712 6.89443 7.48021 6.92998L9.79021 7.03998C11.4002 7.03998 14.6902 7.12998 17.5402 7.11998C20.3902 7.10998 22.8402 7.04998 22.8602 7.03998C23.1636 6.92798 23.4112 6.70191 23.5502 6.40998C23.8681 5.71415 24.022 4.95466 24.0002 4.18998C24.0002 2.99998 23.5302 1.77998 22.6902 1.47998ZM22.6302 5.58998C22.5889 5.70543 22.5353 5.81607 22.4702 5.91998L9.80021 6.16998H7.51021L6.63021 5.99998C6.59188 5.92559 6.55847 5.84876 6.53021 5.76998C6.3539 5.16312 6.27956 4.53119 6.31021 3.89998C6.2934 3.47042 6.38633 3.04366 6.58021 2.65998C7.67021 2.65998 13.4102 2.65998 17.7002 2.60998H22.0202H22.3002H22.4302C22.6978 2.92417 22.837 3.32766 22.8202 3.73998C22.8799 4.36314 22.8153 4.99196 22.6302 5.58998Z" fill="black"/>
<path d="M22.3101 2.55994C22.3457 2.58771 22.3865 2.60811 22.4301 2.61994C22.3966 2.58894 22.3549 2.56812 22.3101 2.55994Z" fill="black"/>
<path d="M20.3202 9.39001H18.6702L5.67024 9.82001C5.57742 9.82001 5.48839 9.85689 5.42276 9.92253C5.35712 9.98817 5.32024 10.0772 5.32024 10.17C5.32285 10.2637 5.36192 10.3528 5.42916 10.4181C5.49639 10.4835 5.58647 10.5201 5.68024 10.52L19.8802 10.43C20.2602 10.58 20.3402 11.1 20.4002 11.65C20.4572 12.2659 20.3961 12.887 20.2202 13.48C20.178 13.6 20.1209 13.7142 20.0502 13.82L7.39024 14.06H5.09024L4.24024 13.92C4.24024 13.87 4.14024 13.78 4.11024 13.69C3.93895 13.0821 3.8647 12.451 3.89024 11.82C3.85954 11.3305 3.99329 10.8448 4.27024 10.44C4.29897 10.4121 4.3218 10.3786 4.33739 10.3417C4.35298 10.3048 4.36102 10.2651 4.36102 10.225C4.36102 10.1849 4.35298 10.1453 4.33739 10.1083C4.3218 10.0714 4.29897 10.038 4.27024 10.01C4.24143 9.98099 4.20715 9.95795 4.1694 9.94223C4.13164 9.92651 4.09114 9.91842 4.05024 9.91842C4.00934 9.91842 3.96885 9.92651 3.93109 9.94223C3.89333 9.95795 3.85906 9.98099 3.83024 10.01C3.36934 10.6509 3.14653 11.4325 3.20024 12.22C3.20903 12.8236 3.3033 13.4229 3.48024 14C3.5362 14.2184 3.65848 14.414 3.83024 14.56C3.96888 14.631 4.11709 14.6816 4.27024 14.71C4.54678 14.7801 4.82729 14.8336 5.11024 14.87L7.43024 15C8.80024 15 11.4302 15.08 13.8802 15.09C17.2502 15.09 20.4602 15 20.5002 14.99C20.6488 14.9365 20.7853 14.8542 20.902 14.7478C21.0187 14.6414 21.1133 14.513 21.1802 14.37C21.5011 13.6681 21.6551 12.9014 21.6302 12.13C21.6102 10.85 21.1502 9.69001 20.3202 9.39001Z" fill="black"/>
<path d="M17.0702 16.88H15.2602C11.2602 17.01 1.14019 17.4 0.910194 17.36C0.85511 17.3481 0.797943 17.3502 0.743832 17.3659C0.68972 17.3816 0.640362 17.4105 0.600194 17.45C0.141661 18.1098 -0.0706861 18.9096 0.000193493 19.71C-0.00489613 20.3078 0.0725001 20.9034 0.230193 21.48C0.295979 21.6826 0.41723 21.8628 0.580193 22C0.720963 22.0635 0.868614 22.1105 1.02019 22.14C1.29521 22.2168 1.5762 22.2703 1.86019 22.3L4.17019 22.41C5.78019 22.41 9.06019 22.5 11.9202 22.49C14.7802 22.48 17.2102 22.42 17.2402 22.41C17.5414 22.2945 17.7878 22.0694 17.9302 21.78C18.2496 21.0811 18.4035 20.318 18.3802 19.55C18.3602 18.35 17.9002 17.18 17.0702 16.88ZM17.0002 21C16.9589 21.1155 16.9053 21.2261 16.8402 21.33L4.17019 21.58H1.88019L1.00019 21.41C0.955941 21.3337 0.919106 21.2533 0.890193 21.17C0.72712 20.5607 0.656333 19.9303 0.680193 19.3C0.683473 18.8667 0.793373 18.4408 1.00019 18.06H12.1102H16.4402H16.7202H16.8502C17.1135 18.3766 17.2522 18.7784 17.2402 19.19C17.2736 19.803 17.1922 20.4169 17.0002 21Z" fill="black"/>
<path d="M16.6904 18C16.7247 18.0298 16.766 18.0504 16.8104 18.06C16.7755 18.0312 16.7344 18.0107 16.6904 18Z" fill="black"/>
</g>
<defs>
<clipPath id="clip0_17_29856">
<rect width="24" height="24" fill="white"/>
</clipPath>
</defs>
</svg>
