<svg width="24" height="24" viewBox="0 0 24 24" fill="none" xmlns="http://www.w3.org/2000/svg">
<g clip-path="url(#clip0_292_1259)">
<path d="M23.9998 2.49001C24.0023 2.00627 23.824 1.53906 23.4998 1.18001C23.2 1.00683 22.8682 0.896279 22.5244 0.855027C22.1807 0.813776 21.8321 0.842685 21.4998 0.940006C20.2796 1.20916 19.0746 1.54296 17.8898 1.94001C17.2798 2.12001 16.6798 2.33001 16.0898 2.56001C15.2098 2.89001 14.3498 3.27001 13.4798 3.65001C11.8789 4.34912 10.3167 5.13357 8.79984 6.00001C7.2779 6.85669 5.84428 7.86157 4.51984 9.00001L1.08984 12.07L0.299837 12.86C0.202378 12.9622 0.118366 13.0765 0.049837 13.2C0.0185439 13.2873 0.0185439 13.3827 0.049837 13.47C0.070327 13.5798 0.117539 13.6828 0.187302 13.77C0.257066 13.8572 0.347232 13.9259 0.449837 13.97C0.836197 14.1019 1.24159 14.1695 1.64984 14.17C2.08984 14.17 2.86984 14.17 3.53984 14.27C3.87869 14.2598 4.21681 14.3072 4.53984 14.41L4.72984 16.64C4.78984 17.28 4.81984 17.78 4.81984 18.25C4.81984 19 4.71984 20.3 4.71984 21.32C4.71984 21.4102 4.75566 21.4967 4.81942 21.5604C4.88318 21.6242 4.96966 21.66 5.05984 21.66C5.15001 21.66 5.23649 21.6242 5.30025 21.5604C5.36402 21.4967 5.39984 21.4102 5.39984 21.32C5.39984 20.32 5.52984 19 5.53984 18.25C5.53984 17.76 5.53984 17.25 5.46984 16.58C5.39984 15.91 5.39984 15.07 5.31984 14.58C5.23984 14.09 5.22984 13.82 3.97984 13.58C3.23984 13.49 2.21984 13.44 1.66984 13.41L1.11984 13.33L1.69984 12.76L5.14984 9.76001C6.42688 8.65122 7.81411 7.67613 9.28984 6.85001C10.7816 6.04538 12.3136 5.31776 13.8798 4.67001C14.7298 4.31001 15.5898 3.96001 16.4498 3.67001C18.2796 2.99245 20.1674 2.48367 22.0898 2.15001C22.9898 2.54001 22.8598 2.88001 22.8398 3.15001C22.8025 3.65479 22.712 4.15423 22.5698 4.64001L21.2798 9.00001C21.0198 9.87001 20.7398 10.68 20.4498 11.47C19.7398 13.38 18.9598 15.17 18.2398 17.24C18.0712 17.7098 17.8707 18.1675 17.6398 18.61C17.2698 19.31 16.8498 19.98 16.4598 20.61C16.3499 20.8138 16.2227 21.0078 16.0798 21.19L15.9798 21.31L15.9198 21.22L14.9198 19.65C14.4267 18.9735 13.8994 18.3227 13.3398 17.7C12.7787 17.072 12.181 16.4776 11.5498 15.92C11.1198 15.56 9.90984 14.56 9.54984 15.28C9.44984 15.41 9.33984 15.66 9.27984 15.73L8.10984 17.43L6.92984 19.52C6.50984 20.25 6.00984 20.94 5.55984 21.67C5.36984 21.99 5.17984 22.32 5.01984 22.67C4.98545 22.7416 4.98088 22.824 5.00712 22.899C5.03337 22.9739 5.08829 23.0355 5.15984 23.07C5.15984 23.07 5.43984 23.3 5.84984 22.99C6.25984 22.68 6.37984 22.6 6.60984 22.42C6.83984 22.24 7.36984 21.87 7.73984 21.61C8.10984 21.35 8.40984 21.16 8.73984 20.93L10.2598 19.87C11.0598 19.3 11.8298 18.71 12.5798 18.08L12.7498 18.27C13.2898 18.9 13.7998 19.56 14.2398 20.18L15.1398 21.72C15.2314 21.8905 15.335 22.0542 15.4498 22.21C15.5071 22.2706 15.5773 22.3174 15.6553 22.3468C15.7332 22.3763 15.8169 22.3876 15.8998 22.38C16.1368 22.341 16.3583 22.2372 16.5398 22.08C16.8241 21.8044 17.0697 21.4916 17.2698 21.15C17.6798 20.52 18.1298 19.83 18.5198 19.15C18.7885 18.6721 19.0192 18.174 19.2098 17.66C19.9498 15.6 20.7698 13.83 21.4898 11.94C21.8098 11.12 22.0998 10.29 22.3698 9.40001L23.6698 5.00001C23.9124 4.18616 24.0238 3.33889 23.9998 2.49001ZM9.11984 19.27C8.77459 19.493 8.44083 19.7333 8.11984 19.99C7.77984 20.26 7.45984 20.54 7.11984 20.84L6.36984 21.61C6.75984 21.02 7.16984 20.45 7.52984 19.85L8.76984 17.85L9.91984 16.2C9.96984 16.14 10.1198 15.89 10.1798 15.79C10.2398 15.69 10.3798 15.92 10.4898 16C10.5998 16.08 10.9398 16.41 11.0698 16.52C11.4098 16.83 11.7498 17.18 12.0698 17.52C11.1198 18.15 10.0898 18.66 9.11984 19.27Z" fill="#10B981"/>
<path d="M13.6997 9.67001C13.1697 10.25 12.6997 10.86 12.1797 11.49C11.6597 12.12 11.0597 12.93 10.5497 13.69C10.4397 13.85 10.3397 14.02 10.2397 14.18C9.97968 14.97 10.3497 14.85 11.0397 14.26L11.1297 14.12C11.6897 13.41 12.3197 12.74 12.9097 12.12C13.8597 11.03 14.9097 10.03 15.9097 9.04001L18.1297 6.95001C19.2197 5.95001 20.3097 4.89001 21.3797 3.84001C22.9997 1.00001 18.5897 5.00001 16.2097 7.17001C15.3397 8.00001 14.4997 8.79001 13.6997 9.67001Z" fill="#10B981"/>
<path d="M13.2997 6.61002C11.9097 7.55002 10.5697 8.55002 9.22965 9.61002L6.06965 12.18C5.86965 12.36 5.63965 12.55 5.40965 12.74C4.92965 13.34 4.99965 13.56 6.08965 13.08C6.24965 12.97 6.40965 12.86 6.53965 12.75L9.83965 10.39L18.0597 4.72002C18.8697 4.17002 19.6497 3.62002 20.4597 3.09002C20.6497 2.42002 19.2297 2.89002 18.0597 3.58002L17.5297 3.90002C16.1097 4.79002 14.6797 5.66002 13.2997 6.61002Z" fill="#10B981"/>
</g>
<defs>
<clipPath id="clip0_292_1259">
<rect width="24" height="24" fill="white"/>
</clipPath>
</defs>
</svg>
