<svg width="24" height="24" viewBox="0 0 24 24" fill="none" xmlns="http://www.w3.org/2000/svg">
<g clip-path="url(#clip0_342_1273)">
<path fill-rule="evenodd" clip-rule="evenodd" d="M12.05 13.86C12.65 15.7 14.95 16.15 16.57 14.86C19.36 12.74 16.03 9.68 15.57 10.53C15.5475 10.5691 15.5334 10.6123 15.5283 10.6571C15.5232 10.7018 15.5274 10.7472 15.5405 10.7903C15.5536 10.8334 15.5754 10.8733 15.6046 10.9077C15.6337 10.942 15.6696 10.97 15.71 10.99C16.0111 11.1797 16.2644 11.4363 16.45 11.74C17.87 13.92 13.91 15.57 13.08 13.45C12.41 11.76 14.38 10.36 15.08 10.8C15.1463 10.8451 15.2278 10.862 15.3065 10.847C15.3853 10.832 15.4549 10.7863 15.5 10.72C15.545 10.6537 15.5619 10.5722 15.5469 10.4934C15.5319 10.4147 15.4863 10.3451 15.42 10.3C14.13 9.43 11.23 11.37 12.05 13.86Z" fill="black"/>
<path fill-rule="evenodd" clip-rule="evenodd" d="M16.1196 12C15.8796 11.06 14.1196 11.71 14.6996 12C15.2796 12.29 15.4996 13.12 15.8496 13C16.1996 12.88 16.1396 12.05 16.1196 12Z" fill="black"/>
<path fill-rule="evenodd" clip-rule="evenodd" d="M17.2199 8.42C17.1099 8.42 16.3899 7.31 15.7699 6.91C15.4899 6.73 15.3999 6.84 14.5099 6.91C13.4778 6.974 12.4637 7.21062 11.5099 7.61C11.0299 7.87 11.0599 8.25 10.9899 8.61C10.9199 8.97 10.9899 9.81 10.7599 9.91L8.21986 10.7C8.17637 10.7208 8.13779 10.7505 8.10668 10.7873C8.07556 10.8241 8.05263 10.8671 8.03939 10.9134C8.02615 10.9598 8.02291 11.0084 8.02989 11.0561C8.03687 11.1037 8.0539 11.1494 8.07986 11.19C8.02933 11.1727 7.97509 11.1691 7.92274 11.1797C7.87039 11.1904 7.82183 11.2148 7.78208 11.2505C7.74232 11.2862 7.71281 11.3318 7.6966 11.3827C7.68039 11.4336 7.67806 11.4879 7.68986 11.54C7.54826 12.4808 7.78167 13.4396 8.33986 14.21C8.36582 14.2839 8.41649 14.3465 8.4833 14.3874C8.55011 14.4282 8.62897 14.4447 8.70656 14.4341C8.78414 14.4236 8.8557 14.3865 8.90914 14.3293C8.96257 14.2721 8.99462 14.1981 8.99986 14.12C9.08218 13.1529 8.81618 12.1882 8.24986 11.4C8.36986 11.4 8.12986 11.48 11.1499 10.75C11.8699 10.42 11.8299 9.4 11.9599 8.87C12.0199 8.59 11.6799 8.53 12.9599 8.3C13.8699 8.13 15.1299 8.04 15.2799 8.01C17.3599 10.06 16.2099 9.49 19.5099 9.01C20.6399 8.83 20.3599 9.07 20.4599 9.01L20.9099 10.62C20.9258 10.6982 20.9721 10.767 21.0387 10.811C21.1053 10.8551 21.1866 10.8709 21.2649 10.855C21.3431 10.8391 21.4118 10.7927 21.4559 10.7262C21.4999 10.6596 21.5158 10.5782 21.4999 10.5C21.1899 8.7 21.2399 8.32 20.3499 8.19C19.3009 8.12791 18.2484 8.20525 17.2199 8.42Z" fill="black"/>
<path fill-rule="evenodd" clip-rule="evenodd" d="M13.54 1.53C14.531 1.9283 15.4078 2.56611 16.0919 3.38633C16.776 4.20655 17.2461 5.18359 17.46 6.23C17.46 6.30957 17.4916 6.38587 17.5479 6.44213C17.6041 6.49839 17.6805 6.53 17.76 6.53C17.8396 6.53 17.9159 6.49839 17.9722 6.44213C18.0284 6.38587 18.06 6.30957 18.06 6.23C18.1831 4.93978 17.7922 3.65309 16.972 2.64947C16.1519 1.64586 14.9689 1.00639 13.68 0.87C13.6345 0.854182 13.586 0.84824 13.538 0.852568C13.49 0.856895 13.4434 0.871393 13.4014 0.895099C13.3594 0.918806 13.3229 0.951177 13.2944 0.990064C13.2659 1.02895 13.2459 1.07346 13.2359 1.12064C13.2259 1.16783 13.2261 1.2166 13.2363 1.26372C13.2466 1.31084 13.2668 1.35523 13.2956 1.39395C13.3243 1.43267 13.361 1.46482 13.4032 1.48828C13.4453 1.51174 13.492 1.52596 13.54 1.53Z" fill="black"/>
<path fill-rule="evenodd" clip-rule="evenodd" d="M9.88984 15C8.68921 15.0646 7.53433 15.482 6.56984 16.2L6.30984 16.43C6.25222 16.1447 6.14745 15.8709 5.99984 15.62C5.97852 15.5325 5.92338 15.4571 5.84652 15.4102C5.76966 15.3634 5.67735 15.3489 5.58984 15.37C5.31984 15.43 5.02984 16.51 5.48984 17.37C5.21597 17.73 5.00933 18.1366 4.87984 18.57C4.71984 18.93 4.77984 19.1 4.87984 19.14C4.98984 19.34 5.21984 19.34 5.49984 18.76C5.57968 18.5556 5.6698 18.3553 5.76984 18.16C6.99984 16.16 10.4798 15 11.2798 16.68C11.4755 17.1133 11.5227 17.599 11.4142 18.0618C11.3058 18.5247 11.0476 18.9388 10.6798 19.24C8.92984 20.82 7.25984 22.47 4.99984 22.73C4.14689 22.8993 3.2636 22.8266 2.44984 22.52C-0.000160694 21 0.999839 17.12 2.77984 15C3.5315 14.0046 4.43207 13.131 5.44984 12.41C5.73628 12.6643 6.04789 12.8888 6.37984 13.08C6.45621 13.1174 6.54384 13.1249 6.62543 13.1009C6.70703 13.0769 6.77667 13.0232 6.82062 12.9504C6.86456 12.8776 6.87962 12.7909 6.86281 12.7075C6.846 12.6242 6.79856 12.5501 6.72984 12.5C1.99984 9.41 3.99984 0.11 11.6898 0.71C11.7694 0.717957 11.8489 0.69398 11.9108 0.643345C11.9726 0.592711 12.0119 0.519565 12.0198 0.44C12.0278 0.360435 12.0038 0.280968 11.9532 0.219081C11.9025 0.157194 11.8294 0.117957 11.7498 0.11C3.36984 -0.87 0.999839 7.82 4.99984 12C4.60821 12.2465 4.23702 12.5241 3.88984 12.83C-1.82016 17.83 -0.490161 23.5 3.18984 23.94C6.86984 24.38 8.99984 22.27 11.3998 20C13.3398 18.16 12.5498 15 9.88984 15Z" fill="black"/>
<path fill-rule="evenodd" clip-rule="evenodd" d="M18.4497 16.6C19.0297 16.34 18.5897 15.89 17.8497 15.99C16.0678 16.1122 14.3245 16.5667 12.7097 17.33C12.6418 17.3554 12.5854 17.4044 12.5509 17.4682C12.5163 17.5319 12.5061 17.6059 12.5219 17.6767C12.5378 17.7474 12.5787 17.81 12.6371 17.8529C12.6955 17.8958 12.7675 17.9161 12.8397 17.91C14.7407 17.6185 16.6162 17.1805 18.4497 16.6Z" fill="black"/>
<path fill-rule="evenodd" clip-rule="evenodd" d="M18.5599 17.09C18.4991 17.0176 18.4146 16.969 18.3213 16.953C18.2281 16.9369 18.1322 16.9544 18.0507 17.0024C17.9692 17.0504 17.9073 17.1257 17.876 17.2149C17.8447 17.3042 17.8461 17.4016 17.8799 17.49C18.4842 19.2223 18.9589 20.9972 19.2999 22.8C19.2999 22.8902 19.3357 22.9767 19.3995 23.0404C19.4632 23.1042 19.5497 23.14 19.6399 23.14C19.7301 23.14 19.8165 23.1042 19.8803 23.0404C19.9441 22.9767 19.9799 22.8902 19.9799 22.8C20.239 20.786 19.7322 18.7481 18.5599 17.09Z" fill="black"/>
<path fill-rule="evenodd" clip-rule="evenodd" d="M23.6399 12.38C23.4495 12.0718 23.1981 11.8057 22.9011 11.5981C22.6042 11.3904 22.268 11.2457 21.9131 11.1726C21.5582 11.0996 21.1922 11.0998 20.8374 11.1733C20.4826 11.2468 20.1466 11.392 19.8499 11.6C19.5156 11.8157 19.2295 12.0983 19.0099 12.43C17.1899 15.43 19.1999 17.98 22.0099 17.43C23.9199 17 24.4499 13.87 23.6399 12.38ZM22.8599 14.89C22.5099 16.17 21.9999 16.35 21.1299 16.34C20.8577 16.367 20.5837 16.3119 20.3431 16.1818C20.1025 16.0517 19.9063 15.8525 19.7799 15.61C19.461 15.2157 19.2788 14.7285 19.2608 14.2217C19.2427 13.7149 19.3898 13.216 19.6799 12.8C19.8292 12.5478 20.0262 12.327 20.2599 12.15C20.5857 11.9222 20.9797 11.8128 21.3764 11.8401C21.773 11.8674 22.1483 12.0297 22.4399 12.3C22.6196 12.4161 22.7647 12.5784 22.8599 12.77C23.0865 13.4585 23.0865 14.2015 22.8599 14.89Z" fill="black"/>
<path fill-rule="evenodd" clip-rule="evenodd" d="M6.82995 10.36C6.86089 10.4165 6.90767 10.4626 6.96453 10.4929C7.02139 10.5231 7.08584 10.536 7.14995 10.53C7.20908 10.5302 7.2672 10.5146 7.31822 10.4847C7.36923 10.4548 7.41128 10.4117 7.43995 10.36C7.96884 10.1106 8.46576 9.79832 8.91995 9.43C8.99661 9.35704 9.0506 9.26351 9.07543 9.16063C9.10027 9.05776 9.09489 8.9499 9.05995 8.85C8.58114 8.34984 7.96546 8.002 7.28995 7.85C7.23291 7.84866 7.17645 7.8617 7.12577 7.88791C7.07509 7.91413 7.03182 7.95267 6.99995 8C6.93995 8.15 6.87995 8.22 7.70995 9C7.26995 9.45 6.57995 10 6.82995 10.36Z" fill="black"/>
<path fill-rule="evenodd" clip-rule="evenodd" d="M7.99986 6C5.99986 6.43 5.39986 6 5.34986 6.48C5.34428 6.56066 5.37044 6.6403 5.42274 6.70195C5.47505 6.76359 5.54937 6.80237 5.62986 6.81C8.42986 7.22 10.2699 6.95 13.2299 4.61C13.2899 4.56 13.3799 4.54 13.4199 4.5L14.7099 5.87C14.7388 5.90414 14.7741 5.93226 14.8138 5.95275C14.8536 5.97324 14.897 5.9857 14.9416 5.98941C14.9861 5.99312 15.031 5.98802 15.0736 5.9744C15.1162 5.96077 15.1557 5.93889 15.1899 5.91C15.224 5.88111 15.2521 5.84578 15.2726 5.80602C15.2931 5.76626 15.3056 5.72286 15.3093 5.67828C15.313 5.63371 15.3079 5.58884 15.2943 5.54624C15.2806 5.50364 15.2587 5.46414 15.2299 5.43C14.5599 4.53 14.0599 3.7 13.5999 3.55C13.1399 3.4 12.5999 3.89 12.2899 4.05C9.83986 5.4 9.35986 5.77 7.99986 6Z" fill="black"/>
</g>
<defs>
<clipPath id="clip0_342_1273">
<rect width="24" height="24" fill="white"/>
</clipPath>
</defs>
</svg>
