<svg width="24" height="24" viewBox="0 0 24 24" fill="none" xmlns="http://www.w3.org/2000/svg">
<g clip-path="url(#clip0_17_30048)">
<path d="M16.19 8.05993C16.0108 7.07995 15.5801 6.16334 14.94 5.39993C14.75 5.16993 14.55 4.89993 14.32 4.66993C14.1526 4.49463 13.9564 4.34921 13.74 4.23993C13.6648 4.20185 13.5782 4.19304 13.4969 4.21521C13.4156 4.23738 13.3454 4.28895 13.3 4.35993H13.17C12.17 4.93993 11.17 5.55993 10.25 6.21993C9.78001 6.54993 9.31001 6.87993 8.85001 7.21993L7.51001 8.34993C6.82001 8.95993 6.09001 9.57993 5.42001 10.2499C5.11001 10.5599 4.82001 10.8799 4.54001 11.2499C4.38509 10.7145 4.33751 10.1538 4.40001 9.59993C4.68903 7.92482 5.4848 6.37864 6.68001 5.16993C7.00982 4.84838 7.39634 4.5907 7.82001 4.40993C8.41917 4.19114 9.05215 4.07944 9.69001 4.07993C10.7003 4.07769 11.7073 4.19518 12.69 4.42993C12.7591 4.4347 12.8278 4.41539 12.8843 4.37529C12.9408 4.33519 12.9817 4.27676 13 4.20993C13.0184 4.13177 13.0057 4.04953 12.9647 3.98052C12.9237 3.9115 12.8575 3.8611 12.78 3.83993C11.7642 3.56568 10.7212 3.4047 9.67001 3.35993C8.94055 3.33358 8.2123 3.43858 7.52001 3.66993C5.39001 4.41993 3.59001 7.46993 3.31001 9.46993C3.18399 10.5319 3.35355 11.6081 3.80001 12.5799C4.24306 13.5363 4.91652 14.3678 5.76001 14.9999C6.2386 15.3469 6.77788 15.6013 7.35001 15.7499C7.8878 15.9 8.44189 15.984 9.00001 15.9999C10.5578 16.031 12.0862 15.5728 13.37 14.6899C14.6622 13.8165 15.596 12.5064 16 10.9999C16.2712 10.0445 16.336 9.04231 16.19 8.05993ZM4.86001 12.0599C4.83243 12.0051 4.80903 11.9483 4.79001 11.8899C5.17046 11.5237 5.57467 11.1829 6.00001 10.8699C6.73001 10.2899 7.50001 9.76993 8.24001 9.23993C8.98001 8.70993 9.50001 8.23993 10.11 7.74993C10.72 7.25993 11.32 6.74993 11.94 6.21993C12.56 5.68993 13 5.37993 13.54 4.99993C13.6249 5.06416 13.7051 5.13434 13.78 5.20993C13.98 5.42993 14.16 5.68993 14.33 5.90993C14.81 6.49255 15.1519 7.17632 15.33 7.90993C14.27 8.55993 13.19 9.14993 12.13 9.78993C11.3445 10.2536 10.5835 10.7576 9.85001 11.2999C8.69238 12.1875 7.63002 13.1929 6.68001 14.2999L6.46001 14.1699C5.76115 13.6254 5.21086 12.9134 4.86001 12.0999V12.0599ZM15.14 10.7099C14.7642 11.9886 13.936 13.0869 12.81 13.7999C11.6939 14.514 10.3835 14.8634 9.06001 14.7999C8.58668 14.7938 8.11612 14.7266 7.66001 14.5999C7.53001 14.5999 7.41001 14.5099 7.29001 14.4699C7.74001 14.0799 8.19001 13.7199 8.66001 13.3699C9.13001 13.0199 9.66001 12.7099 10.13 12.3699L11.61 11.3699C12.9033 10.4833 14.1733 9.56993 15.42 8.62993C15.4518 9.34755 15.357 10.0652 15.14 10.7499V10.7099Z" fill="black"/>
<path d="M23.25 20.58C23.21 20.3615 23.1497 20.1473 23.07 19.94C22.9338 19.5848 22.7523 19.2487 22.53 18.94C22.2262 18.5005 21.892 18.0828 21.53 17.69C21.0008 17.1151 20.4328 16.5772 19.83 16.08C19 15.4 18.13 14.78 17.25 14.08C17.5135 13.5738 17.7311 13.045 17.9 12.5C18.1483 11.6817 18.3355 10.846 18.46 9.99997C18.617 9.18625 18.6907 8.35864 18.68 7.52997C18.6722 6.95169 18.5743 6.37815 18.39 5.82997C18.2322 5.33458 18.0418 4.85019 17.82 4.37997C17.6635 4.04749 17.4725 3.73241 17.25 3.43997C16.8714 2.95131 16.4272 2.51722 15.93 2.14997C15.1932 1.62862 14.3978 1.19565 13.56 0.859973C12.9765 0.605506 12.3748 0.394922 11.76 0.229973C11.1073 0.060411 10.4341 -0.017006 9.75998 -2.72379e-05C8.93056 0.045097 8.11206 0.210145 7.32998 0.489973C6.56159 0.768883 5.82157 1.12048 5.11998 1.53997C4.51888 1.88009 3.9528 2.27869 3.42998 2.72997C1.18998 4.69997 0.729977 8.99997 0.699977 9.46997C0.592884 10.7415 0.77758 12.0207 1.23998 13.21C1.36161 13.5117 1.50188 13.8056 1.65998 14.09C1.88998 14.49 2.14998 14.88 2.41998 15.27C2.92448 16.0437 3.54508 16.7351 4.25998 17.32C4.75894 17.7165 5.32439 18.0213 5.92998 18.22C6.62141 18.4457 7.33057 18.6129 8.04998 18.72C8.54208 18.8024 9.04153 18.8326 9.53998 18.81C10.3155 18.7599 11.0815 18.612 11.82 18.37C12.5366 18.1189 13.2321 17.8113 13.9 17.45C14.0353 17.6099 14.1621 17.7768 14.28 17.95C14.71 18.61 15.05 19.32 15.45 19.95C15.7313 20.3847 16.0385 20.8022 16.37 21.2C16.683 21.5909 17.0169 21.9648 17.37 22.32C18.3424 23.2231 19.5666 23.8091 20.88 24C21.1423 24.0471 21.4114 24.0414 21.6715 23.9831C21.9315 23.9248 22.1773 23.8151 22.3944 23.6604C22.6115 23.5058 22.7954 23.3093 22.9355 23.0825C23.0756 22.8558 23.1689 22.6033 23.21 22.34C23.2505 22.1653 23.2805 21.9883 23.3 21.81C23.3097 21.6334 23.3097 21.4565 23.3 21.28C23.3035 21.0456 23.2868 20.8114 23.25 20.58ZM22.09 22.05C22.039 22.3035 21.8918 22.5274 21.6792 22.6747C21.4666 22.822 21.2053 22.8813 20.95 22.84C19.9017 22.709 18.9146 22.2745 18.11 21.59C17.7573 21.2766 17.4234 20.9427 17.11 20.59C16.7783 20.2485 16.4709 19.8843 16.19 19.5C15.75 18.88 15.35 18.19 14.89 17.56C14.7679 17.4001 14.6377 17.2466 14.5 17.1L14.63 17.01C14.8515 16.8512 15.062 16.6774 15.26 16.49C15.3218 16.4234 15.3562 16.3359 15.3562 16.245C15.3562 16.1541 15.3218 16.0666 15.26 16C15.1962 15.9365 15.1099 15.9008 15.02 15.9008C14.93 15.9008 14.8437 15.9365 14.78 16C14.6089 16.1583 14.4249 16.3022 14.23 16.43C14.038 16.5659 13.8376 16.6895 13.63 16.8C12.9845 17.1279 12.316 17.4086 11.63 17.64C10.9353 17.8526 10.2159 17.9736 9.48998 18C8.93828 18.0138 8.3871 17.9567 7.84998 17.83C7.29228 17.7235 6.7439 17.573 6.20998 17.38C5.5816 17.1536 5.00882 16.7956 4.52998 16.33C4.03497 15.8462 3.59864 15.3058 3.22998 14.72C2.99998 14.36 2.75998 14 2.54998 13.6C2.41913 13.3534 2.30228 13.0997 2.19998 12.84C1.81589 11.7885 1.6757 10.6635 1.78998 9.54997C2.24998 4.24997 4.93998 2.98997 5.70998 2.54997C6.34384 2.16843 7.01374 1.85022 7.70998 1.59997C8.38663 1.34456 9.09799 1.19284 9.81998 1.14997C10.3822 1.13443 10.944 1.19498 11.49 1.32997C12.0551 1.4672 12.6099 1.64432 13.15 1.85997C13.7909 2.10722 14.4098 2.40829 15 2.75997C15.5696 3.08103 16.0775 3.50091 16.5 3.99997C16.6896 4.23534 16.8539 4.49009 16.99 4.75997C17.2111 5.1893 17.4016 5.63374 17.56 6.08997C17.7234 6.55408 17.821 7.03879 17.85 7.52997C17.8742 8.30964 17.8239 9.08984 17.7 9.85997C17.6144 10.5331 17.4909 11.2008 17.33 11.86C17.1688 12.5208 16.934 13.1615 16.63 13.77C16.4689 14.119 16.2782 14.4535 16.06 14.77C15.8453 15.0738 15.6044 15.3582 15.34 15.62C15.3111 15.6475 15.2879 15.6805 15.2718 15.7171C15.2556 15.7536 15.2469 15.793 15.2459 15.8329C15.244 15.9135 15.2743 15.9916 15.33 16.05C15.3857 16.1083 15.4623 16.1422 15.5429 16.144C15.6235 16.1459 15.7016 16.1157 15.76 16.06C16.0539 15.7752 16.3248 15.4676 16.57 15.14C16.68 14.99 16.77 14.83 16.87 14.67C17.68 15.35 18.49 15.99 19.26 16.67C19.8041 17.1664 20.3121 17.7011 20.78 18.27C21.0938 18.6452 21.3843 19.0393 21.65 19.45C21.8087 19.7037 21.9363 19.9757 22.03 20.26C22.0805 20.4239 22.1206 20.5909 22.15 20.76C22.1599 20.9198 22.1599 21.0801 22.15 21.24L22.09 22.05Z" fill="black"/>
</g>
<defs>
<clipPath id="clip0_17_30048">
<rect width="24" height="24" fill="white"/>
</clipPath>
</defs>
</svg>
