<svg width="24" height="24" viewBox="0 0 24 24" fill="none" xmlns="http://www.w3.org/2000/svg">
<g clip-path="url(#clip0_17_30067)">
<path d="M8.60976 10.74C8.93621 10.5545 9.22157 10.3047 9.44848 10.0055C9.6754 9.70642 9.83914 9.3643 9.92976 8.99995C10.0219 8.65239 10.0428 8.28981 9.99137 7.93395C9.93993 7.5781 9.81713 7.2363 9.63036 6.92906C9.44359 6.62181 9.19668 6.35546 8.90446 6.14598C8.61223 5.93649 8.2807 5.78818 7.92976 5.70995C7.51096 5.59408 7.06856 5.59408 6.64976 5.70995C6.20836 5.82426 5.79882 6.03767 5.45227 6.33397C5.10571 6.63028 4.83126 7.00168 4.64976 7.41995C4.45287 7.87117 4.39246 8.37017 4.47599 8.85533C4.55952 9.34049 4.78332 9.79056 5.11976 10.15C5.57143 10.5955 6.14003 10.9041 6.75976 11.04C7.39243 11.1659 8.04929 11.0593 8.60976 10.74ZM5.60976 7.73995C5.71142 7.44519 5.87714 7.17663 6.09501 6.95357C6.31288 6.73052 6.57747 6.55852 6.86976 6.44995C7.21542 6.32466 7.59409 6.32466 7.93976 6.44995C8.18487 6.49214 8.41688 6.59054 8.61758 6.73743C8.81828 6.88433 8.98223 7.07573 9.09655 7.29662C9.21086 7.5175 9.27245 7.76187 9.27648 8.01056C9.28051 8.25924 9.22686 8.50548 9.11976 8.72995C9.04412 8.97792 8.91553 9.20649 8.74287 9.39987C8.57021 9.59325 8.3576 9.74682 8.11976 9.84995C7.75773 9.97664 7.36399 9.98015 6.99976 9.85995C6.59836 9.76025 6.23183 9.55278 5.93976 9.25995C5.74815 9.06064 5.61797 8.81038 5.56477 8.53907C5.51158 8.26776 5.53761 7.98687 5.63976 7.72995L5.60976 7.73995Z" fill="black"/>
<path d="M7.67992 17.1699C7.92782 17.2136 8.17839 17.2403 8.42992 17.2499C8.58499 17.2603 8.74068 17.2434 8.88992 17.1999C9.09694 17.1429 9.28177 17.0243 9.41992 16.8599C9.61695 16.6048 9.75986 16.3122 9.83992 15.9999C9.95992 15.5999 9.95992 15.1599 10.0799 14.7699C10.1122 14.6188 10.1973 14.484 10.3199 14.3899C10.375 14.3403 10.4401 14.303 10.5108 14.2806C10.5816 14.2581 10.6563 14.2511 10.7299 14.2599C11.193 14.4572 11.6757 14.6047 12.1699 14.6999C12.4484 14.6922 12.7189 14.6055 12.9499 14.4499C13.2899 14.1939 13.6047 13.9059 13.8899 13.5899C14.0843 13.4141 14.2648 13.2235 14.4299 13.0199C14.5483 12.8644 14.6272 12.6826 14.6599 12.4899C14.687 12.3069 14.6628 12.12 14.5899 11.9499C14.4814 11.6978 14.3328 11.4648 14.1499 11.2599C13.9248 10.9917 13.724 10.7038 13.5499 10.3999C13.4851 10.312 13.4415 10.2103 13.4224 10.1028C13.4033 9.99527 13.4093 9.88478 13.4399 9.77994C13.5357 9.58643 13.6722 9.41588 13.8399 9.27994C14.0294 9.12443 14.2377 8.9934 14.4599 8.88994C14.6199 8.80994 14.8399 8.76994 15.0199 8.67994C15.1728 8.61378 15.3044 8.50646 15.3999 8.36994C15.5256 8.19234 15.6047 7.98604 15.6299 7.76994C15.6601 7.53089 15.6601 7.28899 15.6299 7.04994L15.4899 6.19994C15.4899 5.99994 15.4299 5.74994 15.3799 5.52994C15.3548 5.39776 15.311 5.26981 15.2499 5.14994C15.1453 4.95009 14.9761 4.7915 14.7699 4.69994C14.4719 4.5892 14.1577 4.52838 13.8399 4.51994C13.6163 4.49851 13.399 4.43399 13.1999 4.32994C13.0197 4.26324 12.8608 4.14925 12.7399 3.99994C12.6752 3.85057 12.6513 3.68671 12.6706 3.52508C12.69 3.36346 12.7518 3.20985 12.8499 3.07994C13.0485 2.77547 13.1876 2.43616 13.2599 2.07994C13.288 1.82859 13.2353 1.57482 13.1095 1.35545C12.9836 1.13608 12.7911 0.962517 12.5599 0.859942C12.1809 0.63124 11.7786 0.443517 11.3599 0.299942C11.1212 0.20751 10.8616 0.183274 10.6099 0.229942C9.87992 0.449942 9.51992 1.22994 8.91992 1.58994C8.73761 1.7022 8.52215 1.74812 8.30992 1.71994C8.14135 1.70275 7.98148 1.63672 7.84992 1.52994C7.71002 1.40828 7.59754 1.25831 7.51992 1.08994C7.51992 0.969942 7.42992 0.719942 7.34992 0.559942C7.31495 0.455558 7.25282 0.362366 7.16992 0.289942C6.96024 0.142066 6.70582 0.0713923 6.44992 0.0899422C5.86393 0.173023 5.29404 0.345001 4.75992 0.599942C4.54575 0.67407 4.35695 0.807332 4.21537 0.984304C4.07379 1.16128 3.98522 1.37472 3.95992 1.59994C3.95163 2.02698 3.99528 2.45344 4.08992 2.86994C4.13377 3.01176 4.14304 3.16202 4.11694 3.30816C4.09084 3.4543 4.03015 3.59206 3.93992 3.70994C3.64992 4.01994 3.31992 3.92994 2.99992 3.82994C2.679 3.70683 2.34238 3.6294 1.99992 3.59994C1.84299 3.59838 1.68789 3.63377 1.54717 3.70326C1.40646 3.77275 1.28407 3.87439 1.18992 3.99994C0.806807 4.43478 0.520483 4.94608 0.349917 5.49994C0.269676 5.72046 0.236239 5.95527 0.251734 6.18942C0.267229 6.42357 0.331317 6.65192 0.439917 6.85994C0.779917 7.36994 1.31992 7.63994 1.66992 8.09994C1.7739 8.23796 1.84256 8.39931 1.86992 8.56994C1.8892 8.67786 1.88393 8.78873 1.8545 8.89433C1.82507 8.99994 1.77224 9.09756 1.69992 9.17994C1.3895 9.50447 1.05524 9.80531 0.699917 10.0799C0.355787 10.3504 0.109881 10.7263 -8.33236e-05 11.1499C-0.0449784 11.4033 -0.0136558 11.6644 0.0899167 11.8999C0.288147 12.2718 0.54474 12.6094 0.849917 12.8999C1.16206 13.3139 1.49586 13.7112 1.84992 14.0899C2.08805 14.324 2.39126 14.4809 2.71992 14.5399C3.30649 14.4847 3.88605 14.3708 4.44992 14.1999C4.56677 14.1611 4.69307 14.1611 4.80992 14.1999C4.87287 14.235 4.92713 14.2837 4.96868 14.3426C5.01023 14.4014 5.03799 14.4689 5.04992 14.5399C5.08449 15.0452 5.18881 15.5433 5.35992 16.0199C5.57223 16.3658 5.8918 16.6327 6.26992 16.7799C6.72118 16.9701 7.19509 17.1012 7.67992 17.1699ZM6.11992 14.0499C5.97532 13.7208 5.7208 13.4521 5.39992 13.2899C5.09247 13.1304 4.74178 13.0743 4.39992 13.1299C3.89992 13.1999 3.39992 13.5299 2.89992 13.4899C2.76992 13.4899 2.63992 13.3399 2.49992 13.1999C2.14992 12.8599 1.81992 12.4099 1.62992 12.1999C1.46128 12.0378 1.30423 11.8641 1.15992 11.6799C1.07992 11.5599 0.989917 11.4399 1.01992 11.3199C1.09435 11.0356 1.26818 10.7872 1.50992 10.6199C1.87456 10.3567 2.20983 10.0549 2.50992 9.71994C2.65906 9.53627 2.76448 9.32109 2.81819 9.09067C2.87189 8.86024 2.87248 8.62063 2.81992 8.38994C2.76694 8.07423 2.63252 7.7778 2.42992 7.52994C1.99992 7.11994 1.46992 6.87994 1.13992 6.38994C0.989917 6.17994 1.07992 5.82994 1.19992 5.48994C1.32165 5.12626 1.50796 4.7875 1.74992 4.48994C1.90992 4.31994 2.10992 4.36994 2.31992 4.41994C2.66981 4.54212 3.03193 4.62594 3.39992 4.66994C3.59865 4.68016 3.79702 4.64391 3.97929 4.56406C4.16156 4.48421 4.3227 4.36296 4.44992 4.20994C4.59191 4.04556 4.69598 3.85194 4.75474 3.64283C4.8135 3.43371 4.82551 3.21422 4.78992 2.99994C4.68304 2.56732 4.61939 2.12515 4.59992 1.67994C4.61129 1.56453 4.6548 1.45462 4.7255 1.3627C4.79621 1.27078 4.89128 1.20053 4.99992 1.15994C5.44129 0.996233 5.89644 0.872405 6.35992 0.789942C6.47111 0.758782 6.58872 0.758782 6.69992 0.789942C6.71503 0.966509 6.76971 1.1374 6.85992 1.28994C6.97326 1.56803 7.15157 1.81492 7.37992 2.00994C7.6158 2.21579 7.90882 2.34486 8.21992 2.37994C8.60116 2.44458 8.99285 2.36624 9.31992 2.15994C9.85992 1.82994 10.1699 1.10994 10.8299 0.929942C10.9499 0.929942 11.1699 1.00994 11.3999 1.10994C11.6459 1.21828 11.8833 1.34532 12.1099 1.48994C12.3299 1.63994 12.4299 1.74994 12.4099 1.89994C12.3014 2.25045 12.1503 2.58629 11.9599 2.89994C11.8313 3.1362 11.7638 3.40093 11.7638 3.66994C11.7638 3.93896 11.8313 4.20369 11.9599 4.43994C12.1126 4.69964 12.3252 4.91907 12.5799 5.07994C12.9311 5.29399 13.3225 5.43355 13.7299 5.48994L14.3699 5.59994L14.5199 6.42994L14.6199 7.17994C14.6301 7.31976 14.6301 7.46013 14.6199 7.59994C14.6152 7.67026 14.5947 7.73862 14.5599 7.79994L13.9999 7.99994C13.633 8.16431 13.2953 8.38721 12.9999 8.65994C12.7836 8.86428 12.6043 9.10448 12.4699 9.36994C12.3785 9.57796 12.3313 9.80271 12.3313 10.0299C12.3313 10.2572 12.3785 10.4819 12.4699 10.6899C12.6769 11.1595 12.9496 11.5972 13.2799 11.9899L13.5399 12.3899L13.1199 12.8299C12.9599 12.9799 12.7599 13.2099 12.5399 13.3999C12.3199 13.5899 12.3199 13.6099 12.1899 13.6099C11.9419 13.5817 11.7031 13.4998 11.4899 13.3699C11.2136 13.2416 10.9144 13.1702 10.6099 13.1599C10.2451 13.1707 9.89386 13.3006 9.60992 13.5299C9.36327 13.7124 9.16992 13.9576 9.04992 14.2399C8.90931 14.7259 8.7991 15.2202 8.71992 15.7199C8.66846 15.8618 8.6049 15.999 8.52992 16.1299L7.83992 15.9999C7.53154 15.9691 7.22682 15.9088 6.92992 15.8199C6.73212 15.7846 6.5542 15.6778 6.42992 15.5199C6.34046 15.2938 6.29302 15.0532 6.28992 14.8099C6.26829 14.55 6.21109 14.2943 6.11992 14.0499Z" fill="black"/>
<path d="M15.77 12.36C16.1397 12.6133 16.4391 12.9562 16.6402 13.3567C16.8413 13.7572 16.9376 14.2022 16.92 14.65C16.9204 14.9914 16.8594 15.3301 16.74 15.65C16.5991 16.1155 16.2933 16.5136 15.88 16.77C15.4345 17.035 14.9159 17.1507 14.4 17.1C14.1555 17.1019 13.9151 17.0379 13.7039 16.9148C13.4927 16.7916 13.3187 16.6137 13.2 16.4C13.1695 16.3138 13.106 16.2432 13.0235 16.2038C12.941 16.1645 12.8462 16.1595 12.76 16.19C12.6738 16.2205 12.6033 16.284 12.5639 16.3665C12.5245 16.449 12.5195 16.5438 12.55 16.63C12.655 16.9237 12.8272 17.1888 13.053 17.4042C13.2787 17.6195 13.5516 17.779 13.85 17.87C14.6997 18.1547 15.626 18.1046 16.44 17.73C16.9978 17.4224 17.4401 16.9415 17.7 16.36C17.9558 15.8036 18.0593 15.1894 18 14.58C17.9445 13.9842 17.7294 13.4144 17.3775 12.9304C17.0255 12.4465 16.5497 12.0664 16 11.83C15.9648 11.8058 15.9249 11.7893 15.8828 11.7818C15.8408 11.7743 15.7976 11.7758 15.7562 11.7863C15.7148 11.7968 15.6761 11.816 15.6427 11.8427C15.6093 11.8694 15.582 11.9029 15.5626 11.9409C15.5432 11.979 15.5322 12.0208 15.5303 12.0634C15.5283 12.1061 15.5355 12.1487 15.5513 12.1884C15.5672 12.2281 15.5913 12.2639 15.6221 12.2935C15.653 12.3231 15.6897 12.3457 15.73 12.36H15.77Z" fill="black"/>
<path d="M22.2301 16.1399C22.6842 15.9316 23.1192 15.684 23.5301 15.3999C23.704 15.2138 23.836 14.9925 23.9171 14.7509C23.9982 14.5094 24.0265 14.2533 24.0001 13.9999C23.8643 13.0355 23.5233 12.1113 23.0001 11.2899C22.8565 11.0265 22.6322 10.8162 22.3601 10.6899C21.9881 10.5448 21.5879 10.4867 21.1901 10.5199C20.9991 10.549 20.804 10.5334 20.6201 10.4744C20.4362 10.4154 20.2685 10.3146 20.1301 10.1799C20.0721 10.1138 20.0301 10.0352 20.0076 9.95015C19.985 9.86514 19.9825 9.77607 20.0001 9.6899C20.0968 9.26086 20.1703 8.82689 20.2201 8.3899C20.2241 8.08648 20.1553 7.78652 20.0196 7.51511C19.8839 7.2437 19.6852 7.00875 19.4401 6.8299C18.7555 6.39165 17.9711 6.13365 17.1601 6.0799C17.1206 6.07428 17.0804 6.07658 17.0419 6.08666C17.0033 6.09674 16.9672 6.11439 16.9355 6.1386C16.9039 6.1628 16.8774 6.19307 16.8575 6.22763C16.8377 6.26219 16.825 6.30036 16.8201 6.3399C16.8144 6.37935 16.8167 6.41952 16.8268 6.45807C16.8369 6.49662 16.8546 6.53277 16.8788 6.56443C16.903 6.59608 16.9332 6.62259 16.9678 6.64242C17.0024 6.66224 17.0405 6.67499 17.0801 6.6799C17.7731 6.73514 18.4407 6.9657 19.0201 7.3499C19.1722 7.46788 19.2948 7.61966 19.3781 7.79324C19.4614 7.96681 19.5032 8.15739 19.5001 8.3499C19.5001 8.8299 19.2201 9.3499 19.2301 9.8299C19.2304 10.1348 19.3404 10.4294 19.5401 10.6599C19.706 10.8749 19.9272 11.0408 20.1801 11.1399C20.5453 11.2723 20.9316 11.3367 21.3201 11.3299C21.6701 11.3299 22.0201 11.3299 22.2301 11.6999C22.5928 12.3172 22.8529 12.9892 23.0001 13.6899C23.0601 14.0699 23.0801 14.4399 22.8501 14.6899C22.6201 14.9399 21.7001 15.1899 21.2701 15.5399C21.0534 15.7067 20.9015 15.9435 20.8401 16.2099C20.7961 16.4 20.7977 16.5978 20.8446 16.7872C20.8915 16.9766 20.9825 17.1523 21.1101 17.2999C21.3153 17.5259 21.5432 17.7303 21.7901 17.9099C21.9301 18.0099 22.0801 18.0899 22.1201 18.2199L21.8901 18.7499C21.6155 19.2077 21.3185 19.6515 21.0001 20.0799C20.8425 20.3081 20.654 20.5134 20.4401 20.6899L20.1001 20.5799C19.6009 20.2802 19.0793 20.0194 18.5401 19.7999C18.348 19.7393 18.1447 19.7232 17.9455 19.7526C17.7463 19.7821 17.5564 19.8564 17.3901 19.9699C17.128 20.1462 16.9202 20.3921 16.7901 20.6799C16.6466 21.1083 16.5494 21.5508 16.5001 21.9999C16.5001 22.2299 16.4301 22.4499 16.1901 22.5199C15.9305 22.5882 15.6666 22.6384 15.4001 22.6699C14.9701 22.7199 14.5301 22.7299 14.0901 22.7699L13.5401 22.8499C13.3972 22.6508 13.2921 22.427 13.2301 22.1899C13.1132 21.7946 12.9416 21.4176 12.7201 21.0699C12.5956 20.8923 12.4368 20.7415 12.253 20.6264C12.0692 20.5113 11.8642 20.4343 11.6501 20.3999C11.345 20.3411 11.029 20.3944 10.7601 20.5499C10.4376 20.7659 10.162 21.0448 9.95006 21.3699C9.76006 21.6099 9.59006 21.8899 9.21006 21.7399C9.00837 21.6491 8.8144 21.5421 8.63006 21.4199C8.14006 21.0899 7.70006 20.6799 7.22006 20.3599C7.08006 20.2699 6.85006 20.1499 6.66006 20.0199C6.58612 19.9763 6.52155 19.9186 6.47006 19.8499C6.38006 19.6399 6.57006 19.3499 6.76006 19.0699C6.95383 18.7672 7.20528 18.5055 7.50006 18.2999C7.5391 18.2772 7.57323 18.247 7.60045 18.2109C7.62768 18.1749 7.64745 18.1338 7.65862 18.0901C7.66979 18.0463 7.67214 18.0008 7.66552 17.9561C7.65889 17.9114 7.64344 17.8685 7.62006 17.8299C7.59834 17.7912 7.56903 17.7573 7.5339 17.7302C7.49876 17.703 7.45852 17.6833 7.41558 17.6721C7.37263 17.6609 7.32787 17.6585 7.28396 17.665C7.24006 17.6715 7.19792 17.6867 7.16006 17.7099C6.68167 18.0183 6.28394 18.4366 6.00006 18.9299C5.86678 19.1078 5.77587 19.3138 5.73428 19.5321C5.69269 19.7505 5.70151 19.9755 5.76006 20.1899C5.83597 20.3424 5.94537 20.4757 6.08006 20.5799C6.29006 20.7599 6.59006 20.9199 6.75006 21.0399C7.23006 21.3699 7.65006 21.7999 8.13006 22.1299C8.35581 22.2985 8.60088 22.4394 8.86006 22.5499C9.13282 22.6866 9.44713 22.7151 9.74006 22.6299C10.1445 22.4818 10.4936 22.213 10.7401 21.8599C10.9401 21.5999 11.1201 21.2799 11.5001 21.3499C11.5936 21.3681 11.6826 21.4049 11.7616 21.4581C11.8406 21.5114 11.9081 21.58 11.9601 21.6599C12.1478 22.0076 12.2922 22.3771 12.3901 22.7599C12.4973 23.1171 12.6894 23.4431 12.9501 23.7099C13.0715 23.8143 13.2211 23.8805 13.3801 23.8999C13.6481 23.9075 13.9162 23.8874 14.1801 23.8399C14.6401 23.8399 15.0801 23.8399 15.5301 23.7699C15.8671 23.743 16.2015 23.6895 16.5301 23.6099C16.8671 23.5337 17.1633 23.3339 17.3601 23.0499C17.5655 22.6807 17.6883 22.2712 17.7201 21.8499C17.7701 21.4999 17.7801 21.1199 18.0901 20.9099C18.2001 20.8299 18.3301 20.9099 18.4701 20.9599C18.9301 21.1499 19.4001 21.5099 19.7301 21.6499C19.9704 21.7588 20.2273 21.8264 20.4901 21.8499C20.6705 21.8468 20.8467 21.795 21.0001 21.6999C21.3582 21.4421 21.6723 21.128 21.9301 20.7699C22.2901 20.2699 22.6101 19.6899 22.8501 19.2899C23.0242 19.0145 23.1462 18.7094 23.2101 18.3899C23.2488 18.1858 23.2315 17.975 23.1601 17.7799C23.1148 17.6553 23.047 17.54 22.9601 17.4399C22.7487 17.206 22.5103 16.9979 22.2501 16.8199C22.1428 16.7536 22.0452 16.6729 21.9601 16.5799C21.9342 16.5577 21.9137 16.53 21.8998 16.4989C21.886 16.4678 21.8792 16.434 21.8801 16.3999C21.9101 16.2699 22.0801 16.2199 22.2301 16.1399Z" fill="black"/>
</g>
<defs>
<clipPath id="clip0_17_30067">
<rect width="24" height="24" fill="white"/>
</clipPath>
</defs>
</svg>
