<svg width="24" height="24" viewBox="0 0 24 24" fill="none" xmlns="http://www.w3.org/2000/svg">
<g clip-path="url(#clip0_17_30090)">
<path fill-rule="evenodd" clip-rule="evenodd" d="M19.54 15.5401C18.8558 15.486 18.1683 15.5895 17.5304 15.8426C16.8924 16.0957 16.321 16.4917 15.86 17.0001C15.3322 17.602 14.9824 18.339 14.8499 19.1285C14.7175 19.9181 14.8075 20.7289 15.11 21.4701C15.4278 22.186 15.9364 22.8007 16.5802 23.2469C17.2239 23.6932 17.9781 23.9537 18.76 24.0001C19.0926 24.0318 19.4274 24.0318 19.76 24.0001C20.0999 23.9852 20.4362 23.9247 20.76 23.8201C20.8049 23.8075 20.8469 23.786 20.8835 23.7569C20.92 23.7278 20.9504 23.6917 20.9727 23.6507C20.9951 23.6097 21.009 23.5646 21.0137 23.5181C21.0184 23.4717 21.0137 23.4247 21 23.3801C20.9874 23.3351 20.9659 23.2931 20.9368 23.2566C20.9077 23.22 20.8716 23.1897 20.8306 23.1673C20.7896 23.145 20.7445 23.131 20.698 23.1263C20.6516 23.1217 20.6046 23.1263 20.56 23.1401C20.296 23.2123 20.0236 23.2493 19.75 23.2501C19.4724 23.2581 19.1946 23.2413 18.92 23.2001C18.3074 23.1342 17.7242 22.9031 17.2328 22.5314C16.7414 22.1598 16.3602 21.6616 16.13 21.0901C15.9276 20.5301 15.885 19.925 16.0069 19.3422C16.1287 18.7594 16.4102 18.222 16.82 17.7901C17.1662 17.4206 17.5906 17.1331 18.0621 16.9485C18.5337 16.764 19.0405 16.6872 19.5456 16.7236C20.0506 16.76 20.5412 16.9088 20.9814 17.159C21.4216 17.4093 21.8003 17.7547 22.09 18.1701C22.3791 18.5731 22.5552 19.0461 22.6 19.5401C22.6551 20.0564 22.6144 20.5785 22.48 21.0801C22.4248 21.296 22.3512 21.5068 22.26 21.7101C22.1641 21.9047 22.0538 22.0919 21.93 22.2701C21.904 22.3021 21.8846 22.339 21.873 22.3785C21.8614 22.4181 21.8579 22.4596 21.8625 22.5006C21.8672 22.5416 21.88 22.5812 21.9001 22.6172C21.9203 22.6531 21.9474 22.6847 21.98 22.7101C22.044 22.7595 22.1248 22.7819 22.2051 22.7726C22.2855 22.7632 22.359 22.7229 22.41 22.6601C22.5628 22.4544 22.6936 22.2332 22.8 22.0001C22.9215 21.7731 23.0219 21.5354 23.1 21.2901C23.2955 20.704 23.3836 20.0875 23.36 19.4701C23.3431 18.8234 23.1569 18.1924 22.82 17.6401C22.4771 17.0566 22.0013 16.5624 21.4314 16.1974C20.8614 15.8325 20.2134 15.6073 19.54 15.5401Z" fill="black"/>
<path fill-rule="evenodd" clip-rule="evenodd" d="M15.1601 6.00003C15.4859 6.68665 15.9899 7.27334 16.6195 7.69897C17.2492 8.1246 17.9815 8.3736 18.7401 8.42003C19.0724 8.45701 19.4078 8.45701 19.7401 8.42003C20.08 8.40518 20.4163 8.34464 20.7401 8.24003C20.7847 8.22689 20.8263 8.2051 20.8626 8.17588C20.8988 8.14666 20.9289 8.11059 20.9512 8.06973C20.9735 8.02887 20.9875 7.98403 20.9925 7.93775C20.9974 7.89147 20.9932 7.84468 20.9801 7.80003C20.9669 7.75538 20.9451 7.71375 20.9159 7.67753C20.8867 7.6413 20.8506 7.61118 20.8098 7.5889C20.7689 7.56661 20.7241 7.55259 20.6778 7.54764C20.6315 7.54268 20.5847 7.54689 20.5401 7.56003C20.2753 7.62802 20.0034 7.66494 19.7301 7.67003C19.4521 7.67894 19.1739 7.65883 18.9001 7.61003C18.2878 7.54256 17.7055 7.30956 17.2157 6.93604C16.7259 6.56253 16.3471 6.06262 16.1201 5.49003C15.9237 4.92784 15.8861 4.32242 16.0114 3.74026C16.1366 3.1581 16.4199 2.62172 16.8301 2.19003C17.1815 1.84377 17.604 1.5779 18.0682 1.41078C18.5324 1.24366 19.0274 1.17927 19.5189 1.22206C20.0104 1.26484 20.4868 1.41378 20.9152 1.65859C21.3436 1.9034 21.7137 2.23825 22.0001 2.64003C22.2934 3.03975 22.4793 3.50799 22.5401 4.00003C22.5853 4.51646 22.5447 5.03682 22.4201 5.54003C22.3616 5.75624 22.2847 5.96702 22.1901 6.17003C22.0946 6.36697 21.9808 6.55447 21.8501 6.73003C21.8245 6.7622 21.8054 6.7991 21.7941 6.83863C21.7827 6.87815 21.7793 6.91952 21.7839 6.96038C21.7886 7.00124 21.8012 7.04078 21.8212 7.07675C21.8411 7.11272 21.8679 7.14442 21.9001 7.17003C21.9322 7.19563 21.9691 7.21465 22.0087 7.226C22.0482 7.23735 22.0896 7.2408 22.1304 7.23615C22.2129 7.22678 22.2883 7.185 22.3401 7.12003C22.5083 6.91875 22.6557 6.70097 22.7801 6.47003C22.9065 6.2393 23.0135 5.99847 23.1001 5.75003C23.284 5.18534 23.3719 4.59379 23.3601 4.00003C23.348 3.35393 23.1652 2.72254 22.8301 2.17003C22.4995 1.57213 22.0298 1.06273 21.4605 0.684984C20.8913 0.307238 20.2394 0.0722811 19.5601 2.58237e-05C18.8766 -0.0601056 18.1884 0.0375631 17.5486 0.285499C16.9088 0.533434 16.3346 0.925011 15.8701 1.43003C15.4076 1.94905 15.0756 2.57092 14.9017 3.24399C14.7277 3.91707 14.7169 4.62192 14.8701 5.30003L15.1601 6.00003Z" fill="black"/>
<path fill-rule="evenodd" clip-rule="evenodd" d="M13.7 5.88009C12.47 6.53009 12.45 6.60009 11.25 7.31009C10.85 7.54009 10.45 7.80009 10.06 8.06009L8.51004 9.15009C7.85004 9.90009 8.00004 10.2101 9.00004 10.0001C9.39004 9.79009 9.93004 9.48009 10.68 9.05009C11.09 8.82009 11.49 8.57009 11.88 8.31009C12.99 7.57009 13.13 7.31009 14.23 6.58009C14.8 5.93009 14.63 5.70009 13.7 5.88009Z" fill="black"/>
<path fill-rule="evenodd" clip-rule="evenodd" d="M8.42031 18C8.65031 18.14 8.91031 18.28 9.17031 18.42C9.64031 18.66 10.1703 18.9 10.6603 19.11C11.5248 19.4653 12.4181 19.7463 13.3303 19.95C13.4205 19.9752 13.517 19.9635 13.5986 19.9176C13.6801 19.8716 13.7401 19.7952 13.7653 19.705C13.7905 19.6148 13.7788 19.5183 13.7329 19.4368C13.687 19.3552 13.6105 19.2952 13.5203 19.27C13.0403 19.09 12.2703 18.63 11.3803 18.17C10.9003 17.93 10.3803 17.67 9.90031 17.47L9.52031 17.33C7.80031 17 7.46031 17.22 8.42031 18Z" fill="black"/>
<path fill-rule="evenodd" clip-rule="evenodd" d="M7.69013 16.74C7.81013 16.64 7.95013 16.55 8.06013 16.44C8.3007 16.2137 8.51231 15.9584 8.69013 15.68C8.71669 15.642 8.73544 15.5992 8.7453 15.5539C8.75516 15.5086 8.75592 15.4618 8.74755 15.4162C8.73917 15.3706 8.72183 15.3272 8.69652 15.2883C8.67122 15.2495 8.63845 15.2161 8.60013 15.19C8.56154 15.1639 8.51814 15.1458 8.47246 15.1367C8.42678 15.1276 8.37974 15.1277 8.33411 15.137C8.28847 15.1463 8.24516 15.1647 8.2067 15.1909C8.16823 15.2172 8.1354 15.2509 8.11013 15.29C7.94502 15.5091 7.75732 15.7102 7.55013 15.89C7.33686 16.0682 7.10944 16.2287 6.87013 16.37C6.35588 16.7079 5.75936 16.8994 5.14454 16.9241C4.52973 16.9487 3.91979 16.8056 3.38013 16.51C2.87064 16.2004 2.45581 15.757 2.18076 15.2281C1.90572 14.6991 1.78098 14.1049 1.82013 13.51C1.85519 13.0135 1.99981 12.5309 2.24361 12.0969C2.4874 11.6629 2.82432 11.2883 3.23013 11C3.64371 10.6939 4.12297 10.4884 4.62985 10.3999C5.13672 10.3114 5.65726 10.3422 6.15013 10.49C6.62413 10.6183 7.05553 10.8702 7.40013 11.22C7.77148 11.5858 8.07307 12.0161 8.29013 12.49C8.38274 12.6938 8.45964 12.9045 8.52013 13.12C8.57218 13.3334 8.60564 13.5509 8.62013 13.77C8.6201 13.8103 8.62818 13.8501 8.64388 13.8872C8.65958 13.9242 8.68257 13.9578 8.7115 13.9858C8.74043 14.0138 8.77469 14.0356 8.81225 14.0501C8.84981 14.0646 8.8899 14.0714 8.93013 14.07C9.01234 14.07 9.09119 14.0374 9.14933 13.9792C9.20747 13.9211 9.24013 13.8422 9.24013 13.76C9.23942 13.5051 9.21599 13.2508 9.17013 13C9.13627 12.729 9.0794 12.4614 9.00013 12.2C8.76192 11.6248 8.42332 11.0966 8.00013 10.64L7.92013 10.55L7.31013 10C7.03855 9.81081 6.74251 9.65942 6.43013 9.55002C5.79657 9.31673 5.11699 9.2359 4.44639 9.31408C3.77579 9.39226 3.13303 9.62725 2.57013 10C2.00022 10.3911 1.52854 10.9088 1.19198 11.5125C0.855424 12.1162 0.663124 12.7896 0.630126 13.48C0.604569 14.2804 0.80248 15.072 1.20167 15.7662C1.60085 16.4603 2.18553 17.0296 2.89013 17.41C3.53172 17.7384 4.24734 17.8954 4.96748 17.8656C5.68763 17.8358 6.38784 17.6203 7.00013 17.24L7.69013 16.74Z" fill="black"/>
</g>
<defs>
<clipPath id="clip0_17_30090">
<rect width="24" height="24" fill="white"/>
</clipPath>
</defs>
</svg>
