<svg width="24" height="24" viewBox="0 0 24 24" fill="none" xmlns="http://www.w3.org/2000/svg">
<g clip-path="url(#clip0_17_30136)">
<path fill-rule="evenodd" clip-rule="evenodd" d="M20.0002 15.62C19.152 14.5464 18.2404 13.5246 17.2702 12.56L11.3402 5.70997C11.0002 5.30997 10.3902 4.57997 9.82021 3.99997C9.57234 3.76162 9.29709 3.5535 9.00021 3.37997C8.02698 3.04815 7.02139 2.82021 6.00021 2.69997C5.00904 2.52856 4.00598 2.43494 3.00021 2.41997C2.74709 2.40526 2.49333 2.40526 2.24021 2.41997C2.15036 2.45681 2.06877 2.5112 2.00021 2.57997C1.96606 2.60952 1.93807 2.6455 1.91784 2.68586C1.8976 2.72623 1.88551 2.77018 1.88226 2.81522C1.8757 2.90617 1.90553 2.99601 1.96521 3.06497C2.02488 3.13392 2.1095 3.17635 2.20046 3.18291C2.29141 3.18948 2.38125 3.15964 2.45021 3.09997H3.11021C4.05741 3.1289 5.00061 3.23593 5.93021 3.41997C6.84698 3.54279 7.7485 3.76063 8.62021 4.06997C8.93966 4.27968 9.229 4.53201 9.48021 4.81997C9.95021 5.31997 10.4102 5.90997 10.7002 6.24997L16.4502 13.25C17.0002 14 18.0002 14.87 18.6902 15.82C19.1123 16.3199 19.4256 16.9023 19.6102 17.53C19.4949 17.7352 19.361 17.9293 19.2102 18.11C18.2151 19.2123 17.1167 20.2169 15.9302 21.11C15.0839 21.8857 14.0863 22.4781 13.0002 22.85C12.6629 22.8018 12.3523 22.6394 12.1202 22.39C11.6341 21.9172 11.1797 21.4128 10.7602 20.88C9.41021 19.35 7.06021 16.74 5.11021 14.49C4.18021 13.44 3.35021 12.49 2.75021 11.72C2.50021 11.42 2.20021 11.06 1.94021 10.72C1.78841 10.4972 1.66732 10.2551 1.58021 9.99997C1.44566 9.58007 1.38146 9.14081 1.39021 8.69997C1.39021 7.96997 1.50021 7.23997 1.50021 6.54997V5.20997C1.51201 4.92782 1.54544 4.647 1.60021 4.36997C1.60021 4.04997 1.88021 3.72997 1.81021 3.58997C1.78789 3.53115 1.75169 3.47861 1.70467 3.43682C1.65766 3.39503 1.60123 3.36523 1.54021 3.34997C1.46995 3.33687 1.39735 3.34625 1.33272 3.37677C1.2681 3.40728 1.21473 3.45739 1.18021 3.51997C1.09289 3.74886 1.03248 3.98712 1.00021 4.22997C0.929676 4.53893 0.886179 4.85346 0.870208 5.16997V6.53997C0.800208 7.34997 0.640208 8.21997 0.670208 9.06997C0.683784 9.46316 0.747636 9.85299 0.860208 10.23C0.968054 10.5443 1.11594 10.8434 1.30021 11.12C1.57021 11.52 1.87021 11.9 2.13021 12.23C2.88021 13.23 4.01021 14.59 5.21021 16.03C6.92021 18.03 8.80021 20.26 9.94021 21.61C10.4581 22.3038 11.0518 22.9377 11.7102 23.5C12.0763 23.7992 12.5281 23.9743 13.0002 24C13.4746 23.9507 13.9322 23.7971 14.3402 23.55C15.6923 22.7585 16.962 21.834 18.1302 20.79C18.9392 20.111 19.6795 19.354 20.3402 18.53C20.6107 18.2163 20.7566 17.8142 20.7502 17.4C20.6183 16.7635 20.3635 16.1589 20.0002 15.62Z" fill="black"/>
<path fill-rule="evenodd" clip-rule="evenodd" d="M22.6001 13.32C21.7966 12.2194 20.9284 11.1675 20.0001 10.17C19.2201 9.22996 17.8701 7.53996 16.5701 5.97996C15.6801 4.89996 14.8101 3.89996 14.2201 3.21996C13.8701 2.82996 13.2201 2.09996 12.6801 1.55996C12.4278 1.30268 12.1418 1.08067 11.8301 0.899962C11.0497 0.62354 10.2416 0.432427 9.42007 0.329962C8.24473 0.120481 7.05388 0.010093 5.86007 -3.83528e-05C5.60377 -0.0195185 5.34636 -0.0195185 5.09007 -3.83528e-05C4.97272 0.0229972 4.86284 0.0745066 4.77007 0.149962C4.70656 0.21369 4.6709 0.299992 4.6709 0.389962C4.6709 0.479931 4.70656 0.566233 4.77007 0.629962C4.83379 0.69347 4.9201 0.72913 5.01007 0.72913C5.10004 0.72913 5.18634 0.69347 5.25007 0.629962H5.92007C6.86461 0.67741 7.80407 0.797769 8.73007 0.989962C9.63787 1.12398 10.5293 1.35186 11.3901 1.66996C11.6981 1.87921 11.9742 2.13182 12.2101 2.41996C12.6801 2.91996 13.1301 3.50996 13.4101 3.84996C14.2401 4.84996 15.6001 6.49996 16.8801 8.00996C17.8101 9.08996 18.7001 10.09 19.2701 10.73C19.8401 11.37 20.8901 12.29 21.6501 13.22C22.1361 13.745 22.4953 14.3744 22.7001 15.06C22.7001 15.15 22.6201 15.27 22.5001 15.44C22.3801 15.61 22.2501 15.78 22.1001 15.97C22.047 16.0296 22.0199 16.1079 22.0245 16.1876C22.0292 16.2673 22.0654 16.3419 22.1251 16.395C22.1847 16.448 22.263 16.4752 22.3427 16.4705C22.4224 16.4658 22.497 16.4296 22.5501 16.37C22.7935 16.1215 23.0081 15.8464 23.1901 15.55C23.3163 15.3728 23.3765 15.1569 23.3601 14.94C23.2123 14.3564 22.9544 13.8066 22.6001 13.32Z" fill="black"/>
<path fill-rule="evenodd" clip-rule="evenodd" d="M4.54003 5.84995C4.57554 5.83029 4.60669 5.80363 4.6316 5.77158C4.65651 5.73953 4.67465 5.70276 4.68493 5.6635C4.69522 5.62423 4.69743 5.58329 4.69143 5.54315C4.68543 5.503 4.67134 5.46449 4.65003 5.42995C4.6085 5.3629 4.54298 5.3142 4.46681 5.29377C4.39064 5.27333 4.30954 5.28269 4.24003 5.31995C3.92809 5.47906 3.66018 5.71261 3.46003 5.99995C3.26861 6.30142 3.15203 6.64428 3.12003 6.99995C3.0633 7.68722 3.27072 8.37027 3.70003 8.90995C3.92505 9.20747 4.21713 9.44766 4.5525 9.611C4.88786 9.77434 5.25705 9.85621 5.63003 9.84995C5.96327 9.83022 6.28936 9.74499 6.58964 9.59914C6.88992 9.45329 7.1585 9.24968 7.38003 8.99995C7.59915 8.75101 7.76676 8.4611 7.87317 8.147C7.97959 7.8329 8.02271 7.50082 8.00003 7.16995C7.98532 6.87397 7.90502 6.58496 7.76493 6.32381C7.62485 6.06266 7.42848 5.83591 7.19003 5.65995C6.95996 5.48364 6.6913 5.3645 6.40618 5.31234C6.12105 5.26018 5.82761 5.2765 5.55003 5.35995C5.4618 5.38351 5.38628 5.44062 5.33957 5.51908C5.29287 5.59755 5.27868 5.69117 5.30003 5.77995C5.31573 5.82465 5.34009 5.8658 5.37172 5.90106C5.40335 5.93632 5.44163 5.96499 5.48437 5.98543C5.5271 6.00587 5.57345 6.01767 5.62075 6.02016C5.66805 6.02265 5.71539 6.01579 5.76003 5.99995C5.93599 5.95756 6.11978 5.96007 6.29451 6.00725C6.46924 6.05442 6.62932 6.14476 6.76003 6.26995C6.88219 6.38193 6.9772 6.5203 7.03785 6.67452C7.0985 6.82874 7.12318 6.99476 7.11003 7.15995C7.06908 7.54475 6.88746 7.90086 6.60003 8.15995C6.34282 8.44528 5.98353 8.61774 5.60003 8.63995C5.39668 8.65985 5.19149 8.63228 5.00061 8.5594C4.80972 8.48652 4.63837 8.37032 4.50003 8.21995C4.19383 7.88553 4.0166 7.45308 4.00003 6.99995C3.98064 6.7732 4.02207 6.54537 4.12003 6.33995C4.22228 6.14771 4.36569 5.9804 4.54003 5.84995Z" fill="black"/>
</g>
<defs>
<clipPath id="clip0_17_30136">
<rect width="24" height="24" fill="white"/>
</clipPath>
</defs>
</svg>
