<svg width="21" height="18" viewBox="0 0 21 18" fill="none" xmlns="http://www.w3.org/2000/svg">
<path fill-rule="evenodd" clip-rule="evenodd" d="M20.7729 2.53685C19.9921 2.87734 19.1665 3.10242 18.3217 3.2051C19.213 2.66979 19.8809 1.82765 20.2016 0.834904C19.364 1.33616 18.4471 1.68932 17.4907 1.87904C16.176 0.445736 14.064 0.0865265 12.3534 1.0053C10.6428 1.92407 9.76585 3.88871 10.2202 5.78412C6.79517 5.60996 3.60484 3.98168 1.44371 1.30477C1.06891 1.96275 0.87196 2.7079 0.87246 3.46613C0.86976 4.8963 1.57937 6.23288 2.76279 7.02664C2.08557 7.00812 1.42282 6.82544 0.830914 6.49413V6.54634C0.841378 8.5803 2.27404 10.326 4.25843 10.7229C3.8879 10.8362 3.50321 10.896 3.11593 10.9004C2.84784 10.8972 2.58043 10.8728 2.31617 10.8273C2.87805 12.567 4.47505 13.7575 6.29417 13.7927C4.79562 14.978 2.94547 15.625 1.03864 15.6303C0.691461 15.6315 0.344555 15.6106 0 15.5677C1.94686 16.8314 4.21566 17.5022 6.53306 17.4993C9.76351 17.5331 12.8719 16.26 15.1592 13.9665C17.4465 11.673 18.7208 8.55143 18.6956 5.30381C18.6956 5.12631 18.6956 4.93837 18.6956 4.75042C19.5106 4.1394 20.2135 3.39035 20.7729 2.53685Z" fill="#0C0A09"/>
</svg>
