<svg width="19" height="20" viewBox="0 0 19 20" fill="none" xmlns="http://www.w3.org/2000/svg">
<path d="M18.5635 7.45688C18.3992 6.85915 18.1784 6.27659 17.9035 5.71626C17.6319 5.14142 17.2801 4.60348 16.8575 4.11677C16.818 4.07799 16.7706 4.04715 16.7182 4.02608C16.6657 4.00501 16.6094 3.99415 16.5524 3.99415C16.4954 3.99415 16.439 4.00501 16.3866 4.02608C16.3342 4.04715 16.2868 4.07799 16.2473 4.11677C16.1711 4.19314 16.1287 4.2941 16.1287 4.39903C16.1287 4.50396 16.1711 4.60492 16.2473 4.68129C16.607 5.12113 16.9042 5.6035 17.1314 6.11613C17.3673 6.63284 17.5548 7.16804 17.6918 7.71562C18.0857 9.19194 18.0112 10.7451 17.4776 12.1817C16.9439 13.6183 15.9748 14.875 14.6907 15.7954C14.1876 16.1592 13.6498 16.4781 13.0843 16.7481C11.7536 17.3949 10.2593 17.6813 8.7669 17.5755C7.27449 17.4696 5.84225 16.9756 4.62883 16.1482C3.97387 15.7153 3.42586 15.1536 3.02242 14.5017C1.79942 12.678 1.3544 10.484 1.77714 8.36248C2.01964 7.29146 2.48598 6.2769 3.14885 5.37823C3.81172 4.47956 4.65778 3.71483 5.6375 3.12884C7.09603 2.29803 8.79834 1.93113 10.4941 2.08212C12.216 2.25596 13.8622 2.84302 15.276 3.78746C15.3597 3.84013 15.4615 3.86092 15.5608 3.84564C15.6602 3.83037 15.7497 3.78018 15.8114 3.70513C15.839 3.66593 15.8581 3.62191 15.8674 3.57566C15.8767 3.52941 15.8761 3.48187 15.8656 3.43584C15.8552 3.38981 15.8351 3.34622 15.8065 3.30763C15.778 3.26905 15.7415 3.23625 15.6994 3.21117C14.1968 2.146 12.4306 1.46176 10.5688 1.22357C8.66523 0.981467 6.72983 1.32806 5.05222 2.21149C3.90008 2.84445 2.89634 3.6922 2.1021 4.70314C1.30785 5.71409 0.739706 6.86708 0.432233 8.09197C-0.0258721 9.72096 0.0338365 11.4413 0.603915 13.0384C1.17399 14.6356 2.22922 16.0389 3.63805 17.0735C5.04688 18.1081 6.74698 18.7282 8.52642 18.8565C10.3059 18.9847 12.0859 18.6155 13.6447 17.7948C15.6231 16.8955 17.2017 15.3651 18.1017 13.4736C19.0017 11.5821 19.1652 9.45119 18.5635 7.45688Z" fill="#0C0A09"/>
<path d="M4.95262 14.4549C5.11451 14.055 5.17677 13.9609 5.33866 13.5963C5.57031 13.0526 5.89417 12.5481 6.29752 12.1027C6.69144 11.7008 7.14941 11.3595 7.65488 11.0912C8.79709 11.567 10.0806 11.6462 11.2786 11.3147C11.6711 11.2007 12.0443 11.0344 12.3869 10.8207C12.7855 11.1896 13.1029 11.6293 13.3209 12.1144L13.57 12.6672L13.9435 13.5022C14.1677 13.9962 14.205 14.1843 14.3794 14.5254C14.4266 14.63 14.5044 14.7197 14.6035 14.7842C14.865 14.9253 15.2884 14.8665 15.4752 14.3608C15.546 14.0664 15.52 13.7587 15.4005 13.4787C15.337 13.1672 15.2368 12.8635 15.1017 12.5731C14.9791 12.2708 14.8203 11.9828 14.6284 11.7145C14.2088 11.1364 13.6497 10.6607 12.9971 10.3268C13.6331 9.69222 13.9817 8.84822 13.9684 7.97456C14.0098 7.34829 13.9382 6.71994 13.7567 6.11632C13.5973 5.70561 13.3517 5.32957 13.0345 5.01079C12.9961 4.97235 12.9498 4.94172 12.8984 4.92079C12.847 4.89986 12.7916 4.88906 12.7356 4.88906C12.6797 4.88906 12.6243 4.89986 12.5729 4.92079C12.5215 4.94172 12.4752 4.97235 12.4368 5.01079C12.3932 5.04388 12.3571 5.08477 12.3304 5.13112C12.3037 5.17746 12.287 5.22834 12.2812 5.28081C12.2754 5.33329 12.2807 5.38633 12.2967 5.43687C12.3127 5.48742 12.3391 5.53447 12.3745 5.57532C12.6535 5.888 12.8385 6.26576 12.91 6.66909C12.9724 7.10619 12.9724 7.54922 12.91 7.98632C12.8823 8.50815 12.6714 9.00643 12.3106 9.40253C11.9498 9.79863 11.4597 10.07 10.9175 10.1739C10.3635 10.3075 9.78551 10.3273 9.22267 10.2319C8.65983 10.1366 8.1252 9.92827 7.65488 9.62109C7.36286 9.41091 7.14917 9.11848 7.04469 8.78606C6.90166 8.40968 6.85472 8.00672 6.90771 7.60997C6.96151 7.03233 7.1623 6.47552 7.49299 5.98695C7.8373 5.51826 8.33663 5.17078 8.91261 4.99903C9.3772 4.86249 9.85857 4.78343 10.3447 4.76381C10.8242 4.7418 11.3033 4.81388 11.7518 4.97551C11.7968 4.99515 11.8454 5.00616 11.8948 5.00791C11.9443 5.00966 11.9936 5.0021 12.04 4.98569C12.0863 4.96928 12.1287 4.94433 12.1648 4.91229C12.2008 4.88026 12.2298 4.84178 12.25 4.79909C12.2723 4.75622 12.2848 4.70941 12.2867 4.66167C12.2886 4.61394 12.2799 4.56636 12.2611 4.52201C12.2424 4.47766 12.2139 4.43753 12.1777 4.40423C12.1414 4.37092 12.0982 4.34517 12.0507 4.32865C11.5214 4.08812 10.9443 3.95586 10.3571 3.94054C9.7866 3.89663 9.21236 3.9283 8.6511 4.03463C7.82526 4.19012 7.07927 4.60456 6.53413 5.21073C6.02929 5.8306 5.69167 6.55714 5.55036 7.3277C5.46499 7.91756 5.529 8.51813 5.73715 9.08009C5.91017 9.61666 6.23786 10.0972 6.68356 10.4679C6.01681 10.7382 5.41835 11.1391 4.92772 11.644C4.55116 12.0492 4.26336 12.5209 4.08093 13.0318C3.93132 13.4316 3.8637 13.8547 3.88168 14.2784V14.5372C3.88168 14.6313 4.49187 15.6545 4.95262 14.4549Z" fill="#0C0A09"/>
</svg>
