<svg width="24" height="24" viewBox="0 0 24 24" fill="none" xmlns="http://www.w3.org/2000/svg">
<g clip-path="url(#clip0_17_30324)">
<path d="M1.41978 15.15C1.63838 15.4537 1.88261 15.7381 2.14978 16C2.21718 16.0506 2.30055 16.0751 2.38459 16.0692C2.46863 16.0632 2.54769 16.0271 2.60726 15.9675C2.66684 15.908 2.70292 15.8289 2.7089 15.7449C2.71487 15.6608 2.69033 15.5774 2.63978 15.51C2.40731 15.2628 2.19339 14.9988 1.99978 14.72C1.71978 14.29 1.46978 13.84 1.21978 13.39C1.12978 13.23 1.02978 13.06 0.949776 12.89C0.894717 12.7782 0.867283 12.6547 0.869776 12.53L1.23978 12L2.41978 10.42C3.47688 9.19018 4.72643 8.13988 6.11978 7.31005C7.47334 6.42071 8.98339 5.79633 10.5698 5.47005C11.2297 5.35385 11.9001 5.30693 12.5698 5.33005C13.2619 5.36341 13.9488 5.46728 14.6198 5.64005C14.698 5.66177 14.7816 5.65194 14.8527 5.61268C14.9237 5.57341 14.9765 5.50784 14.9998 5.43005C15.0119 5.39132 15.0161 5.35053 15.012 5.31014C15.008 5.26976 14.9958 5.23062 14.9761 5.19509C14.9565 5.15957 14.9298 5.1284 14.8978 5.10346C14.8658 5.07853 14.829 5.06036 14.7898 5.05005C13.371 4.59279 11.8732 4.43279 10.3898 4.58005C8.66257 4.81901 7.00404 5.41499 5.51978 6.33005C4.00997 7.2261 2.67782 8.39216 1.58978 9.77005L0.439776 11.49C0.308982 11.6726 0.195174 11.8667 0.0997757 12.07C0.0419758 12.196 0.00806802 12.3317 -0.000224319 12.47C-0.0074159 12.6971 0.0370351 12.9227 0.129776 13.13C0.24675 13.3659 0.380423 13.5932 0.529776 13.81C0.819776 14.26 1.09978 14.72 1.41978 15.15Z" fill="black"/>
<path d="M9.73962 9.53004C10.2349 9.24143 10.7662 9.01951 11.3196 8.87004C11.5892 8.79143 11.863 8.72799 12.1396 8.68004C12.3057 8.65994 12.4736 8.65994 12.6396 8.68004C12.7202 8.692 12.8023 8.6728 12.8691 8.62635C12.936 8.5799 12.9827 8.5097 12.9996 8.43004C13.0144 8.35059 12.9976 8.26849 12.9528 8.20125C12.908 8.134 12.8387 8.08692 12.7596 8.07004C12.5429 8.02237 12.3215 7.99889 12.0996 8.00004C11.7896 8.00004 11.4896 8.00004 11.1796 8.06004C10.4892 8.10341 9.81194 8.26934 9.17962 8.55004C8.56234 8.8374 8.01602 9.25738 7.57962 9.78004C7.13123 10.3122 6.81578 10.9434 6.6593 11.6215C6.50282 12.2996 6.50978 13.0052 6.67962 13.68C6.68572 13.7249 6.70072 13.7681 6.72374 13.8071C6.74675 13.846 6.77732 13.88 6.81364 13.9071C6.84997 13.9341 6.89132 13.9535 6.93528 13.9644C6.97924 13.9752 7.02491 13.9771 7.06962 13.97C7.16104 13.9553 7.2429 13.9049 7.29725 13.8299C7.35161 13.755 7.37403 13.6615 7.35962 13.57C7.30744 13.0213 7.3772 12.4678 7.56391 11.9492C7.75062 11.4306 8.04965 10.9596 8.43962 10.57C8.81659 10.1583 9.25514 9.80742 9.73962 9.53004Z" fill="black"/>
<path d="M18.1697 7.77004C18.5397 8.00004 19.4797 8.55004 19.6497 8.68004C20.1239 9.05189 20.5748 9.45265 20.9997 9.88004C21.4129 10.3001 21.7972 10.7478 22.1497 11.22C22.3951 11.538 22.6189 11.8721 22.8197 12.22C22.9302 12.3917 22.9987 12.587 23.0197 12.79C23.0189 12.9478 22.9776 13.1028 22.8997 13.24C22.7948 13.4371 22.6779 13.6274 22.5497 13.81C22.2916 14.2129 21.997 14.5911 21.6697 14.94C21.1428 15.4754 20.5852 15.9796 19.9997 16.45C19.7443 16.6794 19.47 16.8869 19.1797 17.07C18.7197 17.37 18.2297 17.63 17.7497 17.89C17.2697 18.15 16.5697 18.55 15.9597 18.83C15.5727 19.0208 15.1715 19.1813 14.7597 19.31C13.6508 19.63 12.5037 19.7982 11.3497 19.81C10.1849 19.8315 9.02207 19.7038 7.88968 19.43C7.69258 19.3811 7.50144 19.3106 7.31968 19.22C6.83968 19 6.38968 18.7 5.91968 18.48C5.83746 18.4403 5.74281 18.4348 5.65654 18.4648C5.57027 18.4948 5.49946 18.5578 5.45968 18.64C5.41989 18.7223 5.4144 18.8169 5.44441 18.9032C5.47441 18.9894 5.53746 19.0603 5.61968 19.1C6.07968 19.34 6.51968 19.66 6.98968 19.9C7.21428 20.0139 7.44853 20.1076 7.68968 20.18C8.87783 20.52 10.1043 20.7082 11.3397 20.74C12.5887 20.7753 13.8368 20.6407 15.0497 20.34C15.5168 20.2116 15.9745 20.0512 16.4197 19.86C17.0697 19.58 17.6797 19.24 18.2997 18.91C18.8171 18.6489 19.3211 18.3618 19.8097 18.05C20.1621 17.834 20.4965 17.5899 20.8097 17.32C21.4007 16.8024 21.9585 16.2479 22.4797 15.66C22.854 15.2563 23.1889 14.8176 23.4797 14.35C23.6502 14.0692 23.7973 13.7749 23.9197 13.47C24.0155 13.2149 24.053 12.9416 24.0297 12.67C23.9857 12.3125 23.859 11.9701 23.6597 11.67C23.419 11.3194 23.1551 10.9853 22.8697 10.67C22.4705 10.1822 22.036 9.72428 21.5697 9.30004C21.1079 8.87784 20.6239 8.4806 20.1197 8.11004L18.6997 7.29004L18.1697 7.77004Z" fill="black"/>
<path d="M18.6998 7.29003H18.7598L23.6898 2.73003C23.754 2.6646 23.7899 2.57664 23.7899 2.48503C23.7899 2.39341 23.754 2.30545 23.6898 2.24003C23.6233 2.17818 23.5357 2.1438 23.4448 2.1438C23.354 2.1438 23.2664 2.17818 23.1998 2.24003L16.0798 8.27003C15.1698 9.03003 14.2598 9.77003 13.3398 10.52C11.9698 11.64 10.5898 12.75 9.21985 13.88C8.21985 14.69 7.21985 15.51 6.29985 16.33C4.91985 17.51 3.56985 18.75 2.16985 19.92C1.57985 20.42 0.969848 20.92 0.359848 21.37C0.308514 21.4216 0.27695 21.4896 0.270684 21.562C0.264417 21.6345 0.283846 21.7069 0.32557 21.7665C0.367293 21.8261 0.428653 21.8692 0.498907 21.8881C0.56916 21.907 0.643831 21.9006 0.709848 21.87C1.35985 21.42 1.99985 21 2.61985 20.48C4.06985 19.37 5.47985 18.21 6.91985 17.1C7.32985 16.78 11.7198 13.35 12.9198 12.38C13.7798 11.68 15.9898 9.77003 15.9898 9.77003C16.2598 9.54003 16.5298 9.31003 16.7898 9.07003L18.1898 7.77003L18.6998 7.29003Z" fill="black"/>
<path d="M15.9295 11.3C16.0187 11.6493 16.0425 12.0121 15.9995 12.37C15.9584 12.7474 15.878 13.1194 15.7595 13.48C15.5614 14.0777 15.2601 14.6361 14.8695 15.13C14.5038 15.618 14.0274 16.0122 13.4795 16.28C12.6451 16.6656 11.7073 16.7674 10.8095 16.57C10.3767 16.4905 9.95415 16.363 9.54955 16.19C9.02955 15.87 8.36955 16.39 8.89955 16.72C9.43193 17.0483 10.0075 17.3007 10.6095 17.47C11.7243 17.7968 12.9156 17.7476 13.9995 17.33C14.7156 16.9885 15.3345 16.4728 15.7995 15.83C16.2518 15.207 16.5748 14.4998 16.7495 13.75C16.8787 13.2235 16.9359 12.6819 16.9195 12.14C16.9043 11.7641 16.8301 11.3929 16.6995 11.04L16.4395 10.57C15.9995 9.94002 15.5695 10.63 15.8295 11.07L15.9295 11.3Z" fill="black"/>
</g>
<defs>
<clipPath id="clip0_17_30324">
<rect width="24" height="24" fill="white"/>
</clipPath>
</defs>
</svg>
