<svg width="24" height="24" viewBox="0 0 24 24" fill="none" xmlns="http://www.w3.org/2000/svg">
<g clip-path="url(#clip0_17_30320)">
<path fill-rule="evenodd" clip-rule="evenodd" d="M23.6701 10.55C22.307 8.98862 20.6307 7.73141 18.7501 6.85999C16.9445 5.96199 15.0007 5.37379 13.0001 5.11999C12.0019 5.0069 10.993 5.02708 10.0001 5.17999C7.36889 5.55398 4.85625 6.51801 2.65012 7.99999C1.80656 8.55547 1.01649 9.18819 0.290122 9.88999C0.205852 9.97681 0.128922 10.0705 0.0601216 10.17C0.028175 10.2209 0.0112305 10.2799 0.0112305 10.34C0.0112305 10.4001 0.028175 10.459 0.0601216 10.51C0.0780832 10.5458 0.103049 10.5777 0.133544 10.6038C0.16404 10.6298 0.199445 10.6495 0.237667 10.6616C0.27589 10.6737 0.316154 10.678 0.35608 10.6743C0.396007 10.6706 0.434784 10.6589 0.470122 10.64C1.6087 9.44524 2.96678 8.481 4.47012 7.79999C5.42935 7.31258 6.43418 6.9207 7.47012 6.62999C8.36012 6.37435 9.26997 6.19372 10.1901 6.08999C11.0864 5.97479 11.9938 5.97479 12.8901 6.08999C14.7785 6.37849 16.6064 6.97652 18.3001 7.85999C19.9887 8.66575 21.5038 9.79353 22.7601 11.18C22.8479 11.332 22.8941 11.5045 22.8941 11.68C22.8941 11.8555 22.8479 12.028 22.7601 12.18C22.5597 12.599 22.2853 12.9784 21.9501 13.3C21.0368 14.244 20.0318 15.0948 18.9501 15.84C17.8558 16.5678 16.6729 17.1526 15.4301 17.58C14.6439 17.8336 13.8258 17.975 13.0001 18C11.7511 18.0246 10.5018 17.9678 9.26012 17.83C7.70755 17.5924 6.24129 16.9625 5.00012 16C3.7008 15.0642 2.59113 13.89 1.73012 12.54C1.70746 12.4996 1.67678 12.4642 1.63996 12.4361C1.60314 12.408 1.56097 12.3877 1.51602 12.3764C1.47106 12.3652 1.42429 12.3632 1.37857 12.3707C1.33284 12.3782 1.28913 12.395 1.25012 12.42C1.17352 12.4729 1.11965 12.5527 1.09926 12.6435C1.07887 12.7343 1.09346 12.8295 1.14012 12.91C2.02163 14.3552 3.16844 15.6208 4.52012 16.64C5.86848 17.7211 7.47401 18.4343 9.18012 18.71C10.4459 18.889 11.7219 18.9859 13.0001 19C13.8999 19.0047 14.7958 18.8801 15.6601 18.63C17.0038 18.2048 18.2851 17.6029 19.4701 16.84C20.6403 16.0693 21.7263 15.1777 22.7101 14.18C23.2581 13.669 23.6705 13.0299 23.9101 12.32C24.01 12.0265 24.0403 11.7139 23.9987 11.4067C23.957 11.0995 23.8446 10.8062 23.6701 10.55Z" fill="black"/>
<path fill-rule="evenodd" clip-rule="evenodd" d="M10.7101 9.13996C11.4931 8.8955 12.3242 8.84742 13.1301 8.99996C13.524 9.09549 13.8936 9.27197 14.2156 9.51816C14.5375 9.76436 14.8047 10.0749 15.0001 10.43C15.019 10.4662 15.045 10.4982 15.0764 10.5244C15.1078 10.5505 15.144 10.5702 15.1831 10.5823C15.2221 10.5944 15.2631 10.5986 15.3038 10.5948C15.3445 10.591 15.384 10.5791 15.4201 10.56C15.4915 10.52 15.5442 10.4534 15.5666 10.3747C15.5891 10.296 15.5796 10.2116 15.5401 10.14C15.327 9.69359 15.0231 9.29667 14.6477 8.97465C14.2722 8.65262 13.8337 8.4126 13.3601 8.26996C12.4254 8.00407 11.4396 7.97315 10.4901 8.17996C9.95651 8.31369 9.4632 8.57451 9.05225 8.94019C8.6413 9.30586 8.32492 9.76553 8.1301 10.28C7.71119 11.2916 7.71119 12.4283 8.1301 13.44C8.59701 14.4246 9.42919 15.1887 10.4501 15.57C11.4296 15.9519 12.5062 16.008 13.5201 15.73C14.4185 15.4688 15.1837 14.8752 15.6601 14.07C16.1391 13.2952 16.3597 12.3882 16.2901 11.48C16.284 11.4351 16.269 11.3919 16.246 11.3529C16.223 11.314 16.1924 11.28 16.1561 11.2529C16.1198 11.2259 16.0784 11.2065 16.0344 11.1956C15.9905 11.1848 15.9448 11.1829 15.9001 11.19C15.8544 11.1948 15.8101 11.2089 15.7699 11.2314C15.7298 11.2539 15.6947 11.2843 15.6666 11.3207C15.6386 11.3572 15.6182 11.399 15.6068 11.4435C15.5953 11.4881 15.5931 11.5345 15.6001 11.58C15.5984 12.2967 15.3749 12.9954 14.9601 13.58C14.5746 14.1746 13.9715 14.5946 13.2801 14.75C12.4739 14.9238 11.6332 14.8363 10.8801 14.5C10.1331 14.2391 9.51421 13.7024 9.1501 13C8.85549 12.2754 8.85549 11.4645 9.1501 10.74C9.26162 10.3671 9.46178 10.0269 9.73344 9.74822C10.0051 9.46959 10.3402 9.26089 10.7101 9.13996Z" fill="black"/>
</g>
<defs>
<clipPath id="clip0_17_30320">
<rect width="24" height="24" fill="white"/>
</clipPath>
</defs>
</svg>
