<svg width="24" height="24" viewBox="0 0 24 24" fill="none" xmlns="http://www.w3.org/2000/svg">
<path fill-rule="evenodd" clip-rule="evenodd" d="M20.9711 1.91992H3.02872C2.41635 1.91992 1.91992 2.41635 1.91992 3.02872V20.9711C1.91992 21.2652 2.03674 21.5472 2.24468 21.7552C2.45262 21.9631 2.73465 22.0799 3.02872 22.0799H12.6854V14.2679H10.0646V11.2439H12.6854V8.97592C12.5755 7.89808 12.9475 6.82678 13.7019 6.0491C14.4562 5.27143 15.5157 4.8669 16.5964 4.94392C17.381 4.93909 18.1651 4.97948 18.945 5.06488V7.78648H17.3423C16.0722 7.78648 15.8303 8.39128 15.8303 9.26824V11.2137H18.8543L18.4612 14.2377H15.8303V22.0799H20.9711C21.2652 22.0799 21.5472 21.9631 21.7552 21.7552C21.9631 21.5472 22.0799 21.2652 22.0799 20.9711V3.02872C22.0799 2.73465 21.9631 2.45262 21.7552 2.24468C21.5472 2.03674 21.2652 1.91992 20.9711 1.91992Z" fill="#78716C"/>
</svg>
