<svg width="24" height="24" viewBox="0 0 24 24" fill="none" xmlns="http://www.w3.org/2000/svg">
<path fill-rule="evenodd" clip-rule="evenodd" d="M17.3826 5.4076C16.8934 5.4076 16.4523 5.70231 16.2651 6.15431C16.0779 6.6063 16.1814 7.12657 16.5273 7.47252C16.8733 7.81846 17.3935 7.92195 17.8455 7.73473C18.2975 7.5475 18.5922 7.10644 18.5922 6.6172C18.5922 5.94916 18.0507 5.4076 17.3826 5.4076ZM22.0194 7.84696C21.9998 7.01062 21.8432 6.18316 21.5558 5.39752C21.2995 4.72532 20.9005 4.11663 20.3865 3.61336C19.8873 3.09669 19.2772 2.70029 18.6023 2.45416C17.8188 2.15797 16.9904 1.99775 16.1529 1.9804C15.0844 1.91992 14.7417 1.91992 11.9999 1.91992C9.25816 1.91992 8.91544 1.91992 7.84696 1.9804C7.00947 1.99775 6.18108 2.15797 5.39752 2.45416C4.72385 2.70278 4.11427 3.09884 3.61336 3.61336C3.09669 4.1125 2.70029 4.7226 2.45416 5.39752C2.15797 6.18108 1.99775 7.00947 1.9804 7.84696C1.91992 8.91544 1.91992 9.25816 1.91992 11.9999C1.91992 14.7417 1.91992 15.0844 1.9804 16.1529C1.99775 16.9904 2.15797 17.8188 2.45416 18.6023C2.70029 19.2772 3.09669 19.8873 3.61336 20.3865C4.11427 20.901 4.72385 21.2971 5.39752 21.5457C6.18108 21.8419 7.00947 22.0021 7.84696 22.0194C8.91544 22.0799 9.25816 22.0799 11.9999 22.0799C14.7417 22.0799 15.0844 22.0799 16.1529 22.0194C16.9904 22.0021 17.8188 21.8419 18.6023 21.5457C19.2772 21.2996 19.8873 20.9032 20.3865 20.3865C20.9028 19.8851 21.3021 19.2759 21.5558 18.6023C21.8432 17.8167 21.9998 16.9892 22.0194 16.1529C22.0194 15.0844 22.0799 14.7417 22.0799 11.9999C22.0799 9.25816 22.0799 8.91544 22.0194 7.84696ZM20.205 16.0319C20.1977 16.6718 20.0818 17.3057 19.8623 17.9068C19.7014 18.3455 19.4429 18.7419 19.1063 19.066C18.7794 19.3992 18.3838 19.6571 17.9471 19.822C17.3461 20.0415 16.7121 20.1574 16.0722 20.1647C15.0642 20.2151 14.6913 20.2252 12.0402 20.2252C9.3892 20.2252 9.01624 20.2252 8.00824 20.1647C7.34386 20.1772 6.68231 20.0749 6.05272 19.8623C5.63519 19.689 5.25777 19.4317 4.94392 19.1063C4.60936 18.7825 4.35408 18.3858 4.198 17.9471C3.95191 17.3374 3.81541 16.6891 3.7948 16.0319C3.7948 15.0239 3.73432 14.651 3.73432 11.9999C3.73432 9.34888 3.73432 8.97592 3.7948 7.96792C3.79932 7.31379 3.91874 6.66553 4.1476 6.05272C4.32506 5.62726 4.59744 5.24799 4.94392 4.94392C5.25017 4.59734 5.62864 4.32208 6.05272 4.13752C6.66715 3.91581 7.31474 3.79992 7.96792 3.7948C8.97592 3.7948 9.34888 3.73432 11.9999 3.73432C14.651 3.73432 15.0239 3.73432 16.0319 3.7948C16.6718 3.80214 17.3057 3.91803 17.9068 4.13752C18.3649 4.30752 18.776 4.58391 19.1063 4.94392C19.4366 5.25356 19.6948 5.63212 19.8623 6.05272C20.0864 6.66653 20.2023 7.31452 20.205 7.96792C20.2554 8.97592 20.2655 9.34888 20.2655 11.9999C20.2655 14.651 20.2554 15.0239 20.205 16.0319ZM11.9999 6.82888C9.14535 6.83445 6.83526 9.15206 6.83897 12.0066C6.84267 14.8612 9.15878 17.1728 12.0134 17.171C14.8679 17.1691 17.181 14.8545 17.181 11.9999C17.1837 10.6259 16.6384 9.30753 15.6659 8.3369C14.6934 7.36627 13.3739 6.82351 11.9999 6.82888ZM11.9999 15.3566C10.1461 15.3566 8.64328 13.8537 8.64328 11.9999C8.64328 10.1461 10.1461 8.64328 11.9999 8.64328C13.8537 8.64328 15.3566 10.1461 15.3566 11.9999C15.3566 12.8902 15.0029 13.7439 14.3734 14.3734C13.7439 15.0029 12.8902 15.3566 11.9999 15.3566Z" fill="#78716C"/>
</svg>
