<svg width="24" height="24" viewBox="0 0 24 24" fill="none" xmlns="http://www.w3.org/2000/svg">
<path d="M12 22.9819C18.0751 22.9819 23 18.0611 23 11.991C23 5.92082 18.0751 1 12 1C5.92487 1 1 5.92082 1 11.991C1 18.0611 5.92487 22.9819 12 22.9819Z" fill="white"/>
<path d="M12 1C5.9251 1 1 5.92105 1 11.991C1 16.6497 3.89712 20.6299 7.9893 22.2311C7.88971 21.3627 7.80823 20.0238 8.02551 19.074C8.22469 18.2146 9.31111 13.6102 9.31111 13.6102C9.31111 13.6102 8.98518 12.9498 8.98518 11.9819C8.98518 10.4531 9.87243 9.31332 10.977 9.31332C11.9185 9.31332 12.3712 10.0189 12.3712 10.8602C12.3712 11.801 11.7737 13.2122 11.4568 14.5238C11.1942 15.6184 12.0091 16.514 13.0864 16.514C15.042 16.514 16.5449 14.4515 16.5449 11.4844C16.5449 8.85197 14.6527 7.01562 11.9457 7.01562C8.81317 7.01562 6.97531 9.35855 6.97531 11.7829C6.97531 12.7237 7.33745 13.7368 7.79012 14.2887C7.88066 14.3972 7.88971 14.4967 7.86255 14.6053C7.78107 14.949 7.59095 15.6998 7.55473 15.8536C7.50946 16.0526 7.39177 16.0979 7.18354 15.9984C5.80741 15.3561 4.94732 13.3569 4.94732 11.7377C4.94732 8.27303 7.4642 5.08882 12.2173 5.08882C16.0288 5.08882 18.9984 7.80263 18.9984 11.4391C18.9984 15.2294 16.6082 18.278 13.2946 18.278C12.1811 18.278 11.1309 17.699 10.7778 17.0115C10.7778 17.0115 10.2255 19.1102 10.0897 19.6258C9.84527 20.5847 9.17531 21.7788 8.72263 22.5115C9.75473 22.8281 10.8412 23 11.9819 23C18.0568 23 22.9819 18.0789 22.9819 12.009C23 5.92105 18.0749 1 12 1Z" fill="#78716C"/>
</svg>
