<svg width="24" height="24" viewBox="0 0 24 24" fill="none" xmlns="http://www.w3.org/2000/svg">
<path fill-rule="evenodd" clip-rule="evenodd" d="M22.0799 5.71724C21.3222 6.04768 20.521 6.26612 19.701 6.36577C20.5661 5.84625 21.2143 5.02896 21.5255 4.0655C20.7126 4.55197 19.8228 4.89471 18.8946 5.07884C17.6187 3.68782 15.569 3.3392 13.9089 4.23087C12.2488 5.12253 11.3977 7.02921 11.8386 8.8687C8.51462 8.69969 5.41841 7.11944 3.32104 4.5215C2.95729 5.16007 2.76616 5.88324 2.76664 6.6191C2.76402 8.00708 3.4527 9.30423 4.6012 10.0746C3.94396 10.0566 3.30077 9.8793 2.72632 9.55777V9.60844C2.73648 11.5824 4.12687 13.2766 6.05272 13.6618C5.69312 13.7718 5.31978 13.8298 4.94392 13.834C4.68375 13.831 4.42422 13.8073 4.16776 13.7631C4.71307 15.4515 6.26295 16.6068 8.0284 16.641C6.57406 17.7914 4.77849 18.4192 2.92792 18.4244C2.59098 18.4255 2.25431 18.4052 1.91992 18.3636C3.80935 19.59 6.01121 20.2411 8.26024 20.2383C11.3954 20.271 14.412 19.0356 16.6319 16.8097C18.8517 14.5838 20.0884 11.5544 20.0639 8.40257C20.0639 8.2303 20.0639 8.0479 20.0639 7.8655C20.8549 7.27251 21.5371 6.54556 22.0799 5.71724Z" fill="#78716C"/>
</svg>
