<svg width="22" height="24" viewBox="0 0 22 24" fill="none" xmlns="http://www.w3.org/2000/svg">
<path fill-rule="evenodd" clip-rule="evenodd" d="M11.2762 15.5911C10.9992 14.9281 9.15915 15.5361 8.40215 17.2961C7.96801 18.2622 7.82791 19.3346 7.99934 20.3798C8.17078 21.4249 8.64615 22.3964 9.36615 23.1731C9.7464 23.4485 10.1861 23.6305 10.6498 23.7045C11.1134 23.7784 11.5879 23.7423 12.035 23.5988C12.482 23.4554 12.8891 23.2088 13.2232 22.879C13.5572 22.5492 13.809 22.1453 13.9582 21.7001C14.1703 20.7782 14.1965 19.8233 14.0352 18.8911C13.874 17.9589 13.5286 17.0682 13.0192 16.2711C12.6042 15.8121 11.6652 15.2821 11.2762 15.5911ZM11.1402 16.0861C10.7311 16.1612 10.3522 16.3521 10.0485 16.6363C9.7448 16.9205 9.52914 17.2859 9.42715 17.6891C9.15541 18.4231 9.07955 19.2152 9.20702 19.9875C9.3345 20.7597 9.66093 21.4854 10.1542 22.0931C10.3683 22.2433 10.6143 22.3417 10.8729 22.3806C11.1315 22.4195 11.3955 22.3979 11.6444 22.3174C11.8932 22.237 12.1199 22.0999 12.3068 21.917C12.4936 21.734 12.6355 21.5102 12.7212 21.2631C13.0522 20.3801 13.0962 16.7711 11.4582 16.3571C11.3863 16.3432 11.3193 16.3109 11.2636 16.2634C11.2078 16.2159 11.1653 16.1549 11.1402 16.0861Z" fill="black"/>
<path fill-rule="evenodd" clip-rule="evenodd" d="M12.0191 0.33707C11.8191 -0.12093 10.5881 -0.0529298 9.94109 0.19107C8.34914 1.16221 7.09065 2.5951 6.33309 4.29907C3.14109 10.2061 2.55309 13.5171 9.07909 14.0331C11.5631 14.2101 14.0591 13.9551 16.4561 13.2791C17.0295 13.1075 17.5199 12.7313 17.8343 12.222C18.1486 11.7126 18.2649 11.1055 18.1611 10.5161C17.9291 8.66807 13.6241 -0.52793 12.0191 0.33707ZM11.8191 0.87307C11.7335 0.915466 11.6355 0.925413 11.5431 0.90107C8.38609 0.25007 5.27409 9.22007 5.32009 10.7181C5.40209 13.5471 14.0781 12.8231 15.9491 12.0601C16.6391 11.7841 16.9631 11.4641 16.8791 10.6511C16.4712 9.10498 15.9164 7.60146 15.2221 6.16107C12.5021 0.14207 12.0631 1.52607 11.8201 0.87407L11.8191 0.87307Z" fill="black"/>
<path fill-rule="evenodd" clip-rule="evenodd" d="M11.4599 9.17902C11.2099 8.47702 8.9739 9.00702 9.5459 10.712C9.63301 10.9755 9.79747 11.2066 10.0178 11.3752C10.2382 11.5439 10.5043 11.6422 10.7813 11.6574C11.0584 11.6726 11.3336 11.604 11.5712 11.4605C11.8087 11.3171 11.9975 11.1054 12.1129 10.853C12.5189 9.87802 11.8749 9.18702 11.4609 9.17902H11.4599Z" fill="black"/>
<path fill-rule="evenodd" clip-rule="evenodd" d="M11.3389 8.04904C12.5159 2.61704 9.33889 -0.240959 10.5099 8.01904C10.506 8.07457 10.5134 8.1303 10.5315 8.18292C10.5496 8.23555 10.5781 8.28399 10.6154 8.32537C10.6526 8.36675 10.6978 8.40021 10.7482 8.42378C10.7986 8.44734 10.8533 8.46052 10.9089 8.46254C10.9645 8.46455 11.02 8.45535 11.072 8.43549C11.124 8.41564 11.1714 8.38552 11.2115 8.34694C11.2517 8.30837 11.2836 8.26211 11.3055 8.21093C11.3274 8.15976 11.3387 8.1047 11.3389 8.04904Z" fill="black"/>
<path fill-rule="evenodd" clip-rule="evenodd" d="M18.9182 21.4321C19.1612 23.4721 19.1482 24.0521 19.6722 23.9971C20.1972 23.9411 20.0012 23.5821 19.9482 21.2891C20.7782 21.1561 21.7062 21.1811 21.6402 20.5951C21.5732 20.0101 20.8272 20.2391 19.9302 20.2971C19.8882 18.0341 19.8962 18.0871 19.7832 16.0581C19.6172 13.5501 14.4452 19.3931 15.1032 20.8021C15.5532 21.7281 17.8852 21.5461 18.9182 21.4321ZM18.7962 20.3551C18.6862 19.2501 18.6472 18.6201 18.5592 17.4291C17.8564 18.096 17.2535 18.8609 16.7692 19.7001C16.3092 20.5951 16.2792 20.2141 17.0452 20.2941C17.6262 20.3541 18.2122 20.3721 18.7962 20.3471V20.3551Z" fill="black"/>
<path fill-rule="evenodd" clip-rule="evenodd" d="M4.35106 21.07C4.57206 22.952 4.55606 23.833 5.12206 23.78C5.68906 23.728 5.44806 23.303 5.39906 20.999C6.27706 20.929 7.15906 20.977 7.09206 20.379C7.03406 19.866 6.54006 20.026 5.37906 20.012C5.34106 17.829 5.34306 17.846 5.23606 15.842C5.2282 15.7262 5.1902 15.6144 5.1258 15.5178C5.06141 15.4211 4.97287 15.343 4.86896 15.2911C4.76506 15.2393 4.6494 15.2155 4.53347 15.2222C4.41754 15.2288 4.30536 15.2656 4.20806 15.329C2.66492 16.7774 1.37182 18.4709 0.381057 20.341C0.354359 20.4388 0.350218 20.5413 0.368946 20.6409C0.387675 20.7405 0.428784 20.8346 0.489169 20.9159C0.549554 20.9973 0.627638 21.0639 0.717527 21.1107C0.807415 21.1575 0.906758 21.1833 1.00806 21.186C1.00806 21.186 2.73206 21.159 4.35106 21.07ZM4.23306 19.993C4.13606 18.984 4.11306 18.611 4.02006 17.346C3.32877 18.1711 2.68314 19.0334 2.08606 19.929C2.68806 19.951 3.46706 19.976 4.23306 19.993Z" fill="black"/>
</svg>
