<svg width="24" height="24" viewBox="0 0 24 24" fill="none" xmlns="http://www.w3.org/2000/svg">
<g clip-path="url(#clip0_377_1288)">
<path fill-rule="evenodd" clip-rule="evenodd" d="M10.94 6.86C10.9585 5.59664 10.8883 4.33353 10.73 3.08C10.6979 2.67082 10.6445 2.2636 10.57 1.86C10.19 0.389998 8.52999 0.669998 7.48999 0.599998C6.04999 0.489998 0.589989 0.759998 0.489989 1.11C0.471188 1.18682 0.482461 1.26793 0.5215 1.33671C0.560539 1.40549 0.624392 1.45675 0.699989 1.48C0.829989 1.48 5.62999 1.23 7.40999 1.48C8.20999 1.58 9.06999 1.43 9.54999 1.91C9.76999 2.13 9.94999 9.7 9.94999 9.8C6.41999 10.52 1.32999 10.32 1.15999 10C0.799989 9.28 0.819989 6.72 0.779989 4.51C0.859989 1.77 0.939989 1.7 0.559989 1.73C0.0699887 1.58 0.149989 2.16 0.139989 2.73C-0.00434518 5.03441 -0.00434518 7.34559 0.139989 9.65C0.239989 10.32 0.469989 10.81 1.05999 11C1.64999 11.19 8.99999 11.72 10.61 10.82C11.34 10.36 11.09 9.54 10.94 6.86Z" fill="black"/>
<path fill-rule="evenodd" clip-rule="evenodd" d="M1.73992 6.14C1.70058 6.61825 1.79037 7.0983 1.99992 7.53C2.06216 7.62939 2.14385 7.71518 2.24008 7.7822C2.33632 7.84922 2.44511 7.89609 2.55992 7.92C3.41992 8.14 8.06992 8.29 8.88992 7.82C8.98863 7.76661 9.07349 7.69087 9.13774 7.59885C9.20198 7.50683 9.24382 7.40107 9.25992 7.29C9.29116 6.69548 9.26437 6.09932 9.17992 5.51C9.18477 4.81589 9.12451 4.12285 8.99992 3.44C8.94992 3.12 8.99992 2.56 8.57992 2.26C8.01337 1.95815 7.36494 1.84599 6.72992 1.94C5.58992 1.89 4.52992 2.05 3.39992 2.09C3.47992 2.09 2.16992 2.02 2.08992 2.4C1.73994 3.61372 1.62122 4.88241 1.73992 6.14ZM2.67992 2.72C5.67992 2.84 5.39992 2.58 7.88992 3C7.88992 3 8.06992 6.77 8.10992 6.87C8.14992 6.97 8.10992 6.87 5.17992 7.04C4.35373 7.10113 3.52371 7.08775 2.69992 7C2.6058 6.69581 2.56189 6.37832 2.56992 6.06C2.56992 6.14 2.56992 2.88 2.47992 2.73L2.67992 2.72Z" fill="black"/>
<path fill-rule="evenodd" clip-rule="evenodd" d="M13.9201 11C14.4001 11.15 21.8601 11.72 23.4801 10.82C24.2501 10.4 24.0001 9.58 23.8401 6.9C23.8638 5.63654 23.7936 4.37306 23.6301 3.12C23.603 2.71031 23.5496 2.3028 23.4701 1.9C23.0901 0.389998 21.4301 0.669998 20.3901 0.599998C18.9501 0.489998 13.4901 0.759998 13.3901 1.11C13.3779 1.1474 13.3734 1.1869 13.3769 1.22608C13.3804 1.26527 13.3919 1.30333 13.4106 1.33794C13.4293 1.37256 13.4549 1.403 13.4857 1.42742C13.5166 1.45184 13.5521 1.46973 13.5901 1.48C13.7301 1.48 18.5301 1.23 20.3001 1.48C21.1001 1.58 21.9601 1.43 22.4401 1.91C22.6601 2.13 22.8401 9.7 22.8401 9.8C19.3101 10.52 14.2301 10.32 14.0501 10C13.6901 9.32 13.7101 6.76 13.6701 4.55C13.7501 1.81 13.8301 1.74 13.4601 1.77C12.9601 1.62 13.0401 2.2 13.0301 2.77C12.891 5.07457 12.891 7.38543 13.0301 9.69C13.1001 10.28 13.3301 10.77 13.9201 11Z" fill="black"/>
<path fill-rule="evenodd" clip-rule="evenodd" d="M14.6398 6.14C14.59 6.61366 14.6623 7.09219 14.8498 7.53C14.914 7.62971 14.9975 7.71557 15.0954 7.78254C15.1933 7.84952 15.3036 7.89625 15.4198 7.92C16.2698 8.14 20.9198 8.29 21.7398 7.82C21.8389 7.76596 21.9246 7.69023 21.9904 7.59846C22.0562 7.50669 22.1004 7.40125 22.1198 7.29C22.124 6.69451 22.0839 6.09953 21.9998 5.51C22.0097 4.81696 21.9595 4.12437 21.8498 3.44C21.7898 3.12 21.8498 2.56 21.4198 2.26C20.8532 1.95815 20.2048 1.84599 19.5698 1.94C18.4298 1.89 17.3798 2.05 16.2498 2.09C16.3298 2.09 15.0198 2.02 14.9298 2.4C14.6 3.61754 14.5016 4.88617 14.6398 6.14ZM15.5898 2.72C18.5898 2.84 18.3098 2.58 20.7998 3C20.7998 3 20.9798 6.77 21.0098 6.87C21.0398 6.97 21.0098 6.87 18.0798 7.04C17.2536 7.10113 16.4236 7.08775 15.5998 7C15.5105 6.69474 15.4667 6.37801 15.4698 6.06C15.4698 6.14 15.4698 2.88 15.3798 2.73L15.5898 2.72Z" fill="black"/>
<path fill-rule="evenodd" clip-rule="evenodd" d="M10.94 19C10.9585 17.7366 10.8883 16.4735 10.73 15.22C10.6979 14.8108 10.6445 14.4036 10.57 14C10.19 12.53 8.56999 12.82 7.48999 12.74C6.04999 12.63 0.589989 12.91 0.489989 13.25C0.471188 13.3268 0.482461 13.4079 0.5215 13.4767C0.560539 13.5455 0.624392 13.5968 0.699989 13.62C0.829989 13.62 5.62999 13.38 7.40999 13.62C8.20999 13.71 9.06999 13.56 9.54999 14.04C9.76999 14.26 9.94999 21.83 9.94999 21.94C6.41999 22.65 1.32999 22.45 1.15999 22.13C0.799989 21.44 0.819989 18.87 0.779989 16.66C0.859989 13.93 0.939989 13.85 0.559989 13.88C0.0699887 13.73 0.149989 14.32 0.139989 14.88C-0.00434518 17.1844 -0.00434518 19.4956 0.139989 21.8C0.239989 22.47 0.469989 22.96 1.05999 23.15C1.64999 23.34 8.99999 23.87 10.61 22.98C11.33 22.52 11.1 21.8 10.94 19Z" fill="black"/>
<path fill-rule="evenodd" clip-rule="evenodd" d="M1.73996 18.3C1.70145 18.775 1.79124 19.2516 1.99996 19.68C2.0622 19.7794 2.14389 19.8652 2.24013 19.9322C2.33636 19.9992 2.44515 20.0461 2.55996 20.07C3.41996 20.29 8.06996 20.45 8.88996 19.98C9.45996 19.64 9.27996 18.98 9.17996 17.66C9.18482 16.9659 9.12455 16.2729 8.99996 15.59C8.94996 15.27 8.99996 14.71 8.57996 14.42C8.01676 14.1084 7.36615 13.9924 6.72996 14.09C5.58996 14.04 4.52996 14.21 3.39996 14.24C3.47996 14.24 2.16996 14.17 2.08996 14.55C1.7399 15.7671 1.62119 17.0391 1.73996 18.3ZM2.67996 14.87C5.67996 14.99 5.40996 14.74 7.88996 15.15C7.88996 15.15 8.06996 18.92 8.10996 19.03C8.14996 19.14 5.27996 19.19 5.17996 19.19C4.35548 19.275 3.52444 19.275 2.69996 19.19C2.60864 18.8852 2.5648 18.5681 2.56996 18.25C2.56996 18.33 2.56996 15.08 2.47996 14.92L2.67996 14.87Z" fill="black"/>
<path fill-rule="evenodd" clip-rule="evenodd" d="M23.8401 19C23.8635 17.7365 23.7933 16.4731 23.6301 15.22C23.603 14.8103 23.5496 14.4028 23.4701 14C23.0901 12.53 21.4701 12.82 20.3901 12.74C18.9501 12.63 13.4901 12.91 13.3901 13.25C13.3779 13.2874 13.3734 13.3269 13.3769 13.3661C13.3804 13.4053 13.3919 13.4433 13.4106 13.4779C13.4293 13.5126 13.4549 13.543 13.4857 13.5674C13.5166 13.5918 13.5521 13.6097 13.5901 13.62C13.7301 13.62 18.5301 13.38 20.3001 13.62C21.1001 13.71 21.9701 13.56 22.4401 14.04C22.6601 14.26 22.8401 21.83 22.8401 21.94C19.3101 22.65 14.2301 22.45 14.0501 22.13C13.6901 21.46 13.7101 18.9 13.6701 16.68C13.7501 13.95 13.8301 13.87 13.4601 13.9C12.9601 13.75 13.0401 14.34 13.0301 14.9C12.891 17.2046 12.891 19.5154 13.0301 21.82C13.1401 22.5 13.3701 22.98 13.9501 23.17C14.5301 23.36 21.8901 23.89 23.5101 23C24.2301 22.52 24.0001 21.8 23.8401 19Z" fill="black"/>
<path fill-rule="evenodd" clip-rule="evenodd" d="M14.6401 18.3C14.5911 18.7704 14.6634 19.2455 14.8501 19.68C14.9143 19.7797 14.9978 19.8656 15.0957 19.9325C15.1936 19.9995 15.3039 20.0463 15.4201 20.07C16.2701 20.29 20.9201 20.45 21.7401 19.98C22.3201 19.64 22.1301 18.98 22.0401 17.66C22.0499 16.967 21.9997 16.2744 21.8901 15.59C21.8301 15.27 21.8901 14.71 21.4601 14.42C20.8801 13.98 20.2701 14.12 19.6101 14.09C18.4701 14.04 17.4201 14.21 16.2901 14.24C16.3701 14.24 15.0601 14.17 14.9701 14.55C14.6267 15.7684 14.5148 17.0404 14.6401 18.3ZM15.5901 14.87C18.5901 14.99 18.3101 14.74 20.8001 15.15C20.8001 15.15 20.9801 18.92 21.0101 19.03C21.0401 19.14 18.1801 19.19 18.0801 19.19C17.2556 19.275 16.4245 19.275 15.6001 19.19C15.5087 18.8852 15.4649 18.5681 15.4701 18.25C15.4701 18.33 15.4701 15.08 15.3801 14.92L15.5901 14.87Z" fill="black"/>
</g>
<defs>
<clipPath id="clip0_377_1288">
<rect width="24" height="24" fill="white"/>
</clipPath>
</defs>
</svg>
