<svg width="100" height="100" viewBox="0 0 100 100" fill="none" xmlns="http://www.w3.org/2000/svg">
<g clip-path="url(#clip0_565_1041)">
<path d="M26.4999 56.3751C21.9062 57.4148 17.2098 57.932 12.4999 57.9167H11.6666C10.2985 54.7326 9.49481 51.3347 9.29157 47.8751C4.79157 27.0417 4.33324 27.4167 9.29157 25.9167C16.9166 23.5834 21.3749 23.6667 22.4999 19.7084C22.4999 19.2084 25.0832 11.3751 25.2916 10.4167L36.7499 8.33341C39.2916 11.5834 41.4999 15.7084 43.0416 16.1667C49.2629 16.1255 55.4733 15.6381 61.6249 14.7084C66.6249 18.0834 67.4999 26.8751 69.1249 34.5834C69.1746 34.9481 69.3672 35.2781 69.6602 35.5008C69.9533 35.7235 70.3227 35.8206 70.6874 35.7709C71.0521 35.7212 71.3821 35.5286 71.6048 35.2356C71.8275 34.9426 71.9246 34.5731 71.8749 34.2084C70.5416 26.4584 69.8749 16.3334 63.5416 11.8334C61.2916 10.2084 44.1666 12.1667 44.5416 12.1251C39.9999 6.00008 40.3749 3.79175 35.6666 3.79175C31.4521 4.34569 27.277 5.16678 23.1666 6.25008C20.8332 7.50008 18.9999 14.0417 18.3749 16.6667C17.4582 13.7084 17.2082 11.7917 15.2082 11.0834C10.4954 11.2298 5.87244 12.4104 1.66657 14.5417C-1.12509 16.6667 -9.2909e-05 19.8751 2.08324 24.5001C-9.2909e-05 26.6667 1.37491 31.0834 2.08324 34.2917C8.33324 57.8334 6.45824 53.2917 7.41657 56.2501C8.58324 59.9167 9.95824 61.0001 13.6249 60.9167C18.1335 60.5725 22.6066 59.8618 26.9999 58.7917C27.2773 58.6859 27.5079 58.4848 27.6505 58.2244C27.7932 57.964 27.8385 57.6614 27.7783 57.3706C27.7182 57.0799 27.5565 56.8201 27.3223 56.6377C27.088 56.4553 26.7965 56.3622 26.4999 56.3751ZM3.91657 18.8751C3.91657 17.0417 11.5832 16.4167 13.7916 15.0001C14.6842 16.3142 15.4515 17.7092 16.0832 19.1667C12.1709 20.1083 8.32835 21.3195 4.58324 22.7917C4.22474 21.5414 4.00124 20.2563 3.91657 18.9584V18.8751Z" fill="#78716C"/>
<path d="M99.4583 61.5001C98.3333 56.9584 97.0416 56.2918 93.9999 55.1251C95.2916 51.7501 97.4166 48.6251 93.7499 46.7918C91.6996 46.1947 89.6116 45.7353 87.4999 45.4168C86.8777 45.3401 86.2475 45.472 85.7083 45.7918C85.0804 46.3932 84.633 47.158 84.4166 48.0001C84.018 49.3508 83.8628 50.7617 83.9583 52.1668L79.7916 50.9168C77.5833 43.1668 78.8749 41.6668 74.9999 40.0834C70.3738 38.6522 65.5501 37.9631 60.7083 38.0418C58.5833 38.9168 57.8749 41.0418 54.2083 45.6251C54.7083 40.7918 55.2499 39.1251 53.6249 37.6251C52.6249 36.7084 39.7499 33.4584 37.5833 36.8751C36.5511 39.5977 36.1245 42.5125 36.3333 45.4168C33.4583 46.7501 32.7083 53.3751 29.9999 68.4584C29.4166 71.8751 27.2916 76.5418 28.5416 80.3751C29.7916 84.2084 40.4583 86.1668 45.5833 87.2501C88.2916 96.4584 82.7916 95.5834 85.3749 95.8751C87.2211 96.2958 89.1555 96.0752 90.8595 95.2497C92.5636 94.4242 93.9357 93.0429 94.7499 91.3334C95.8749 89.1251 96.0833 87.8751 99.2083 72.7084C100.185 69.0458 100.271 65.2026 99.4583 61.5001ZM87.4999 48.5001C88.8491 49.0289 90.2438 49.4334 91.6666 49.7084C92.9166 49.7084 91.2916 54.2501 91.2916 54.2501L86.1249 52.6668C86.3928 51.2221 86.8553 49.8204 87.4999 48.5001ZM40.1249 40.5001C40.7916 38.6668 47.3749 41.4168 50.7083 40.8334C51.0833 42.2501 50.7083 39.8334 51.2916 46.1668C47.3137 45.4346 43.2905 44.9752 39.2499 44.7918V43.5001C39.5416 42.6668 39.7499 41.6668 40.1249 40.5001ZM93.2083 80.3751C92.2499 83.7918 91.7499 89.7501 89.0416 91.2084C86.8749 92.2501 78.8749 89.5834 76.5416 89.0418C43.2083 82.0418 37.0833 80.7084 33.7499 79.2918C31.7083 78.3334 32.3333 79.8751 38.2499 48.5001C41.6666 47.1668 51.4999 50.1251 55.2916 49.0001C57.2083 48.4168 60.5833 41.1668 62.3333 40.6668C66.8504 40.6839 71.3216 41.5753 75.4999 43.2918C75.8749 44.6668 76.6249 49.4168 77.0833 51.6251C77.9999 55.2918 83.9583 54.5834 95.1666 59.7084C97.8749 64.4584 94.9166 73.1251 93.2083 80.3751Z" fill="#78716C"/>
<path d="M28.1666 42.0002C26.625 39.4585 26.25 33.6669 28.625 31.7502C30.2689 30.1881 32.3452 29.1573 34.5833 28.7919C36.8001 28.3481 39.1024 28.7023 41.0833 29.7919C41.354 30.0405 41.7125 30.1714 42.0797 30.1558C42.447 30.1401 42.793 29.9793 43.0416 29.7085C43.2903 29.4378 43.4212 29.0794 43.4055 28.7121C43.3899 28.3448 43.229 27.9988 42.9583 27.7502C40.5325 25.6681 37.4013 24.5945 34.2083 24.7502C31.0532 24.9318 28.0418 26.1305 25.625 28.1669C21.4583 32.0835 22.8333 39.7919 26.2083 43.5002C26.2937 43.6601 26.4129 43.7996 26.5576 43.9089C26.7023 44.0182 26.869 44.0947 27.0463 44.1331C27.2235 44.1714 27.4069 44.1708 27.5839 44.1312C27.7608 44.0916 27.9271 44.014 28.071 43.9037C28.215 43.7935 28.3332 43.6532 28.4175 43.4927C28.5019 43.3321 28.5503 43.1552 28.5594 42.9741C28.5684 42.793 28.538 42.6121 28.4702 42.4439C28.4024 42.2757 28.2988 42.1243 28.1666 42.0002Z" fill="#78716C"/>
<path d="M66.6666 57.6251C66.5353 57.5349 66.3874 57.4713 66.2316 57.4382C66.0757 57.405 65.9148 57.4029 65.7581 57.4319C65.6014 57.4609 65.452 57.5205 65.3183 57.6073C65.1846 57.6941 65.0694 57.8063 64.9791 57.9376C64.8888 58.069 64.8253 58.2168 64.7921 58.3727C64.7589 58.5285 64.7568 58.6894 64.7858 58.8461C64.8149 59.0028 64.8745 59.1523 64.9612 59.2859C65.048 59.4196 65.1603 59.5349 65.2916 59.6251C67.3788 60.7827 68.9762 62.6571 69.7881 64.9015C70.6001 67.1459 70.5717 69.6084 69.7082 71.8335C69.1202 72.9038 68.3041 73.8319 67.3177 74.5519C66.3312 75.2719 65.1986 75.7663 63.9999 76.0001C51.4999 78.6668 48.7082 64.5835 55.6666 60.6668C56.9166 60.0001 60.9166 60.1668 61.2082 58.4168C61.2446 58.2389 61.2454 58.0556 61.2106 57.8774C61.1757 57.6992 61.1059 57.5296 61.0052 57.3786C60.9045 57.2275 60.7748 57.0978 60.6237 56.9971C60.4727 56.8964 60.3031 56.8266 60.1249 56.7918C58.3784 56.6592 56.6247 56.9302 54.9997 57.5839C53.3746 58.2376 51.9218 59.2564 50.7536 60.5616C49.5854 61.8667 48.7332 63.4232 48.2629 65.1104C47.7927 66.7977 47.7169 68.5706 48.0416 70.2918C51.4999 86.2085 71.2499 82.1668 73.4166 73.0418C74.2679 70.0883 74.0591 66.93 72.8262 64.1143C71.5934 61.2985 69.4143 59.0029 66.6666 57.6251Z" fill="#78716C"/>
<path d="M13.2498 30.6667C13.1006 30.3794 12.8434 30.1631 12.5347 30.0654C12.2261 29.9678 11.8913 29.9967 11.604 30.1459C11.3166 30.2951 11.1004 30.5523 11.0027 30.8609C10.905 31.1696 10.9339 31.5044 11.0831 31.7917C12.6248 35.9584 10.8748 41.9584 15.5831 50.625C15.7213 50.9676 15.9898 51.2413 16.3297 51.3858C16.6696 51.5304 17.0531 51.534 17.3956 51.3959C17.7382 51.2577 18.0119 50.9892 18.1564 50.6493C18.301 50.3094 18.3046 49.9259 18.1665 49.5834C16.6665 44.1667 18.2498 37.5 13.2498 30.6667Z" fill="#78716C"/>
<path d="M41.6666 55.1667C41.3749 59.7084 37.4999 64.4584 38.4166 74.25C38.4166 74.6147 38.5614 74.9644 38.8193 75.2223C39.0772 75.4802 39.4269 75.625 39.7916 75.625C40.1562 75.625 40.506 75.4802 40.7638 75.2223C41.0217 74.9644 41.1666 74.6147 41.1666 74.25C41.9582 68.625 45.9999 63.1667 44.0832 54.9167C44.0668 54.758 44.0193 54.6041 43.9434 54.4638C43.8675 54.3235 43.7647 54.1995 43.6409 54.0989C43.5171 53.9983 43.3747 53.9231 43.2218 53.8775C43.0689 53.8319 42.9086 53.8169 42.7499 53.8334C42.5912 53.8498 42.4373 53.8973 42.297 53.9732C42.1567 54.0491 42.0327 54.1518 41.9321 54.2757C41.8315 54.3995 41.7563 54.5419 41.7107 54.6948C41.6652 54.8476 41.6502 55.008 41.6666 55.1667Z" fill="#78716C"/>
<path d="M52.2498 27.125C49.7081 22.9583 50.4165 21.5833 48.9165 21.6667C48.756 21.6662 48.5972 21.699 48.4499 21.7627C48.3026 21.8265 48.1701 21.92 48.0606 22.0373C47.9511 22.1546 47.867 22.2933 47.8135 22.4446C47.76 22.5959 47.7383 22.7566 47.7498 22.9167C48.0307 24.7819 48.4627 26.6213 49.0415 28.4167C49.3208 29.2573 49.8609 29.9871 50.5831 30.5C51.8748 31.1667 61.8331 31.0417 63.0831 27.625C63.3762 24.4998 62.6292 21.3654 60.9581 18.7083C60.6999 18.4188 60.3758 18.1958 60.0132 18.058C59.6506 17.9202 59.2601 17.8717 58.8748 17.9167C56.6909 18.0812 54.5357 18.5151 52.4581 19.2083C52.2783 19.2475 52.1081 19.3225 51.9578 19.4287C51.8074 19.5349 51.6799 19.6702 51.5829 19.8265C51.4858 19.9829 51.4211 20.1572 51.3926 20.3391C51.3641 20.5209 51.3725 20.7067 51.4171 20.8853C51.4617 21.0638 51.5418 21.2316 51.6525 21.3787C51.7632 21.5258 51.9023 21.6491 52.0616 21.7414C52.2208 21.8337 52.397 21.8931 52.5796 21.916C52.7623 21.939 52.9477 21.925 53.1248 21.875C54.7768 21.6046 56.4525 21.5068 58.1248 21.5833C58.3875 22.8608 58.5546 24.156 58.6248 25.4583C57.2607 25.8774 55.8682 26.1977 54.4581 26.4167C53.7498 26.5833 52.8331 27 52.2498 27.125Z" fill="#78716C"/>
<path d="M91 61.0417C88.9345 60.3493 86.7949 59.9018 84.625 59.7084C84.4442 59.6789 84.2593 59.6858 84.0811 59.7287C83.903 59.7717 83.7353 59.8498 83.5878 59.9585C83.4403 60.0672 83.316 60.2042 83.2222 60.3616C83.1284 60.519 83.067 60.6936 83.0417 60.8751C82.7083 62.7917 84.8333 62.2084 88.875 64.1251C88.6204 65.4126 88.2723 66.6798 87.8333 67.9167C86.432 67.7607 85.0408 67.5242 83.6667 67.2084C82.9167 67.2084 81.875 67.2084 81.2917 66.9584C81.1409 65.3787 81.1409 63.7881 81.2917 62.2084C81.3781 61.9063 81.3476 61.5827 81.2063 61.3021C81.0649 61.0215 80.823 60.8044 80.5288 60.694C80.2346 60.5837 79.9096 60.5882 79.6186 60.7067C79.3276 60.8252 79.0918 61.0489 78.9583 61.3334C78.5037 63.1669 78.1971 65.0341 78.0417 66.9167C77.9285 67.7931 78.1357 68.6809 78.625 69.4167C80.0594 70.3856 81.633 71.1302 83.2917 71.6251C85.5833 72.3751 89.5833 73.4167 91.1667 71.6251C92.6581 68.8316 93.1854 65.6239 92.6667 62.5001C92.5096 62.1518 92.2794 61.8413 91.9919 61.5897C91.7043 61.3381 91.3661 61.1512 91 61.0417Z" fill="#78716C"/>
</g>
<defs>
<clipPath id="clip0_565_1041">
<rect width="100" height="100" fill="white"/>
</clipPath>
</defs>
</svg>
