<svg width="571" height="253" viewBox="0 0 571 253" fill="none" xmlns="http://www.w3.org/2000/svg">
<g opacity="0.5">
<path opacity="0.5" d="M546.585 109.913C542.173 92.0414 537.109 89.418 525.182 84.8271C530.247 71.5463 538.579 59.2493 524.202 52.0351C516.163 49.6855 507.975 47.8779 499.696 46.6244C497.256 46.3226 494.785 46.8416 492.671 48.1C490.209 50.4666 488.455 53.4764 487.606 56.7899C486.043 62.1051 485.434 67.6569 485.809 73.186L469.471 68.2672C460.812 37.7705 465.877 31.8679 450.683 25.6374C432.544 20.0053 413.63 17.2937 394.645 17.6034C386.313 21.0466 383.535 29.4085 369.158 47.4442C371.119 28.4248 373.243 21.8664 366.871 15.9638C362.95 12.3567 312.467 -0.432249 303.971 13.0125C299.924 23.7261 298.251 35.1961 299.07 46.6244C287.797 51.8711 284.856 77.9408 274.237 137.294C271.95 150.739 263.617 169.103 268.519 184.187C273.42 199.272 315.244 206.978 335.339 211.241C502.8 247.476 481.234 244.033 491.364 245.18C498.602 246.836 506.187 245.968 512.869 242.719C519.55 239.471 524.931 234.036 528.123 227.309C532.534 218.619 533.351 213.7 545.604 154.018C549.434 139.606 549.77 124.483 546.585 109.913ZM499.696 58.7574C504.986 60.8384 510.454 62.43 516.033 63.5123C520.935 63.5123 514.563 81.384 514.563 81.384L494.304 75.1535C495.355 69.4687 497.168 63.9531 499.696 58.7574ZM313.937 27.2771C316.551 20.0628 342.365 30.8842 355.435 28.5887C356.905 34.1634 355.435 24.6537 357.722 49.5757C342.125 46.6945 326.349 44.8867 310.506 44.165V39.0822C311.65 35.803 312.467 31.8679 313.937 27.2771ZM522.078 184.187C518.321 197.632 516.36 221.078 505.741 226.817C497.245 230.916 465.877 220.422 456.728 218.291C326.027 190.746 302.011 185.499 288.941 179.924C280.935 176.153 283.386 182.22 306.585 58.7574C319.982 53.5107 358.539 65.1519 373.406 60.725C380.921 58.4295 394.155 29.9004 401.017 27.9329C418.728 28.0003 436.26 31.508 452.643 38.2624C454.114 43.6731 457.055 62.3646 458.852 71.0545C462.446 85.483 485.809 82.6957 529.757 102.863C540.376 121.554 528.777 155.658 522.078 184.187Z" fill="#78716C"/>
<path opacity="0.5" d="M418.056 94.9183C417.538 94.5646 416.954 94.3157 416.339 94.1859C415.724 94.056 415.089 94.0476 414.47 94.1613C413.851 94.275 413.262 94.5085 412.734 94.8484C412.206 95.1883 411.751 95.6281 411.395 96.1425C411.038 96.6569 410.788 97.236 410.657 97.8467C410.526 98.4573 410.517 99.0875 410.632 99.7014C410.747 100.315 410.982 100.901 411.324 101.424C411.667 101.948 412.11 102.399 412.628 102.753C420.868 107.288 427.174 114.631 430.379 123.423C433.584 132.215 433.472 141.862 430.063 150.578C427.742 154.771 424.52 158.407 420.626 161.228C416.732 164.048 412.261 165.985 407.529 166.901C358.185 177.347 347.165 122.177 374.633 106.834C379.568 104.222 395.358 104.875 396.509 98.0196C396.653 97.3227 396.656 96.6045 396.518 95.9064C396.381 95.2083 396.105 94.5442 395.708 93.9523C395.31 93.3605 394.798 92.8527 394.202 92.4582C393.605 92.0636 392.936 91.7903 392.233 91.6538C385.338 91.1342 378.415 92.1959 372 94.7567C365.585 97.3176 359.85 101.309 355.239 106.422C350.627 111.534 347.263 117.632 345.407 124.241C343.55 130.851 343.251 137.796 344.533 144.539C358.185 206.891 436.149 191.058 444.702 155.312C448.063 143.742 447.239 131.369 442.372 120.339C437.505 109.309 428.903 100.315 418.056 94.9183Z" fill="#0C0A09"/>
<path opacity="0.5" d="M319.867 85.1211C318.746 102.934 303.847 121.565 307.371 159.969C307.371 161.399 307.928 162.771 308.92 163.783C309.911 164.794 311.256 165.362 312.658 165.362C314.06 165.362 315.405 164.794 316.396 163.783C317.388 162.771 317.945 161.399 317.945 159.969C320.989 137.907 336.529 116.498 329.159 84.1405C329.096 83.5182 328.913 82.9145 328.622 82.3642C328.33 81.8138 327.935 81.3275 327.458 80.9329C326.982 80.5384 326.435 80.2433 325.847 80.0646C325.259 79.886 324.643 79.8271 324.033 79.8915C323.422 79.9559 322.831 80.1422 322.291 80.4399C321.752 80.7375 321.275 81.1407 320.888 81.6263C320.501 82.1119 320.212 82.6705 320.037 83.2701C319.862 83.8697 319.804 84.4987 319.867 85.1211Z" fill="#78716C"/>
<path opacity="0.5" d="M513.268 108.464C505.16 105.757 496.76 104.008 488.242 103.252C487.532 103.136 486.807 103.163 486.107 103.331C485.408 103.499 484.75 103.805 484.171 104.229C483.592 104.654 483.104 105.19 482.735 105.805C482.367 106.42 482.126 107.103 482.027 107.812C480.718 115.304 489.06 113.024 504.926 120.516C503.927 125.548 502.56 130.501 500.837 135.336C495.336 134.726 489.875 133.802 484.48 132.567C481.536 132.567 477.447 132.567 475.157 131.59C474.565 125.415 474.565 119.199 475.157 113.024C475.496 111.843 475.377 110.578 474.822 109.481C474.267 108.384 473.317 107.536 472.162 107.105C471.007 106.673 469.732 106.691 468.589 107.154C467.447 107.617 466.521 108.492 465.997 109.604C464.212 116.77 463.009 124.069 462.399 131.427C461.955 134.853 462.768 138.323 464.689 141.199C470.32 144.986 476.497 147.897 483.008 149.831C492.004 152.763 507.707 156.834 513.922 149.831C519.777 138.912 521.847 126.374 519.811 114.164C519.194 112.802 518.291 111.589 517.162 110.605C516.033 109.622 514.705 108.891 513.268 108.464Z" fill="#78716C"/>
<path d="M372 133.5L371.949 132.32C371.482 121.585 381.669 113.548 392 116.5V116.5" stroke="black" stroke-width="8" stroke-linecap="round"/>
</g>
<path d="M32.128 181L3.328 96.52H18.56L41.344 168.84H42.752L65.792 96.52H80.768L51.84 181H32.128ZM124.186 181V96.52H138.394V181H124.186ZM219.215 182.664C213.668 182.664 208.719 182.109 204.367 181C200.1 179.805 196.474 178.099 193.487 175.88C190.586 173.576 188.367 170.76 186.831 167.432C185.38 164.019 184.698 160.093 184.783 155.656L197.199 152.328C197.028 156.595 197.839 160.136 199.631 162.952C201.423 165.768 204.068 167.901 207.567 169.352C211.151 170.717 215.247 171.4 219.855 171.4C224.378 171.4 228.175 170.845 231.247 169.736C234.319 168.627 236.623 167.133 238.159 165.256C239.78 163.293 240.591 161.075 240.591 158.6C240.591 155.784 239.61 153.565 237.647 151.944C235.77 150.237 233.252 148.915 230.095 147.976C226.938 146.952 223.396 146.013 219.471 145.16C215.46 144.307 211.492 143.325 207.567 142.216C203.642 141.107 200.058 139.656 196.815 137.864C193.658 135.987 191.098 133.597 189.135 130.696C187.258 127.795 186.319 124.125 186.319 119.688C186.319 114.568 187.599 110.173 190.159 106.504C192.719 102.835 196.346 99.976 201.039 97.928C205.818 95.88 211.45 94.856 217.935 94.856C224.42 94.856 230.095 95.88 234.959 97.928C239.908 99.8907 243.791 102.792 246.607 106.632C249.508 110.387 251.002 114.952 251.087 120.328L238.287 123.656C238.287 120.755 237.775 118.195 236.751 115.976C235.812 113.757 234.447 111.923 232.655 110.472C230.863 109.021 228.73 107.955 226.255 107.272C223.78 106.504 220.964 106.12 217.807 106.12C214.138 106.12 210.938 106.675 208.207 107.784C205.476 108.808 203.343 110.259 201.807 112.136C200.356 113.928 199.631 116.061 199.631 118.536C199.631 121.608 200.698 124.04 202.831 125.832C205.05 127.539 207.951 128.947 211.535 130.056C215.119 131.08 218.959 132.061 223.055 133C226.724 133.768 230.351 134.707 233.935 135.816C237.604 136.84 240.932 138.248 243.919 140.04C246.991 141.832 249.423 144.179 251.215 147.08C253.092 149.981 254.031 153.693 254.031 158.216C254.031 163.165 252.708 167.475 250.063 171.144C247.503 174.813 243.663 177.672 238.543 179.72C233.423 181.683 226.98 182.664 219.215 182.664ZM300.191 181V96.52H314.399V181H300.191ZM485.821 181V96.52H504.253L546.621 162.44H547.773L546.877 96.52H560.445V181H543.677L499.645 113.032H498.493L499.389 181H485.821Z" fill="black"/>
</svg>
