<svg width="24" height="24" viewBox="0 0 24 24" fill="none" xmlns="http://www.w3.org/2000/svg">
<g clip-path="url(#clip0_17_29694)">
<path fill-rule="evenodd" clip-rule="evenodd" d="M6.19019 19.91L4.79019 19C4.30628 18.6753 3.8452 18.3178 3.41019 17.93C2.96614 17.5489 2.54538 17.1415 2.15019 16.71C1.9471 16.5231 1.75353 16.3262 1.57019 16.12C1.18019 15.66 1.29019 15.71 1.48019 15.52C1.64229 15.3358 1.81598 15.1621 2.00019 15L4.50019 12.41L5.29019 11.66C5.38037 11.66 5.46685 11.6242 5.53061 11.5604C5.59437 11.4966 5.63019 11.4102 5.63019 11.32C5.63019 11.2298 5.59437 11.1433 5.53061 11.0796C5.46685 11.0158 5.38037 10.98 5.29019 10.98C5.13803 10.9854 4.98987 11.0302 4.86019 11.11C4.54097 11.3146 4.23686 11.5418 3.95019 11.79L1.15019 14.08C0.79383 14.3359 0.479988 14.6464 0.220193 15C0.0455608 15.2618 -0.0289841 15.5777 0.0101932 15.89C0.0651841 16.1528 0.17415 16.4014 0.330193 16.62C0.598764 16.9834 0.903673 17.3184 1.24019 17.62C1.701 18.0496 2.18507 18.4535 2.69019 18.83C3.20417 19.1985 3.74202 19.5326 4.30019 19.83C6.39019 20.98 6.22019 21.21 6.53019 20.9C6.60819 20.8291 6.65816 20.7326 6.67101 20.628C6.68385 20.5234 6.65872 20.4176 6.60019 20.33C6.48492 20.1706 6.34677 20.0291 6.19019 19.91Z" fill="black"/>
<path fill-rule="evenodd" clip-rule="evenodd" d="M23.7001 7.69C23.3569 6.67756 22.7591 5.77044 21.964 5.0559C21.1689 4.34135 20.2033 3.84342 19.1601 3.61C18.3366 3.42722 17.5011 3.30357 16.6601 3.24C15.0801 3.09 13.3601 3 13.0001 3C12.8966 3 12.7974 3.04109 12.7243 3.11423C12.6511 3.18737 12.6101 3.28657 12.6101 3.39C12.6087 3.44159 12.6178 3.49292 12.6369 3.54086C12.656 3.5888 12.6847 3.63234 12.7212 3.66884C12.7577 3.70533 12.8013 3.73401 12.8492 3.75312C12.8971 3.77223 12.9485 3.78138 13.0001 3.78C13.3901 3.78 15.0601 3.92 16.6001 4.12C17.3816 4.20976 18.1566 4.35006 18.9201 4.54C19.7692 4.7633 20.5481 5.19757 21.1845 5.80247C21.8208 6.40737 22.294 7.16328 22.5601 8C22.8018 8.853 22.8372 9.75128 22.6634 10.6207C22.4895 11.49 22.1113 12.3056 21.5601 13C21.0592 13.6137 20.4315 14.1118 19.7201 14.46C18.9729 14.8368 18.1887 15.135 17.3801 15.35C16.2003 15.6895 14.9919 15.9205 13.7701 16.04C12.5343 16.1655 11.2913 16.2056 10.0501 16.16C9.00005 16.16 5.63005 15.77 4.21005 15.59L3.64005 15.51C3.55346 15.475 3.45664 15.475 3.37005 15.51C3.37005 15.51 3.05005 16.07 3.52005 16.17L4.12005 16.27C5.55005 16.51 8.94005 17.02 10.0101 17.1C11.294 17.2063 12.5838 17.223 13.8701 17.15C15.1685 17.0695 16.4571 16.872 17.7201 16.56C18.8096 16.294 19.8564 15.8766 20.8301 15.32C21.5146 14.9225 22.1157 14.3961 22.6001 13.77C23.252 12.9162 23.6917 11.9197 23.8829 10.8626C24.0742 9.80551 24.0115 8.71811 23.7001 7.69Z" fill="black"/>
</g>
<defs>
<clipPath id="clip0_17_29694">
<rect width="24" height="24" fill="white"/>
</clipPath>
</defs>
</svg>
